<svg fill="none" height="18" viewBox="0 0 22 18" width="22" xmlns="http://www.w3.org/2000/svg" xmlns:xlink="http://www.w3.org/1999/xlink"><mask id="a" height="18" maskUnits="userSpaceOnUse" width="22" x="0" y="0"><path clip-rule="evenodd" d="m22 17.6855h-22v-17.5999535h22z" fill="#fff" fill-rule="evenodd"/></mask><g mask="url(#a)"><path d="m-.0146484.0634212h22.0000484v18.2285788h-22.0000484z" fill="#fff"/><path d="m10.757 8.86911c0-2.28359 1.8631-4.13481 4.1615-4.13481s4.1616 1.85122 4.1616 4.13481-1.8632 4.13479-4.1616 4.13479-4.1615-1.8512-4.1615-4.13479z" fill="#fff"/><path d="m5.53713 8.62626c0-2.97706 2.40445-5.39546 5.37487-5.39546 2.9704 0 5.3712 2.4184 5.3712 5.39546 0 2.97704-2.4045 5.39914-5.3749 5.39914-2.97041 0-5.37117-2.4221-5.37117-5.39914z" fill="#c70000"/><g fill="#000"><path clip-rule="evenodd" d="m18.8098 17.1865 3.0925-3.5541-.7324-.6321-3.0962 3.5577zm-1.0135-.871 3.0925-3.5541-.7325-.6322-3.0962 3.5614z" fill-rule="evenodd"/><path d="m21.9023 13.6324-3.0925 3.5541-.7361-.6285 3.0962-3.5577z"/><path clip-rule="evenodd" d="m18.8098 17.1865 3.0925-3.5541-.7324-.6321-3.0962 3.5577zm-2.0493-1.7568 3.0925-3.5614-.7324-.6285-3.0962 3.5577z" fill-rule="evenodd"/><path d="m21.9023 13.6324-3.0925 3.5541-.7361-.6285 3.0962-3.5577z"/><path clip-rule="evenodd" d="m3.08099 17.1895-3.0703088-3.5799.7398338-.6248 3.070305 3.5798zm18.82131-3.5578-3.0925 3.5541-.7361-.6285 3.0962-3.5578zm-19.83118-1.7679 3.0703 3.5798.73984-.6248-3.07031-3.5798z" fill-rule="evenodd"/></g><path d="m4.62737 13.3821-2.90015 2.4919-.54378-.6248 3.1073-2.7712.34403.9041z" fill="#fff"/><path clip-rule="evenodd" d="m1.03173 12.7464 3.07031 3.5798.73243-.6212-3.06661-3.5835zm2.99632-11.66202-2.97413 3.52101.72874.60276 2.97413-3.52101zm-3.9839988 2.6867 2.9778288-3.521015.73243.602762-2.977825 3.521013zm5.0123688-1.83769-2.97413 3.52101.72874.60276 2.97413-3.52101z" fill="#000" fill-rule="evenodd"/><path d="m16.2058 9.57814c-.1702-1.35989-.418-2.87415-2.5229-3.02851-.7879-.04778-2.323.18377-2.8483 2.32284-.6955 2.05083-2.7744 2.63893-4.19118 1.52893-.81012-.52188-1.03207-1.34884-1.08385-1.97365.06288-1.98471 1.21702-3.71213 2.69299-4.48396 1.70161-1.00338 4.05424-1.02544 6.11474.49617.9285.86372 2.2269 2.46251 1.8385 5.13818z" fill="#3d5897"/><path d="m3.94725 4.65723-2.90754-2.48456.54007-.62481 3.22198 2.63892-.85081.47045z" fill="#fff"/><path d="m20.1459 5.14941-3.0703-3.57614.7398-.624814 3.0703 3.576144z" fill="#000"/><path d="m20.6748 2.20559-2.9075 2.49558-.5438-.62481 3.1073-2.77491.344.90782z" fill="#fff"/><path clip-rule="evenodd" d="m16.0542 2.43655 3.0703 3.57615.7399-.62482-3.0703-3.57614zm2.0605-1.745803 3.0703 3.576143.7398-.62481-3.0703-3.5761472z" fill="#000" fill-rule="evenodd"/></g></svg>