<svg fill="none" height="7" viewBox="0 0 12 7" width="12" xmlns="http://www.w3.org/2000/svg"><path d="m5.14759.334778c-.0607.059522-.11192.12542-.15648.193869l-4.650922 4.593553c-.453512.44833-.453728 1.17491.000215 1.62345.453728.44832 1.005457.21213 1.459617-.2362l4.20003-4.14804 4.20005 4.14791c.4535.44853 1.0057.70484 1.4598.25631.2267-.22427.3401-.51784.3401-.8114 0-.29357-.1134-.58778-.3405-.81141l-4.67138-4.614173c-.04456-.068449-.09557-.134135-.15648-.193869-.23246-.229582-.53767-.33969658-.84203-.33459489-.30456-.00531435-.6102.10501289-.84202.33459489z" fill="#fff"/></svg>