<svg height="600" viewBox="0 0 1000 600.00001" width="1000" xmlns="http://www.w3.org/2000/svg"><g transform="translate(0 -452.36218)"><path d="m0 452.36218h1000v600h-1000z" fill="#00c"/><path d="m309.75 752.3621h380.5m-190.25985 189.989a178.04999 214.77858 0 0 0 95.00985-189.98904 178.04999 214.77858 0 0 0 -95.00984-189.98904m134.32654 55.64402a144.76337 62.75 0 0 1 -134.3167 39.34502 144.76337 62.75 0 0 1 -134.3167-39.34501m134.32655 324.33405a178.04999 214.77858 0 0 1 -95.00985-189.98904 178.04999 214.77858 0 0 1 95.00984-189.98904m-.01-.26092v380.5m134.31686-55.90502a144.76337 62.75 0 0 0 -134.3167-39.34502 144.76337 62.75 0 0 0 -134.3167 39.34501m324.3167-134.34489a190 190 0 0 1 -190 190 190 190 0 0 1 -190-190 190 190 0 0 1 190-190 190 190 0 0 1 190 190z" fill="none" stroke="#fff" stroke-width="20"/></g></svg>