<svg height="88" viewBox="0 0 100 88" width="100" xmlns="http://www.w3.org/2000/svg" xmlns:xlink="http://www.w3.org/1999/xlink"><filter id="a" filterUnits="userSpaceOnUse" height="108" width="120" x="-10" y="-10"><feOffset in="SourceGraphic" result="FeOffset1022Out"/><feGaussianBlur in="FeOffset1022Out" result="FeGaussianBlur1023Out" stdDeviation="3.2 3.2"/></filter><g filter="url(#a)"><path d="m65.509 80h-31.019c-2.141 0-3.877-1.79-3.877-4v-31.72l-5.04 4a3.778 3.778 0 0 1 -5.467 0l-10.972-11.12c-1.512-1.56-1.512-4.08 0-5.64l22.798-23.52h6.436c0 4.4 5.196 8 11.632 8s11.632-3.6 11.632-8h6.436l22.798 23.52c1.512 1.56 1.512 4.08 0 5.64l-10.973 11.32a3.847 3.847 0 0 1 -5.467 0l-5.04-4v31.52c0 2.21-1.736 4-3.877 4" fill="none"/></g><path d="m65.509 80h-31.019c-2.141 0-3.877-1.79-3.877-4v-31.72l-5.04 4a3.778 3.778 0 0 1 -5.467 0l-10.972-11.12c-1.512-1.56-1.512-4.08 0-5.64l22.798-23.52h6.436c0 4.4 5.196 8 11.632 8s11.632-3.6 11.632-8h6.436l22.798 23.52c1.512 1.56 1.512 4.08 0 5.64l-10.973 11.32a3.847 3.847 0 0 1 -5.467 0l-5.04-4v31.52c0 2.21-1.736 4-3.877 4" fill="#fff"/></svg>