<svg viewBox="0 0 32 32" xmlns="http://www.w3.org/2000/svg"><circle cx="16" cy="16" r="16"/><path d="m5.25 16.08594a4.16442 4.16442 0 0 0 4.16406 4.16406h.96094l4.625 3.08331v1.16669l-2.547 2.48932h-1.453v1a12.75 12.75 0 0 0 10 0v-1h-1.5658l-2.4342-2.48932v-1.16669l4.625-3.08331h.96094a4.16442 4.16442 0 0 0 4.16406-4.16406v-8.33594h-4.75v-1.75h-12v1.75h-4.75zm16.75-6.83594h3.25v6.83594a2.664 2.664 0 0 1 -2.66406 2.66406h-.58594zm-15.25 0h3.25v9.5h-.58594a2.664 2.664 0 0 1 -2.66406-2.66406z" fill="#fff"/></svg>