<svg xmlns="http://www.w3.org/2000/svg" width="17" height="18" viewBox="0 0 17 18"><defs><mask id="o0esb" width="2" height="2" x="-1" y="-1"><path fill="#fff" d="M1 1h15v15H1z"/><path d="M1 3a2 2 0 0 1 2-2h11a2 2 0 0 1 2 2v11a2 2 0 0 1-2 2H3a2 2 0 0 1-2-2z"/></mask><filter id="o0esa" width="35" height="36" x="-9" y="-9" filterUnits="userSpaceOnUse"><feOffset dy="1" in="SourceGraphic" result="FeOffset1056Out"/><feGaussianBlur in="FeOffset1056Out" result="FeGaussianBlur1057Out" stdDeviation="0 0"/></filter><linearGradient id="o0esc" x1="8.5" x2="8.5" y1="1" y2="16" gradientUnits="userSpaceOnUse"><stop offset="0" stop-color="#454545"/><stop offset="1" stop-color="#363636"/></linearGradient><filter id="o0esd" width="200%" height="200%" x="-50%" y="-50%"><feGaussianBlur in="SourceGraphic" result="FeGaussianBlur1065Out" stdDeviation="0 0"/></filter><mask id="o0ese"><path fill="#fff" d="M1 3a2 2 0 0 1 2-2h11a2 2 0 0 1 2 2v11a2 2 0 0 1-2 2H3a2 2 0 0 1-2-2z"/></mask><clipPath id="o0esf"><path fill="#fff" d="M0 17V0h17v17zm1-3a2 2 0 0 0 2 2h11a2 2 0 0 0 2-2V3a2 2 0 0 0-2-2H3a2 2 0 0 0-2 2z"/></clipPath></defs><g><g><g><g filter="url(#o0esa)"><path fill="none" d="M1 3a2 2 0 0 1 2-2h11a2 2 0 0 1 2 2v11a2 2 0 0 1-2 2H3a2 2 0 0 1-2-2z" mask="url(&quot;#o0esb&quot;)"/><path fill="#4b4b4b" d="M1 3a2 2 0 0 1 2-2h11a2 2 0 0 1 2 2v11a2 2 0 0 1-2 2H3a2 2 0 0 1-2-2z"/></g><path fill="url(#o0esc)" d="M1 3a2 2 0 0 1 2-2h11a2 2 0 0 1 2 2v11a2 2 0 0 1-2 2H3a2 2 0 0 1-2-2z"/><path fill="#525252" d="M1 17v-2a2 2 0 0 0 2 2zM1 0h15v4a2 2 0 0 0-2-2H3a2 2 0 0 0-2 2zm15 17h-2a2 2 0 0 0 2-2z" filter="url(#o0esd)" mask="url(&quot;#o0ese&quot;)"/><path fill="none" stroke="#191919" stroke-miterlimit="20" stroke-width="2" d="M1 3a2 2 0 0 1 2-2h11a2 2 0 0 1 2 2v11a2 2 0 0 1-2 2H3a2 2 0 0 1-2-2z" clip-path="url(&quot;#o0esf&quot;)"/></g><g><path fill="#fff" d="M4 5h1v9H4z"/><path fill="none" stroke="#fff" stroke-miterlimit="20" d="M4 5v0h1v9H4v0z"/></g><g><path fill="#fff" d="M8 8h1v6H8z"/><path fill="none" stroke="#fff" stroke-miterlimit="20" d="M8 8v0h1v6H8v0z"/></g><g><path fill="#fff" d="M12 11h1v3h-1z"/><path fill="none" stroke="#fff" stroke-miterlimit="20" d="M12 11v0h1v3h-1v0z"/></g></g></g></svg>