<svg enable-background="new 0 0 512 512" height="512" viewBox="0 0 512 512" width="512" xmlns="http://www.w3.org/2000/svg"><path d="m274.085 274.084h201.75v165.154c0 19.896-16.271 36.166-36.168 36.166h-403.499c-19.897 0-36.168-16.269-36.168-36.166v-330.31c0-19.891 16.271-36.166 36.168-36.166h201.75v165.155c0 19.89 16.268 36.167 36.167 36.167zm201.75-237.488h-165.585c-19.896 0-36.165 16.282-36.165 36.167v128.994c0 19.886 16.269 36.166 36.165 36.166h165.585c19.894 0 36.165-16.28 36.165-36.166v-128.994c0-19.885-16.271-36.167-36.165-36.167z" fill="#7f7f7f"/></svg>