<svg enable-background="new 0 0 512 512" height="512" viewBox="0 0 512 512" width="512" xmlns="http://www.w3.org/2000/svg"><path d="m294.488 127.433v-127.433l170.799 170.802h-127.431c-23.913 0-43.368-19.456-43.368-43.369zm170.799 63.385v321.182h-418.574v-512h227.759v127.433c0 34.951 28.434 63.386 63.385 63.386h127.43zm-384.514-123.906c0 5.527 4.482 10.01 10.01 10.01h144.679c5.523 0 10.007-4.483 10.007-10.01 0-5.525-4.483-10.008-10.007-10.008h-144.679c-5.527 0-10.01 4.483-10.01 10.008zm0 94.546c0 5.527 4.482 10.01 10.01 10.01h144.679c5.523 0 10.007-4.483 10.007-10.01 0-5.525-4.483-10.006-10.007-10.006h-144.679c-5.527-.001-10.01 4.481-10.01 10.006zm350.463 283.636c0-5.523-4.483-10.006-10.01-10.006h-330.443c-5.527 0-10.01 4.483-10.01 10.006 0 5.527 4.482 10.01 10.01 10.01h330.443c5.527 0 10.01-4.483 10.01-10.01zm0-94.546c0-5.523-4.483-10.006-10.01-10.006h-330.443c-5.527 0-10.01 4.483-10.01 10.006 0 5.527 4.482 10.01 10.01 10.01h330.443c5.527 0 10.01-4.483 10.01-10.01zm0-94.545c0-5.523-4.483-10.006-10.01-10.006h-330.443c-5.527 0-10.01 4.483-10.01 10.006 0 5.527 4.482 10.01 10.01 10.01h330.443c5.527 0 10.01-4.483 10.01-10.01z" fill="#7f7f7f"/></svg>