<svg fill="none" height="12" viewBox="0 0 10 12" width="10" xmlns="http://www.w3.org/2000/svg"><path d="m5.74791 11.1705-.49554.607c-.20982.2571-.54911.2571-.75669 0l-4.33929-5.31285c-.2098219-.25703-.2098219-.67266 0-.92695l4.33929-5.31563c.20982-.2570309.5491-.2570309.75669 0l.49554.607032c.21205.259768.20759.683598-.00893.937888l-2.68973 3.13906h6.41518c.29687 0 .53567.29258.53567.65625v.875c0 .36368-.2388.65625-.53567.65625h-6.41518l2.68973 3.13905c.21875.2543.22321.6781.00893.9379z" fill="#000"/></svg>