<svg fill="none" height="25" viewBox="0 0 25 25" width="25" xmlns="http://www.w3.org/2000/svg"><path d="m2.02277 24.6552 6.77367-6.7291c2.03376 1.5541 4.58816 2.2781 7.14126 2.0239s4.9121-1.4673 6.5949-3.3915c1.6829-1.9242 2.5625-4.4142 2.4592-6.9611-.1032-2.54692-1.1817-4.95854-3.0149-6.74201s-4.2828-2.804172-6.8482-2.85351427c-2.5653-.04934223-5.0529.87639727-6.95417 2.58804427-1.90132 1.71164-3.07292 4.07997-3.27536 6.62102-.20245 2.54106.57954 5.06296 2.18615 7.05046l-6.738268 6.7291c-.222214.2208-.347052.5202-.347052.8324s.124839.6116.347052.8323c.222214.2208.523601.3448.837858.3448.31426 0 .61565-.124.83786-.3448zm7.55253-19.92949c1.0726-1.08244 2.4443-1.82456 3.9415-2.13248s3.0527-.1678 4.4697.40262c1.4171.57042 2.632 1.54552 3.4911 2.80197.8592 1.25645 1.3239 2.73779 1.3354 4.25668.0116 1.5188-.4305 3.007-1.2704 4.2762s-2.0399 2.2624-3.4481 2.8541c-1.4082.5916-2.9614.7551-4.4631.4697-1.5018-.2854-2.8845-1.0069-3.9735-2.0731-.30808-.3062-.59213-.6354-.84965-.9847-1.07961-1.4675-1.59565-3.27-1.45499-5.08219.14066-1.81223.92875-3.51483 2.22204-4.80052z" fill="#fff"/></svg>