<svg fill="none" height="7" viewBox="0 0 11 7" width="11" xmlns="http://www.w3.org/2000/svg"><path d="m6.28137 6.66522c.05564-.05952.1026-.12542.14344-.19387l4.26339-4.59355c.4157-.44833.4159-1.174911-.0002-1.623446-.416-.448323-.9217-.2121296-1.33801.236193l-3.85004 4.148043-3.85003-4.147908c-.41572-.4485351-.921868-.704845-1.338179-.25631-.207762.224268-.311741.517835-.311741.811398 0 .29357.103978.58778.312135.81141l4.282095 4.61417c.04084.06845.0876.13414.14344.19387.21308.22958.49286.3397.77185.3346.27918.00531.55936-.10502.77185-.3346z" fill="#131111"/></svg>