<svg fill="none" height="8" viewBox="0 0 5 8" width="5" xmlns="http://www.w3.org/2000/svg"><path d="m4.76087 3.77229c-.04251-.0354-.08958-.06529-.13848-.09128l-3.28111-2.713036c-.32023-.264549-.839216-.264674-1.159599.000126-.32023.26467-.1515208.58652.16871.85144l2.962889 2.45002-2.962793 2.45002c-.320382.26455-.503461.58665-.183079.85157.160192.13221.369883.19838.579574.19838s.419838-.06617.579578-.19863l3.29583-2.72497c.0489-.02599.09582-.05574.13848-.09128.16399-.1356.24264-.31364.239-.49118.0038-.17766-.07501-.35595-.239-.49118z" fill="#131111"/></svg>