<svg fill="none" height="12" viewBox="0 0 10 12" width="10" xmlns="http://www.w3.org/2000/svg"><path d="m5.74766 11.1705-.49553.607c-.20982.2571-.54911.2571-.7567 0l-4.339285-5.31285c-.2098211-.25703-.2098211-.67266 0-.92695l4.339285-5.31563c.20982-.2570309.54911-.2570309.7567 0l.49553.607032c.21206.259768.20759.683598-.00893.937888l-2.68973 3.13906h6.41518c.29688 0 .53572.29258.53572.65625v.875c0 .36368-.23884.65625-.53572.65625h-6.41518l2.68973 3.13905c.21875.2543.22322.6781.00893.9379z" fill="#fff"/></svg>