<svg viewBox="0 0 32 32" xmlns="http://www.w3.org/2000/svg"><circle cx="16" cy="16" r="16"/><g fill="#fff"><path d="m7 13h18v12h-18z"/><path d="m25.5 9h-4.54852a8.15669 8.15669 0 0 0 .69891-.55566 2.75005 2.75005 0 0 0 -3.88965-3.88868 12.37439 12.37439 0 0 0 -1.76074 2.62079 12.37439 12.37439 0 0 0 -1.76074-2.62079 2.75005 2.75005 0 0 0 -3.88965 3.88868 8.16164 8.16164 0 0 0 .69897.55566h-4.54858v3h19zm-6.67871-3.38379a1.25021 1.25021 0 0 1 1.76855 1.76758 10.78037 10.78037 0 0 1 -2.49633 1.61621h-1.24945a11.06414 11.06414 0 0 1 1.97723-3.38379zm-7.41113 1.76758a1.25021 1.25021 0 0 1 1.76855-1.76758 11.06414 11.06414 0 0 1 1.97723 3.38379h-1.24945a10.77689 10.77689 0 0 1 -2.49633-1.61621z"/></g></svg>