<svg enable-background="new 0 0 140 132.24" viewBox="0 0 140 132.24" xmlns="http://www.w3.org/2000/svg"><ellipse cx="69.19" cy="66.36" fill="#0a0909" rx="65.12" ry="63.6"/><path d="m-408.33-104.33h5.33v103.33h-5.33z" fill="#0a0909" transform="matrix(-.9718 -.236 .236 -.9718 -787.4491 -199.5728)"/><path d="m88.82 83.8 3.63-12.33-30.54 26.92 4.58-17.72-39.26 29.55 28.44-40.8-17.06 4.76 25.91-31.74-11.87 3.78s31.85-48.15 57.18-21.83-21.01 59.41-21.01 59.41z" fill="#f9d026"/><path d="m55.67 69.41-17.06 4.76 25.91-31.74-11.87 3.78s31.85-48.15 57.18-21.83l-82.6 85.83z" fill="#e7c224"/><path d="m110.82 53.58-13.6 1.36-9.05 10.63-5.45-13.02-12.53-5.66 10.24-9.4 1.3-14.14 11.78 7.21 13.34-3.07-2.96 13.86z" fill="#ffac12"/><path d="m81.73 23.35 11.78 7.21 13.34-3.07-24.13 25.06-12.53-5.66 10.24-9.4z" fill="#d89210"/></svg>