<svg fill="none" height="12" viewBox="0 0 15 12" width="15" xmlns="http://www.w3.org/2000/svg"><path d="m4.37499 5.0625v1.875c0 .31066-.31479.5625-.70312.5625h-2.968745c-.38833 0-.703125-.25184-.703125-.5625v-1.875c0-.31066.314795-.5625.703125-.5625h2.968745c.38833 0 .70312.25184.70312.5625zm-4.37499 3.75v1.875c0 .3107.314795.5625.703125.5625h2.968745c.38833 0 .70312-.2518.70312-.5625v-1.875c0-.31066-.31479-.5625-.70312-.5625h-2.968745c-.38833 0-.703125.25184-.703125.5625zm3.67187-8.0625h-2.968745c-.38833 0-.703125.25184-.703125.5625v1.875c0 .31066.314795.5625.703125.5625h2.968745c.38833 0 .70312-.25184.70312-.5625v-1.875c0-.31066-.31479-.5625-.70312-.5625zm2.34374 10.5h8.28129c.3883 0 .7031-.2518.7031-.5625v-1.875c0-.31066-.3148-.5625-.7031-.5625h-8.28129c-.38832 0-.70312.25184-.70312.5625v1.875c0 .3107.3148.5625.70312.5625zm-.70312-9.9375v1.875c0 .31066.3148.5625.70312.5625h8.28129c.3883 0 .7031-.25184.7031-.5625v-1.875c0-.31066-.3148-.5625-.7031-.5625h-8.28129c-.38832 0-.70312.25184-.70312.5625zm.70312 6.1875h8.28129c.3883 0 .7031-.25184.7031-.5625v-1.875c0-.31066-.3148-.5625-.7031-.5625h-8.28129c-.38832 0-.70312.25184-.70312.5625v1.875c0 .31066.3148.5625.70312.5625z" fill="#626262"/></svg>