<svg fill="none" height="24" viewBox="0 0 24 24" width="24" xmlns="http://www.w3.org/2000/svg"><g opacity=".5"><path d="m12 24c6.6274 0 12-5.3726 12-12 0-6.62742-5.3726-12-12-12-6.62742 0-12 5.37258-12 12 0 6.6274 5.37258 12 12 12z" fill="#000"/><g fill="#fff"><path d="m2.91309 8.64355v6.82505h4.11525v-1.404h-2.535v-5.42105z"/><path d="m9.64136 8.64355h-1.57984v6.82475h1.57984z"/><path d="m14.2039 15.4686 2.2912-6.82505h-1.6965l-1.413 4.81655-1.4145-4.81655h-1.6957l2.2905 6.82505z"/><path d="m17.1289 15.4686h4.173v-1.2668h-2.5935v-1.5015h2.5935v-1.239h-2.5935v-1.55025h2.5935v-1.2675h-4.173z"/></g></g></svg>