<svg fill="none" height="8" viewBox="0 0 8 8" width="8" xmlns="http://www.w3.org/2000/svg"><path d="m6.82844 5.17156c-.43567-.43565-.95424-.75817-1.52002-.9534.60597-.41736 1.00408-1.11585 1.00408-1.90566 0-1.27511-1.03739-2.3125-2.3125-2.3125s-2.3125 1.03739-2.3125 2.3125c0 .78981.39811 1.4883 1.00409 1.90566-.56578.19523-1.08434.51775-1.52001.9534-.755502.75552-1.17158 1.76-1.17158 2.82844h.625c0-1.86098 1.51402-3.375 3.375-3.375s3.375 1.51402 3.375 3.375h.625c0-1.06844-.41608-2.07292-1.17156-2.82844zm-2.82844-1.17156c-.93048 0-1.6875-.757-1.6875-1.6875s.75702-1.6875 1.6875-1.6875 1.6875.757 1.6875 1.6875-.75702 1.6875-1.6875 1.6875z" fill="#000"/></svg>