<svg fill="none" height="13" viewBox="0 0 13 13" width="13" xmlns="http://www.w3.org/2000/svg"><path d="m6.39167 1.3c-.325-.758333-.975-1.3-1.84167-1.3s-1.51667.541667-1.84167 1.3h-2.70833v1.3h2.70833c.21667.75833.975 1.3 1.84167 1.3s1.51667-.54167 1.84167-1.3h6.60833v-1.3zm-1.84167 1.3c-.325 0-.65-.325-.65-.65s.325-.65.65-.65.65.325.65.65-.325.65-.65.65zm3.9 1.95c.86667 0 1.51667.54167 1.8417 1.3h2.7083v1.3h-2.7083c-.32503.75833-.97503 1.3-1.8417 1.3s-1.51667-.54167-1.84167-1.3h-6.60833v-1.3h6.60833c.325-.75833.975-1.3 1.84167-1.3zm0 2.6c.325 0 .65-.325.65-.65s-.325-.65-.65-.65-.65.325-.65.65.325.65.65.65zm-4.55 1.95c.86667 0 1.51667.54167 1.84167 1.3h7.25833v1.3h-7.25833c-.325.7583-.975 1.3-1.84167 1.3s-1.51667-.5417-1.84167-1.3h-2.05833v-1.3h2.05833c.325-.75833.975-1.3 1.84167-1.3zm0 2.6c.325 0 .65-.325.65-.65s-.325-.65-.65-.65-.65.325-.65.65.325.65.65.65z" fill="#e4e4e4"/></svg>