<svg height="8" viewBox="0 0 10 8" width="10" xmlns="http://www.w3.org/2000/svg"><g fill="#fa3939"><path d="m5.33 7.202 4.528-3.164c.184-.126.184-.33 0-.456l-.277-.19a.63.63 0 0 0 -.663 0l-3.92 2.746-3.92-2.744a.63.63 0 0 0 -.664 0l-.277.19c-.184.127-.184.33 0 .457l4.529 3.163c.183.124.48.124.663-.002z"/><path d="m5.33 3.905 4.527-3.163c.184-.126.184-.33 0-.457l-.277-.19a.63.63 0 0 0 -.663 0l-3.92 2.747-3.919-2.745a.63.63 0 0 0 -.664 0l-.277.191c-.184.126-.184.33 0 .456l4.529 3.164c.183.123.48.123.663-.003z"/></g></svg>