<svg height="22" viewBox="0 0 123 22" width="123" xmlns="http://www.w3.org/2000/svg"><g fill="#fff"><path d="m48.779 18.64h-13.28a3 3 0 0 1 -3-3v-9.816a3 3 0 0 1 3-3h13.28v3.163h-10.958c-1.183 0-1.774.528-1.774 1.582v1.581h9.214v3.164h-9.214v2.083c0 .596.483 1.08 1.08 1.08h11.652z"/><path d="m51.378 15.486 10.847-9.5h-10.848v-3.161h14.786c1.661 0 2.436 2.058 1.187 3.153l-10.828 9.5h10.822v3.163h-14.78c-1.662 0-2.436-2.059-1.186-3.154z"/><path d="m81.72 15.014a1.822 1.822 0 0 1 -1.254.463h-7.097v-3.163h7.097c.49 0 .907.154 1.255.463.346.309.519.681.519 1.118s-.173.81-.52 1.119zm.52-7.445c0 .437-.173.81-.52 1.118a1.821 1.821 0 0 1 -1.254.463h-7.097v-3.163h7.097c.49 0 .907.155 1.255.463.346.31.519.682.519 1.12zm3.548 6.326c0-1.205-.456-2.26-1.368-3.163.912-.904 1.368-1.958 1.368-3.163 0-.648-.139-1.262-.418-1.842a4.798 4.798 0 0 0 -1.14-1.514 5.457 5.457 0 0 0 -1.698-1.016 5.746 5.746 0 0 0 -2.066-.373h-10.646v15.816h10.646a5.72 5.72 0 0 0 2.079-.372 5.476 5.476 0 0 0 1.685-1.017c.481-.43.861-.93 1.14-1.503.28-.572.418-1.19.418-1.853z"/><path d="m104.77 18.64h-13.28a3 3 0 0 1 -3-3v-9.816a3 3 0 0 1 3-3h13.28v3.163h-10.956c-1.183 0-1.774.528-1.774 1.582v1.581h8.614v3.164h-8.614v2.083c0 .596.483 1.08 1.08 1.08h11.652z"/><path d="m116.79 5.987v12.653h-3.548v-12.653h-6.21v-3.163h15.968v3.163z"/><path d="m26.596 9.48-10.158 4.238-3.073-3.984h1.686c1.202 0 2.095-.109 2.703-.78.928-1.098 5.265-6.528 1.838-7.228-4.13-.846-12.362 5.327-13.128 5.897-.324.241-1.274.228-1.013-.013a35.553 35.553 0 0 1 2.038-1.747 31.097 31.097 0 0 1 4.245-2.835c.22-.117.427-.236.665-.353l.347-.178.366-.176c.239-.118.513-.235.774-.353.135-.059.28-.116.422-.17.14-.055.285-.118.443-.171.696-.27 1.41-.495 2.134-.677.421-.104.887-.203 1.394-.284.246-.042.52-.07.78-.102s.532-.042.796-.06c.256 0 .518-.01.758 0l.348.019c.116.007.232.014.327.026.356.035.708.099 1.054.19.444.109.865.295 1.244.55l.112.076.093.076c.06.052.126.102.18.154.101.098.196.203.282.315l.12.16.097.162c.062.104.116.213.163.326.317.867.366 1.81.14 2.704-.304 1.28-.88 2.486-1.503 3.624-.218.369-.146.597.353.597z"/><path d="m0 12.517 10.115-4.246 3.09 3.99h-1.727c-1.348 0-2.098.138-2.68.774-.93 1.099-5.265 6.529-1.84 7.23 4.132.844 12.363-5.328 13.13-5.898.323-.24 1.273-.228 1.013.013a34.64 34.64 0 0 1 -2.039 1.747 31.139 31.139 0 0 1 -4.245 2.835c-.219.118-.426.236-.665.353l-.346.177-.367.177c-.238.117-.512.234-.774.352-.135.059-.28.117-.421.176s-.286.117-.443.17c-.697.27-1.41.496-2.134.677-.422.105-.887.204-1.394.284-.247.043-.52.07-.78.102-.26.033-.532.042-.797.06a6.808 6.808 0 0 1 -.758 0l-.347-.019a3.874 3.874 0 0 1 -.328-.026 6.691 6.691 0 0 1 -1.053-.19 3.912 3.912 0 0 1 -1.245-.55l-.111-.074-.093-.077c-.06-.051-.126-.103-.18-.154a3.042 3.042 0 0 1 -.284-.315l-.12-.16-.096-.162a2.623 2.623 0 0 1 -.163-.327 4.592 4.592 0 0 1 -.139-2.704c.303-1.28.81-2.504 1.503-3.624.217-.368-.043-.597-.627-.597z"/></g></svg>