<svg height="35" viewBox="0 0 35 35" width="35" xmlns="http://www.w3.org/2000/svg"><g fill="#de1515"><path d="m17.498 3.653a13.836 13.836 0 0 1 13.847 13.847c-.006 7.639-6.201 13.827-13.84 13.825-7.638-.002-13.83-6.194-13.832-13.832-.002-7.639 6.187-13.834 13.825-13.84zm0-3.653c-9.665 0-17.5 7.835-17.5 17.5s7.835 17.5 17.5 17.5 17.5-7.835 17.5-17.5-7.835-17.5-17.5-17.5z"/><path d="m7.139 10.78a5.49 5.49 0 0 0 3.44-2h1.84v12.69h-3.11v-8.29s0-1-1.29-1h-.88z"/><path d="m18.834 19.224a.54.54 0 0 1 -.58.55.54.54 0 0 1 -.53-.54v-3.06a.53.53 0 0 1 .53-.53.54.54 0 0 1 .54.53v3.05zm0-6.15a.54.54 0 0 1 -.58.53.53.53 0 0 1 -.53-.53v-2.13a.54.54 0 0 1 .53-.54.54.54 0 0 1 .54.54v2.13zm-4.18 3.07c-.34 2.61 0 4.2 1 4.91a5.06 5.06 0 0 0 2.68.73 4.64 4.64 0 0 0 2.89-.85c1.03-.89.81-2.73.81-4.55a2.36 2.36 0 0 0 -1.31-2.11 2.19 2.19 0 0 0 1.23-2.1c0-2-.47-3.68-3.61-3.68s-3.76 1.69-3.76 3.42a2.56 2.56 0 0 0 1.21 2.34 2.34 2.34 0 0 0 -1.14 1.89z"/><path d="m23.306 13.726v1.55h2.34v2.32h1.53v-2.34h2.33v-1.53h-2.31v-2.35h-1.51v2.35z"/><path d="m12.702 25.605.19-.64.19.64zm.61.7h.56l-.66-1.79h-.59l-.66 1.76h.55l.09-.29h.62z"/><path d="m14.881 24.909a.41.41 0 0 1 .31.1.6.6 0 0 1 .09.38 1.11 1.11 0 0 1 0 .31.3.3 0 0 1 -.08.21.65.65 0 0 1 -.24 0h-.13v-1zm-.6 1.31h.77c.11.013.22.013.33 0a.68.68 0 0 0 .42-.4 1.29 1.29 0 0 0 .06-.44 1.27 1.27 0 0 0 0-.34.82.82 0 0 0 -.14-.28.75.75 0 0 0 -.24-.19 1.07 1.07 0 0 0 -.39-.06h-.81z"/><path d="m17.473 24.51h.54v1a1 1 0 0 1 0 .3.78.78 0 0 1 -.16.24.69.69 0 0 1 -.21.15 1.12 1.12 0 0 1 -.38.06h-.28a.81.81 0 0 1 -.26-.07.7.7 0 0 1 -.19-.16.56.56 0 0 1 -.11-.2 1.17 1.17 0 0 1 0-.3v-1h.54v1.07a.29.29 0 0 0 .08.22.28.28 0 0 0 .22.09.28.28 0 0 0 .3-.31z"/><path d="m18.51 24.515h.55v1.32h.84v.47h-1.39z"/><path d="m19.921 24.515h1.65v.43h-.55v1.36h-.55v-1.36h-.55z"/><path d="m21.73 25.679h.52a.38.38 0 0 0 .06.19.3.3 0 0 0 .24.11.3.3 0 0 0 .18 0 .16.16 0 0 0 .07-.13.14.14 0 0 0 -.06-.12.79.79 0 0 0 -.28-.11 1.11 1.11 0 0 1 -.51-.32.43.43 0 0 1 -.15-.34.45.45 0 0 1 .07-.25.57.57 0 0 1 .24-.19 1 1 0 0 1 .43-.07.93.93 0 0 1 .52.12.62.62 0 0 1 .21.4h-.52a.24.24 0 0 0 -.26-.23.2.2 0 0 0 -.14.05.09.09 0 0 0 0 .09.09.09 0 0 0 0 .08.44.44 0 0 0 .18.06 2.2 2.2 0 0 1 .51.16.48.48 0 0 1 .29.45.59.59 0 0 1 -.09.32.61.61 0 0 1 -.26.21 1 1 0 0 1 -.42.08.88.88 0 0 1 -.63-.18.66.66 0 0 1 -.2-.38z"/><path d="m14.512 27.304a.31.31 0 0 1 .26-.12.34.34 0 0 1 .27.12.52.52 0 0 1 .1.36.69.69 0 0 1 -.09.41.34.34 0 0 1 -.28.11.37.37 0 0 1 -.27-.11.66.66 0 0 1 -.09-.39.58.58 0 0 1 .1-.38zm-.56.93a.84.84 0 0 0 .32.3c.155.065.322.096.49.09a1 1 0 0 0 .49-.11.75.75 0 0 0 .33-.34 1.06 1.06 0 0 0 .1-.5.86.86 0 0 0 -.23-.66.92.92 0 0 0 -.68-.24.9.9 0 0 0 -.67.24.92.92 0 0 0 -.24.67 1 1 0 0 0 .09.55z"/><path d="m16.179 26.798h.54l.7 1v-1h.55v1.76h-.51l-.7-1v1h-.54z"/><path d="m18.413 26.798h.55v1.33h.84v.43h-1.39z"/><path d="m19.705 26.798h.65l.38.59.38-.59h.68l-.73 1v.74h-.59v-.74z"/></g></svg>