<svg xmlns="http://www.w3.org/2000/svg" width="25" height="25" viewBox="0 0 25 25"><defs><radialGradient id="1cjza" cx="12.47" cy="12.56" r="7.93" gradientUnits="userSpaceOnUse"><stop offset="0" stop-color="#ebebeb"/><stop offset="1" stop-color="#a5a5a5"/></radialGradient><linearGradient id="1cjzb" x1="-74.07" x2="-74.07" y1="166.32" y2="165.99" gradientUnits="userSpaceOnUse"><stop offset="0" stop-color="#a5a5a5"/><stop offset="1" stop-color="#585858"/></linearGradient><linearGradient id="1cjzc" x1="-69.17" x2="-69.17" y1="164.61" y2="164.28" gradientUnits="userSpaceOnUse"><stop offset="0" stop-color="#a5a5a5"/><stop offset=".5" stop-color="#a5a5a5"/><stop offset="1" stop-color="#a5a5a5"/></linearGradient><linearGradient id="1cjzd" x1="2.88" x2="3.06" y1="9.37" y2="10.9" gradientUnits="userSpaceOnUse"><stop offset="0" stop-color="#585858"/><stop offset="1" stop-color="#a5a5a5"/></linearGradient><linearGradient id="1cjze" x1="7.19" x2="7.19" y1="9.04" y2="11.39" gradientUnits="userSpaceOnUse"><stop offset="0" stop-color="#585858"/><stop offset="1" stop-color="#a5a5a5"/></linearGradient><linearGradient id="1cjzf" x1="11.22" x2="11.22" y1="8.92" y2="11.1" gradientUnits="userSpaceOnUse"><stop offset="0" stop-color="#585858"/><stop offset="1" stop-color="#a5a5a5"/></linearGradient><linearGradient id="1cjzg" x1="13.5" x2="13.5" y1="8.92" y2="11.1" gradientUnits="userSpaceOnUse"><stop offset="0" stop-color="#585858"/><stop offset="1" stop-color="#a5a5a5"/></linearGradient><linearGradient id="1cjzh" x1="17.51" x2="17.51" y1="9.16" y2="11.1" gradientUnits="userSpaceOnUse"><stop offset="0" stop-color="#585858"/><stop offset="1" stop-color="#a5a5a5"/></linearGradient><linearGradient id="1cjzi" x1="21.34" x2="21.34" y1="9.53" y2="11.8" gradientUnits="userSpaceOnUse"><stop offset="0" stop-color="#585858"/><stop offset="1" stop-color="#a5a5a5"/></linearGradient><linearGradient id="1cjzj" x1="2.01" x2="3.27" y1="7.14" y2="9.33" gradientUnits="userSpaceOnUse"><stop offset="0" stop-color="#fff"/><stop offset=".19" stop-color="#fff"/><stop offset=".31" stop-color="#ebebeb"/><stop offset="1" stop-color="#a5a5a5"/></linearGradient><linearGradient id="1cjzk" x1="6.85" x2="7.1" y1="7.12" y2="8.57" gradientUnits="userSpaceOnUse"><stop offset="0" stop-color="#fff"/><stop offset=".19" stop-color="#fff"/><stop offset="1" stop-color="#a5a5a5"/></linearGradient><linearGradient id="1cjzl" x1="10.05" x2="10.35" y1="6.95" y2="8.63" gradientUnits="userSpaceOnUse"><stop offset="0" stop-color="#fff"/><stop offset=".19" stop-color="#fff"/><stop offset=".31" stop-color="#ebebeb"/><stop offset="1" stop-color="#a5a5a5"/></linearGradient><linearGradient id="1cjzm" x1="17.51" x2="17.51" y1="7.06" y2="8.59" gradientUnits="userSpaceOnUse"><stop offset="0" stop-color="#fff"/><stop offset=".19" stop-color="#fff"/><stop offset=".31" stop-color="#ebebeb"/><stop offset="1" stop-color="#a5a5a5"/></linearGradient><linearGradient id="1cjzn" x1="14.46" x2="14.74" y1="6.96" y2="8.55" gradientUnits="userSpaceOnUse"><stop offset="0" stop-color="#fff"/><stop offset=".19" stop-color="#fff"/><stop offset=".31" stop-color="#ebebeb"/><stop offset="1" stop-color="#a5a5a5"/></linearGradient><linearGradient id="1cjzo" x1="12.23" x2="12.38" y1="7.78" y2="8.59" gradientUnits="userSpaceOnUse"><stop offset="0" stop-color="#fff"/><stop offset=".19" stop-color="#fff"/><stop offset=".32" stop-color="#ebebeb"/><stop offset="1" stop-color="#a5a5a5"/></linearGradient><linearGradient id="1cjzp" x1="21.52" x2="21.52" y1="7.35" y2="8.96" gradientUnits="userSpaceOnUse"><stop offset="0" stop-color="#fff"/><stop offset=".19" stop-color="#fff"/><stop offset=".31" stop-color="#ebebeb"/><stop offset="1" stop-color="#a5a5a5"/></linearGradient></defs><g><g><g><path fill="#585858" d="M.16 12.5C.16 5.595 5.72 0 12.58 0S25 5.595 25 12.5C25 19.402 19.44 25 12.58 25S.16 19.402.16 12.5z"/></g><g><path fill="#a5a5a5" d="M12.3 2.811c5.38 0 9.74 4.397 9.74 9.821 0 5.424-4.36 9.82-9.74 9.82s-9.74-4.396-9.74-9.82 4.36-9.82 9.74-9.82z"/></g><g><path fill="url(#1cjza)" d="M12.406 4.627c4.382.018 7.942 3.58 8.002 8.005-.045 4.387-3.602 7.906-7.945 7.862-4.343.044-7.9-3.475-7.945-7.862.007-4.404 3.528-7.978 7.888-8.005z"/></g><g><path fill="url(#1cjzb)" d="M.163 7.39l.135 1.47.197.145.235 1.645-.235.273.235 1.336.35.58s3.445-.625 3.565-.58c.12.045 6.407.158 6.407.158l9.49.126 2.816.2c.174-.188.284-.426.314-.68.127-1.238-.07-.804-.07-1.159a1.342 1.342 0 0 0-.32-.987l.492-.783.05-.95-.756-.787-3.24-.463-.336.098-.245-.144-5.82-.267-.13.776-1.995.003a.944.944 0 0 0-.185-.661c-.522-.159-1.768-.15-2.007.023a.455.455 0 0 0-.13.493s-1.537-.994-2.82-.41c-1.283.584-1.383 1.253-1.383 1.253S4.69 6.85 2.812 7.083C.933 7.317.163 7.39.163 7.39z"/></g><g><path fill="#a5a5a5" d="M4.39 12.641l-.467 2.22.467 1.578s-.66 2.082 0 2.265c.66.182 3.47.196 3.47.196H19.7s1.053-1.082.992-1.665c-.06-.584-.727-1.161-.727-1.161l-.96-3.431z"/></g><g><path fill="#585858" d="M4.992 13.326l-.25.255v.793l.219.392s.023.93 0 1.967c-.292.41-.2 1.441.065 1.502.786.083 1.578.097 2.366.042.353-.07.695-.185 1.019-.342l.446.3s.274.005 1.504.042c.141.005.266-.138.462-.302.154.004.243.249.512.26.343.015.959.026 1.452.043.235-.062.266-.17.266-.17s.004.11.324.127c.502.027 2.373.043 2.373.043.2-.096.377-.232.523-.399.07.083.075.28.424.356.829.105 1.666.123 2.498.052.38-.088.66-.73.895-1.25.018-.513-.968-.84-.968-.84l-.46.44-.24-.114v-2.98l-.301-.216h-1.424l-.375.216-.049.996.227.229v1.94l-.68-.433h-.322l-.317.364-.253-.188v-2.78l-.24-.309-1.45-.035a.636.636 0 0 0-.38.344c-.11 0-.007.386 0 .828-.116-.003.068.13.194.268-.173-.012-.005 1.3 0 2.228-.04-.117-1.125-3.397-1.374-3.603-.248-.206-1.37-.093-1.998-.065-.134-.03-.184.065-.318.302-.195-.033-.028.83.176 1.073-.065-.009-.384 1.07-.576 1.561-.074-.013-.159-.634-.331-.69-.077-.024.42-.348.27-1.343a1.56 1.56 0 0 0-1.165-.903 70.984 70.984 0 0 0-1.639-.015c-.646.001-1.105.014-1.105.014z"/></g><g><path fill="#403f3f" d="M7.079 19.137h.254c.092.001.116.029.092.122a.533.533 0 0 1-.378.4.573.573 0 0 1-.768-.521zM5.998 5.94a.476.476 0 0 1 .406.257.324.324 0 0 1 0 .39c-.202.11-.414.2-.634.267a.24.24 0 0 1-.073-.047.427.427 0 0 1-.195-.5.511.511 0 0 1 .496-.367zM3.906 17.485zm0 0a7.775 7.775 0 0 1-1.22-2.983c.04.033.06.048.078.066.427.414.852.83 1.274 1.249a.195.195 0 0 1 .048.118c.008.091.001.183.003.275a.496.496 0 0 1-.112.406.44.44 0 0 0-.08.264c-.009.17.005.34.009.51zm4.329 1.485c.009.001.017 0 .02.003.164.158.386.24.613.226.528-.015 1.056-.012 1.584-.025a.38.38 0 0 0 .378-.23.7.7 0 0 0 .633.234c.345-.001.69-.008 1.036.002a.808.808 0 0 0 .535-.196c.203.154.46.221.712.187.704.01 1.409.007 2.113.003a.415.415 0 0 0 .355-.18c.126.234.356.182.572.21a.757.757 0 0 1-.062.049 7.947 7.947 0 0 1-2.855 1.09 7.425 7.425 0 0 1-2.073.075 7.036 7.036 0 0 1-3.51-1.306l-.078-.06-.025-.018zm-2.177.17c.165.57.452.805.904.743a.74.74 0 0 0 .67-.74c.102-.009.204-.02.307-.025a.131.131 0 0 1 .075.036 7.008 7.008 0 0 0 3.184 1.385c.668.12 1.349.15 2.025.092a8.066 8.066 0 0 0 3.876-1.384.255.255 0 0 1 .13-.049l2.084-.001c.02 0 .042.003.07.003-3.31 3.636-9.836 4.55-14.316-.06zM16.63 6.645c-.446-.017-.892-.038-1.338-.052-.512-.016-1.024-.027-1.535-.04a.778.778 0 0 0-.175.013.341.341 0 0 0-.3.346c-.004.092 0 .184 0 .295l-1.917.043v-.295a.297.297 0 0 0-.254-.322.865.865 0 0 0-.183-.02H9.382a.503.503 0 0 0-.509.35 1.428 1.428 0 0 0-.02.193 2.754 2.754 0 0 0-1.388-.552 2.26 2.26 0 0 1 .092-.109 5.187 5.187 0 0 1 2.296-1.42 7.773 7.773 0 0 1 2.806-.34 8.078 8.078 0 0 1 4.051 1.304c.263.17.505.371.756.559.03.026.06.054.088.083zm3.53.224c-.142-.007-.261-.012-.381-.02-.102-.007-.198-.002-.253.123-.148-.223-.373-.181-.574-.199-.34-.03-.682-.043-1.023-.067a.17.17 0 0 1-.093-.042A8.069 8.069 0 0 0 14 4.703a8.365 8.365 0 0 0-2.43-.157 6.708 6.708 0 0 0-3.19 1c-.425.266-.803.6-1.12.99a.15.15 0 0 1-.095.05c-.18.012-.362.017-.554.024a.601.601 0 0 0-.069-.57.68.68 0 0 0-1.16.053c-.185.314-.127.55.237.92-.332.226-.6.535-.775.897a3.588 3.588 0 0 0-.266-.389 3.717 3.717 0 0 0-.36-.32c.047-.07.098-.155.157-.235A9.528 9.528 0 0 1 9.893 3.2a9.74 9.74 0 0 1 3.082-.271c1.48.104 2.915.56 4.187 1.33a11.098 11.098 0 0 1 2.917 2.504l.081.104zm-4.725 9.023c.232-.186.347-.185.62-.002.002-.033.005-.06.005-.088v-.502a1.404 1.404 0 0 0-.08-.482 2.477 2.477 0 0 1-.092-1.338.85.85 0 0 1 .858-.667c.411-.003.822 0 1.233 0a.888.888 0 0 1 .938.945v2.105a.754.754 0 0 1 .743.076c.164.094.317.207.485.318.266-.282.54-.57.812-.86l.823-.877c.046.342-.63 2.156-1.01 2.721a1.328 1.328 0 0 0-.557-.946l-.023.016c.044.049.09.096.13.147.248.267.308.66.152.99-.166.37-.37.722-.61 1.05a.72.72 0 0 1-.609.281c-.892.007-1.786.004-2.68 0-.132 0-.273-.001-.357-.148a.518.518 0 0 1-.423.15h-2.357a.406.406 0 0 1-.191-.02.36.36 0 0 0-.352 0 .435.435 0 0 1-.163.022h-1.604a.317.317 0 0 1-.35-.219.382.382 0 0 1-.387.22c-.53-.005-1.061-.002-1.593-.002-.084 0-.169-.005-.253-.014-.222-.025-.252-.054-.297-.272a.53.53 0 0 1-.487.266c-.832.002-1.663.002-2.494 0a1.62 1.62 0 0 1-.31-.029.783.783 0 0 1-.63-.59 2.786 2.786 0 0 1-.061-1.246.55.55 0 0 1 .182-.339.122.122 0 0 0 .032-.084c.002-.509.002-1.017 0-1.526a.122.122 0 0 0-.028-.087.537.537 0 0 1-.192-.395 11.997 11.997 0 0 1-.014-.943.652.652 0 0 1 .312-.51c.198-.142.435-.218.677-.218.668 0 1.337-.002 2.005.002a2.64 2.64 0 0 1 .92.153c.305.114.572.31.774.565.014-.073.02-.134.036-.192a.64.64 0 0 1 .543-.448c.08-.015.162-.022.243-.02h1.888a.573.573 0 0 1 .615.414c.04.1.067.205.103.32.012-.064.019-.12.032-.174a.739.739 0 0 1 .638-.559c.08-.015.161-.021.243-.02h1.31a.696.696 0 0 1 .717.482c.09.219.136.453.135.69.002.624 0 1.248 0 1.884zM13.478 7.4l.022-.424c.004-.154.048-.218.2-.225.331-.013.664-.02.995-.01.825.023 1.65.053 2.473.091.696.031 1.393.077 2.089.116a.3.3 0 0 1 .248.187.34.34 0 0 1 .357-.127c.47.047.94.088 1.408.15.423.055.845.119 1.26.21.238.055.468.14.683.254.415.228.636.7.547 1.166-.068.407-.259.784-.548 1.077l-.062.07c.011.01.018.02.029.025.447.116.29.863.29.99.004.042.02.082.047.115.081.095.174.186.166.311-.031.29-.075.58-.08.872a.312.312 0 0 1-.386.33c-.513-.066-1.024-.15-1.535-.23a.17.17 0 0 1-.098-.063c-.08-.111-.153-.227-.238-.355-.08.114-.155.214-.223.32a.136.136 0 0 1-.142.072 108.93 108.93 0 0 0-1.601-.09c-.079-.003-.126-.02-.152-.099a1.815 1.815 0 0 0-.09-.194c-.038.061-.081.12-.127.177a.13.13 0 0 1-.094.04c-.478-.032-.955-.077-1.433-.102-.803-.044-1.608-.073-2.418-.11l-.31-.873c-.023.053-.042.085-.056.118-.097.239-.197.478-.292.718a.092.092 0 0 1-.1.067c-.444.004-.887.01-1.33.019a.12.12 0 0 1-.123-.07c-.141-.255-.286-.507-.431-.76-.015-.027-.034-.053-.057-.09-.022.041-.04.07-.054.102-.123.257-.246.514-.366.772a.098.098 0 0 1-.103.065c-.479-.003-.958-.003-1.437 0a.1.1 0 0 1-.106-.075c-.145-.337-.294-.672-.441-1.007l-.056-.115c-.062.089-.115.169-.172.247a2.746 2.746 0 0 1-1.877 1.127 3.782 3.782 0 0 1-1.58-.049 2.662 2.662 0 0 1-1.654-1.347c-.061-.107-.116-.22-.177-.337-.325.244-.71.393-1.113.433l.067.56c.016.133.037.266.049.4v.013c.01.27-.2.494-.467.503-.571.072-1.143.143-1.715.213h-.005a.34.34 0 0 1-.374-.305c-.061-.425-.118-.85-.175-1.276a.189.189 0 0 1 .13-.225c.048-.02.066-.04.06-.092l-.199-1.75c-.003-.025-.009-.051-.015-.086-.208-.02-.267-.164-.284-.353-.022-.244-.058-.488-.084-.732a.213.213 0 0 1 .195-.245c.607-.074 1.215-.148 1.823-.214.358-.037.715-.074 1.073-.076a1.468 1.468 0 0 1 1.506.965 2.43 2.43 0 0 1 1.923-1.393 2.787 2.787 0 0 1 2.281.676v-.344c0-.25.11-.36.358-.36h1.477c.252 0 .355.107.355.36v.313l2.27-.04zm-1.661-4.691c-.13.013-.257.028-.387.038a9.667 9.667 0 0 0-5.441 2.199 9.177 9.177 0 0 0-1.927 2.132l-.003.005a.074.074 0 0 1-.1.03 2.6 2.6 0 0 0-1.138-.096c-.413.043-.821.081-1.235.125-.414.044-.828.088-1.242.138A.39.39 0 0 0 0 7.514v.118c.006.008.01.017.014.026.034.283.072.565.102.848a.559.559 0 0 0 .238.48.21.21 0 0 1 .114.199c.038.418.075.836.115 1.253a.137.137 0 0 1-.073.159.308.308 0 0 0-.167.35c.054.32.083.644.128.964a.95.95 0 0 0 .086.356c.11.17.238.329.382.472.456.47.92.931 1.384 1.392a.4.4 0 0 1 .15.293c.006.078.019.156.039.232a8.381 8.381 0 0 0 1.34 3.148c.026.043.041.093.043.144.01.137 0 .276.02.412.033.428.381.763.807.776.04.007.078.026.106.056.556.57 1.167 1.08 1.824 1.527a9.804 9.804 0 0 0 5.103 1.74c.883.042 1.768-.03 2.633-.216a9.87 9.87 0 0 0 5.28-3.039.289.289 0 0 1 .088-.077.84.84 0 0 0 .402-.373c.234-.41.466-.822.695-1.234.111-.203.222-.408.325-.616.4-.766.681-1.59.833-2.443a.756.756 0 0 1 .221-.428c.487-.512.967-1.03 1.451-1.546a.236.236 0 0 0 .069-.163c.012-.259.03-.518.051-.776a.77.77 0 0 0-.13-.647.116.116 0 0 1-.018-.082 1.049 1.049 0 0 0-.269-.975 1.524 1.524 0 0 0 .455-1.604 1.225 1.225 0 0 0-.804-.907 9.336 9.336 0 0 0-1.746-.347c-.258-.035-.518-.055-.776-.088a.202.202 0 0 1-.123-.061 11.104 11.104 0 0 0-2.835-2.57 9.61 9.61 0 0 0-4.386-1.52c-.113-.01-.225-.025-.338-.037z"/></g><g><path fill="#a5a5a5" d="M13.498 9.38l.46-1.538c.005-.019.006-.038.011-.065h-.163v-.778h1.63v.763a.158.158 0 0 1-.033.013c-.19.013-.19.013-.25.194-.362 1.084-.723 2.168-1.083 3.253a.113.113 0 0 1-.13.093 27.263 27.263 0 0 0-.865 0 .092.092 0 0 1-.107-.074v-.006c-.185-.64-.375-1.278-.563-1.917a.216.216 0 0 0-.051-.096l-.167.599-.389 1.416c-.015.058-.036.08-.098.08a35.05 35.05 0 0 0-.962.019c-.086.003-.116-.028-.14-.106-.354-1.12-.71-2.24-1.068-3.36-.012-.037-.026-.073-.04-.113h-.224V6.98h1.676v.796h-.188l.516 1.567h.022l.131-.486c.091-.348.184-.695.272-1.043.015-.06.038-.077.098-.077.36.003.72.003 1.08 0 .052-.01.1.025.109.076v.004c.152.492.308.984.463 1.476.01.03.021.059.033.089z"/></g><g><path fill="#a5a5a5" d="M21.06 8.32c.247.03.491.046.73.091.16.02.296.131.348.285a.473.473 0 0 1-.26.571.902.902 0 0 1-.344.06c-.183-.006-.364-.038-.555-.059zm-1.3-.225l-.196 2.69-.234-.02-.061.801 1.783.158.079-.836-.275-.03.062-.59c.14.015.262.03.386.04l.023.002a.53.53 0 0 1 .495.562c-.002.173-.02.346-.03.519l-.028.43 1.41.177.098-.816-.207-.047c.025-.13.055-.246.07-.365a.76.76 0 0 0-.486-.915c.111-.07.223-.133.33-.207.407-.28.608-.777.51-1.263-.061-.302-.163-.825-1.609-.956-.65-.07-1.301-.121-1.952-.179-.107-.009-.213-.012-.324-.018l-.079.832z"/></g><g><path fill="#a5a5a5" d="M8.181 9.333c.047.48-.24.93-.694 1.091-.377.139-.8 0-1.02-.337a1.529 1.529 0 0 1-.24-1.44.892.892 0 0 1 .72-.65.99.99 0 0 1 1.064.568c.112.24.17.503.171.768zm-.907 2.177c.256-.007.508-.058.747-.149A2.434 2.434 0 0 0 9.53 8.877a1.992 1.992 0 0 0-.753-1.391 2.351 2.351 0 0 0-1.315-.5 2.529 2.529 0 0 0-1.635.4 2.183 2.183 0 0 0-.917 2.531 2.452 2.452 0 0 0 2.365 1.593z"/></g><g><path fill="#a5a5a5" d="M19.396 8.428l-.906-.06.018-.294-1.473-.08v.724l1.752.118-.059.966-1.708-.117-.041.742 1.432.098v-.236l.867.059-.117 1.225-3.757-.276.078-.783h.177l.138-2.708-.22-.027v-.81l3.898.236z"/></g><g><path fill="url(#1cjzc)" d="M2.342 8.44c.223-.02.44-.054.657-.054a.406.406 0 0 1 .403.392l.004.014a.388.388 0 0 1-.297.46c-.18.05-.366.066-.55.099-.035.006-.07.009-.119.015zm.229 1.873c.314-.034.617-.062.92-.1a1.36 1.36 0 0 0 .955-.518c.23-.323.323-.725.256-1.116a1.25 1.25 0 0 0-1-1.137c-.4-.07-.81-.066-1.209.011-.37.042-.74.086-1.11.13l-.731.084.137.84.215-.022.041.343.289 2.244c.007.053-.008.078-.062.088-.05.011-.1.026-.15.043l.099.816 1.744-.196-.1-.838-.214.018-.08-.69z"/></g><g><path fill="#ebebeb" d="M8.461 17.815c-.142.06-.285.113-.423.181-.31.149-.65.22-.991.21-.566 0-1.132.002-1.698 0a.907.907 0 0 1-.203-.022.387.387 0 0 1-.335-.417c0-.187.003-.374 0-.56a.374.374 0 0 1 .157-.32.159.159 0 0 0 .056-.11c.003-.684.003-1.368 0-2.053a.132.132 0 0 0-.05-.1.386.386 0 0 1-.199-.339 7.739 7.739 0 0 1 0-.52.403.403 0 0 1 .344-.372 1.08 1.08 0 0 1 .156-.01c.745 0 1.488-.006 2.234.002.348.003.685.118.962.33.254.187.407.482.415.799a1.83 1.83 0 0 1-.091.695.538.538 0 0 1-.34.351.445.445 0 0 0 .06.05c.236.12.378.37.36.636 0 .127.023.253.037.401.263-.653.383-1.339.74-1.942.005.006 0-.004-.007-.009a.492.492 0 0 1-.23-.522c.011-.133.003-.268.003-.403a.377.377 0 0 1 .391-.408c.286-.007.572-.002.859-.002.246-.001.493-.007.74-.007a.325.325 0 0 1 .283.15c.076.117.139.242.186.374.404 1.172.808 2.344 1.21 3.516.005.015.013.03.03.07.004-.053.008-.08.008-.106-.002-.858-.002-1.716 0-2.574a.136.136 0 0 0-.069-.135.304.304 0 0 1-.148-.28c.004-.193-.007-.387.004-.579a.75.75 0 0 1 .076-.259.23.23 0 0 1 .223-.13c.426 0 .852-.004 1.278 0a.338.338 0 0 1 .366.384c.003.897.003 1.795 0 2.692-.01.068.03.134.096.156.092.038.18.088.275.135.023-.059.042-.114.065-.167a.398.398 0 0 1 .574-.233 2.673 2.673 0 0 1 .683.52.48.48 0 0 0 .011-.071v-2.073c0-.06-.014-.096-.075-.115a.15.15 0 0 1-.104-.168c.005-.23.002-.459.002-.687.001-.267.124-.392.384-.392h1.141c.314 0 .42.104.42.424v2.2c0 .168.004.335 0 .502a.106.106 0 0 0 .077.116c.1.039.196.085.299.131.04-.07.073-.141.117-.204a.898.898 0 0 1 .134-.155c.1-.114.272-.13.39-.036.184.118.362.244.543.366.11.068.158.204.115.327-.028.096-.068.19-.12.276-.123.212-.253.419-.382.627a.504.504 0 0 1-.45.248c-.683.004-1.366.004-2.049 0a1.6 1.6 0 0 1-.289-.039.378.378 0 0 1-.256-.175 2.89 2.89 0 0 0-.27-.307l-.07.192a.427.427 0 0 1-.444.312h-2.215a.321.321 0 0 1-.279-.104.12.12 0 0 0-.19 0 .297.297 0 0 1-.243.102c-.471.003-.943.014-1.414-.004a.39.39 0 0 1-.372-.236.13.13 0 0 0-.234-.02c-.12.251-.324.274-.563.266-.367-.012-.735-.005-1.102-.003a.56.56 0 0 1-.575-.336.229.229 0 0 0-.024-.037zm4.5-1.19l-.017-.044c-.311-.913-.62-1.829-.936-2.741a1.862 1.862 0 0 0-.201-.41.443.443 0 0 0-.379-.21 141.475 141.475 0 0 0-1.66.002.519.519 0 0 0-.492.543c0 .15.003.301 0 .452-.004.198-.003.392.176.502-.086.217-.17.419-.245.623-.074.203-.14.412-.206.608l-.264-.383a1.03 1.03 0 0 0 .238-.49c.019-.086.03-.174.04-.261a1.26 1.26 0 0 0-.765-1.393 1.915 1.915 0 0 0-.82-.183 408.17 408.17 0 0 1-2.282 0 .57.57 0 0 0-.516.616c.011.14.002.282.002.423 0 .166.074.324.203.428a.151.151 0 0 1 .048.103c.003.632.003 1.264 0 1.895a.149.149 0 0 1-.042.1.483.483 0 0 0-.171.409c.003.068 0 .137 0 .206v.294a.56.56 0 0 0 .616.63c.638.003 1.276.003 1.913 0 .25.002.5-.048.73-.15.152-.068.308-.13.462-.195.139.22.386.346.644.329.44-.004.879-.005 1.317 0a.46.46 0 0 0 .417-.225l.055-.084a.67.67 0 0 0 .476.306c.489.003.976.003 1.464 0 .12.01.235-.04.31-.134a.394.394 0 0 0 .335.136c.767 0 1.534-.002 2.302 0a.504.504 0 0 0 .426-.215c.038-.05.069-.107.109-.17.034.044.066.089.095.135a.428.428 0 0 0 .307.22c.11.027.223.042.336.047.69.002 1.38.002 2.069 0a.629.629 0 0 0 .55-.3c.1-.152.2-.306.293-.464.078-.128.148-.26.209-.398a.448.448 0 0 0-.104-.538c-.197-.143-.399-.28-.605-.411a.406.406 0 0 0-.522.046c-.09.09-.175.185-.255.286-.154-.056-.154-.056-.154-.225 0-.858.002-1.716 0-2.573a.476.476 0 0 0-.528-.527h-1.23a.533.533 0 0 0-.116.009.495.495 0 0 0-.353.505c-.002.245.002.49 0 .736a.284.284 0 0 0 .118.235.157.157 0 0 1 .054.109c.004.4 0 .799 0 1.198v.532a.895.895 0 0 0-.087-.07 3.209 3.209 0 0 0-.458-.271.508.508 0 0 0-.655.231c-.025.038-.046.077-.065.11-.134-.017-.154-.098-.154-.215.004-.848.002-1.696.002-2.545a.49.49 0 0 0-.542-.546h-1.17a.479.479 0 0 0-.513.502c-.005.21 0 .42 0 .63a.42.42 0 0 0 .154.335.163.163 0 0 1 .061.143v1.754z"/></g><g><path fill="#fff" d="M8.222 5.111a.658.658 0 1 1 0-.012v.012z"/></g><g><path fill="#fff" d="M16.653 4.54a.658.658 0 1 1 0-.012v.013z"/></g><g><path fill="#fff" d="M18.608 5.762a.658.658 0 1 1 0-.012v.012z"/></g><g><path fill="#fff" d="M10.021 4.202a.658.658 0 1 1 0-.013v.013z"/></g><g><path fill="#fff" d="M12.29 3.727a.658.658 0 1 1 0-.013v.013z"/></g><g><path fill="#fff" d="M14.578 3.882a.658.658 0 1 1 0-.013v.013z"/></g><g><path fill="#fff" d="M12.305 21.451a.658.658 0 1 1 0 .013v-.013z"/></g><g><path fill="#fff" d="M11.312 21.244a.658.658 0 1 1-1.316-.008.658.658 0 0 1 1.316.008z"/></g><g><path fill="#fff" d="M15.87 21.009a.658.658 0 1 1 0-.012v.012z"/></g><g><path fill="#fff" d="M7.747 20.46a.658.658 0 1 1 0 .013v-.012z"/></g><g><path fill="#fff" d="M6.072 19.132c.536-.01.824 0 1.618 0a.81.81 0 0 1-.831.763.76.76 0 0 1-.787-.763z"/></g><g><path fill="#fff" d="M17.963 19.998a.658.658 0 1 1 0-.012v.012z"/></g><g><path fill="#fff" d="M6.485 14.592c.21 0 .412-.007.611.001a.332.332 0 0 1 0 .664c-.201.01-.404.002-.613.002v-.667zm-.002 1.453c.24 0 .469-.004.696.002a.35.35 0 0 1 .36.302.95.95 0 0 1-.005.348.323.323 0 0 1-.311.27c-.244.013-.49.004-.74.004zm1.472-.415a2.28 2.28 0 0 0 .344-.201.944.944 0 0 0 .271-.943.799.799 0 0 0-.565-.62 2.357 2.357 0 0 0-.882-.157c-.644-.003-1.29.001-1.934.003-.026 0-.05.004-.078.007v.698h.163v2.72l-.163.009v.723c.734 0 1.461.01 2.188-.004.313-.003.618-.09.887-.25.372-.213.58-.628.528-1.054a.994.994 0 0 0-.682-.898c-.029-.011-.057-.024-.077-.033z"/></g><g><path fill="#fff" d="M11.23 15.962h-.713l.335-1.093zm1.687 1.882v-.718h-.12c-.15 0-.15 0-.196-.145-.341-1.057-.68-2.115-1.015-3.174v-.003a.123.123 0 0 0-.144-.1c-.524.004-1.05.003-1.572.003h-.103v.709h.246c-.01.035-.018.063-.028.09l-.821 2.416c-.068.198-.068.198-.274.205a.103.103 0 0 0-.027.008v.713h1.578v-.721h-.211c.042-.122.078-.236.122-.348a.094.094 0 0 1 .072-.044c.317-.003.635-.003.952 0a.08.08 0 0 1 .066.04c.032.113.056.229.088.357h-.254v.713z"/></g><g><path fill="#fff" d="M16.726 13.69h1.365v3.318c.258 0 .506.002.753-.002.025 0 .055-.031.071-.055.08-.115.157-.232.24-.357l.67.373-.155.25c-.111.177-.22.355-.335.53a.141.141 0 0 1-.095.064c-.822.003-1.644.002-2.473.002v-.8l.163-.009V14.4h-.205z"/></g><g><path fill="#fff" d="M13.429 14.392h-.205v-.697h1.366v3.313h.16c.18 0 .358-.003.54 0a.142.142 0 0 0 .14-.077c.07-.114.148-.223.226-.339l.67.375c-.172.273-.34.541-.51.807a.099.099 0 0 1-.071.036h-2.466c-.003 0-.006-.003-.014-.008v-.792h.163z"/></g><g><path fill="#fff" d="M6.613 6.613a2.656 2.656 0 0 0-.538.131 2.615 2.615 0 0 0-.438.268.658.658 0 0 1 0-1.174c.38-.218 1.209-.053.976.775z"/></g><g><path fill="#fff" d="M6.072 19.132c.536-.01.824 0 1.618 0a.81.81 0 0 1-.831.763.76.76 0 0 1-.787-.763z"/></g><g><path fill="url(#1cjzd)" d="M1.577 11.1s-.147-1.053-.167-1.232c-.02-.18.119-.196.22-.212.102-.017 1.92-.285 2.282-.282.362.002.509.11.405.228-.103.118-.222.378-.968.486-.746.108-1.07.135-1.07.135l.092.771z"/></g><g><path fill="url(#1cjze)" d="M4.965 9.399l1.08-.165s.078 1.336 1.177 1.357c1.158-.11 1.131-1.218 1.068-1.554h1.126s.047.46-.226 1.05c-.273.587-.904 1.302-1.94 1.302-1.982-.05-2.335-1.762-2.285-1.99z"/></g><g><path fill="url(#1cjzf)" d="M10.113 9.036h.864l.315.82.291-.894.746-.04-.694 2.177h-.852z"/></g><g><path fill="url(#1cjzg)" d="M12.375 8.923l.888.065.239.917.26-.9.864.032-.693 2.062h-.851z"/></g><g><path fill="url(#1cjzh)" d="M15.986 9.16l-.128 1.743 3.236.197.054-.652-.638-.068-.003.25-1.649-.083.052-.968 1.685.084.013-.29c-.434-.089-2.107-.212-2.622-.212z"/></g><g><path fill="url(#1cjzi)" d="M19.8 9.526l-.154 1.864 1.024.085.131-1.344.828.083s.412.059.412.615c0 .272-.137.836-.137.836l.888.132s.33-1.1.222-1.339a1.051 1.051 0 0 0-.855-.62l-2.36-.312z"/></g><g><path fill="url(#1cjzj)" d="M.869 7.802l.09.507.232-.029.112.877.926-.084-.078-.744s.553-.07.743-.092c.37-.042.73.341.73.341s1.084.43.894-.271c-.19-.703-1.025-.74-1.025-.74s-.416-.105-2.624.235z"/></g><g><path fill="url(#1cjzk)" d="M5.097 8.354s.451-.964 1.487-1.184c.92-.195 1.755.002 2.345.625l-.972.45s-.291-.523-1.133-.333c-.674.157-.742.836-.742.836z"/></g><g><path fill="url(#1cjzl)" d="M9.402 7.064v.604h.23l.344.875h.902l-.307-.869h.273v-.61z"/></g><g><path fill="url(#1cjzm)" d="M15.663 7.064v.634l.256.038-.039.807 1.045.05-.003-.68 1.686.074-.024.315.726.053.064-1.06z"/></g><g><path fill="url(#1cjzn)" d="M13.883 7.064v.604h.23l-.23.875h.902l.266-.869h.274v-.61z"/></g><g><path fill="url(#1cjzo)" d="M11.792 7.855l-.163.603 1.456.007-.208-.61z"/></g><g><path fill="url(#1cjzp)" d="M19.698 7.35l-.056.614.269.033-.05.429 1.058.118.045-.362s.463.057.798.11c.335.055.397.147.451.265.022.05.046.196.046.196l1.085.207s.235-.744-.29-1.081c-.524-.338-1.818-.412-1.818-.412z"/></g></g></g></svg>