<svg height="25" viewBox="0 0 27 25" width="27" xmlns="http://www.w3.org/2000/svg"><g fill="#a5a5a5"><path d="m24.137.978c1.185 0 1.788.562 1.788 1.668v19.708c0 1.106-.603 1.668-1.789 1.669h-21.302c-1.155 0-1.766-.571-1.766-1.648v-19.75c0-1.077.611-1.647 1.766-1.647h21.302zm1.225 24.022c.774-.28 1.39-.706 1.566-1.51.055-.256.055-.524.055-.787.003-6.76-.013-13.52.017-20.281.005-1.182-.407-2.012-1.638-2.422h-23.73c-.755.277-1.372.683-1.554 1.471a3.134 3.134 0 0 0 -.068.701c-.003 6.885.005 13.77-.01 20.656-.003 1.11.548 1.797 1.631 2.172h23.73z"/><path d="m14.027 9.459c.64 0 1.263-.05 1.873.014.588.063.831.432.846 1.057.013.602-.248 1.041-.79 1.121-.624.092-1.263.08-1.929.116zm-.006 3.816c.701 0 1.398-.055 2.08.016.63.065.897.457.893 1.07-.004.61-.313 1.078-.887 1.156-.67.092-1.355.084-2.086.121zm3.408-.922c.163-.1.235-.15.31-.19 1.081-.59 1.467-1.508 1.093-2.691-.34-1.08-1.222-1.533-2.231-1.606-1.561-.113-3.133-.078-4.7-.103-.022 0-.045.035-.067.054v9.373c1.573 0 3.122.027 4.669-.018.407-.011.833-.19 1.207-.38 1.005-.51 1.493-1.371 1.467-2.488-.025-1.065-.677-1.646-1.748-1.951z"/><path d="m10.36 7.797-1.05 2.626c-.811 2.032-1.623 4.064-2.436 6.095-.25.625-.369.692-1.104.626.034-.115.058-.228.1-.333a7702.2 7702.2 0 0 1 3.4-8.462c.24-.593.377-.662 1.089-.552z"/></g></svg>