<svg height="24" viewBox="0 0 24 24" width="24" xmlns="http://www.w3.org/2000/svg"><g fill="#1dacee"><path d="m23.43 10.977-3.452-.806-10.179 8.155-1.042-1.086 10.44-8.362-.313-2.873a.743.743 0 0 0 -.643-.67l-2.947-.349-7.844 10.894-1.042-1.09 7.927-11.008-.336-3.108a.76.76 0 0 0 -.288-.523.71.71 0 0 0 -.564-.14l-4.131.76a.741.741 0 0 0 -.567.508l-4.077 12.721-1.214 1.265 6.197 6.46 1.212-1.264 12.202-4.25a.751.751 0 0 0 .485-.573l.73-3.767a.76.76 0 0 0 -.554-.894z"/><path d="m1.724 15.566-.246.234c-1.97 1.873-1.97 4.919 0 6.792a5.156 5.156 0 0 0 3.575 1.408c1.35 0 2.621-.501 3.575-1.408l.246-.233z"/></g></svg>