<svg height="16" viewBox="0 0 16 16" width="16" xmlns="http://www.w3.org/2000/svg"><path d="m0 8a8 8 0 1 1 16 0 8 8 0 0 1 -16 0z" fill="#00acee"/><g fill="#fff"><path d="m.453 7.921 2.181-1.584-.877-2.7a7.627 7.627 0 0 0 -1.304 4.277z"/><path d="m5.284.873 2.507 1.822 2.509-1.822a7.65 7.65 0 0 0 -2.51-.42 7.65 7.65 0 0 0 -2.507.42z"/><path d="m4.624 12.342-2.731-.095a7.68 7.68 0 0 0 3.42 2.5z"/><path d="m10.097 14.737a7.907 7.907 0 0 0 3.522-2.573l-2.812.098z"/><path d="m12.93 6.337 2.197 1.595a7.627 7.627 0 0 0 -1.314-4.31z"/><path d="m7.792 4.804-3.037 2.206 1.16 3.57h3.753l1.16-3.57z"/><path d="m4.905 7.06 2.887-2.098 2.886 2.097-1.103 3.393h-3.567zm4.885 3.56 1.16-3.57a.128.128 0 0 0 -.047-.143l-3.036-2.206a.128.128 0 0 0 -.15 0l-3.037 2.206a.128.128 0 0 0 -.046.143l1.16 3.57a.128.128 0 0 0 .12.088h3.754a.128.128 0 0 0 .122-.088z"/><path d="m15.05 7.81c0 3.992-3.248 7.24-7.24 7.24s-7.24-3.249-7.24-7.24 3.249-7.24 7.24-7.24 7.24 3.248 7.24 7.24zm.244 0c0-4.127-3.357-7.485-7.484-7.485s-7.485 3.358-7.485 7.485 3.358 7.484 7.485 7.484 7.484-3.357 7.484-7.484z"/><path d="m15.086 8.031a.127.127 0 0 1 -.075-.024l-2.155-1.567a.128.128 0 0 1 -.047-.143l.858-2.64a.128.128 0 1 1 .243.079l-.829 2.552 2.08 1.511a.128.128 0 0 1 -.075.231z"/><path d="m10.501 7.184a.128.128 0 0 1 -.04-.25l2.43-.789a.128.128 0 1 1 .08.243l-2.43.79a.13.13 0 0 1 -.04.006z"/><path d="m10.118 14.838a.14.14 0 0 1 -.038-.005.131.131 0 0 1 -.093-.164l.72-2.44a.135.135 0 0 1 .126-.095l2.836-.096c.075 0 .138.054.14.127a.134.134 0 0 1 -.13.137l-2.737.092-.693 2.348a.135.135 0 0 1 -.131.096z"/><path d="m10.992 12.528a.128.128 0 0 1 -.104-.053l-1.446-2.013a.128.128 0 0 1 .208-.149l1.445 2.013a.128.128 0 0 1 -.103.202z"/><path d="m4.466 12.513h-.006l-.1-.004-2.355-.09c-.065-.003-.115-.062-.113-.132s.057-.125.12-.123l2.357.09.1.003c.064.003.114.062.112.133-.002.068-.054.123-.116.123z" transform="matrix(.99939083 -.0348995 .0348995 .99939083 -.434416 .112313)"/><path d="m5.264 14.733a.128.128 0 0 1 -.123-.092l-.672-2.347a.128.128 0 0 1 .019-.11l1.444-2.012a.128.128 0 1 1 .208.149l-1.41 1.962.656 2.287a.128.128 0 0 1 -.123.163z"/><path d="m.514 8.006a.128.128 0 0 1 -.076-.231l2.046-1.486-.826-2.542a.128.128 0 0 1 .243-.08l.855 2.63a.128.128 0 0 1 -.047.144l-2.119 1.539a.127.127 0 0 1 -.075.025z"/><path d="m5.08 7.184a.127.127 0 0 1 -.04-.007l-2.445-.789a.128.128 0 1 1 .078-.243l2.445.79a.128.128 0 0 1 -.039.248z"/><path d="m7.792 2.823a.128.128 0 0 1 -.075-.025l-2.467-1.792a.128.128 0 1 1 .15-.206l2.392 1.737 2.385-1.733a.128.128 0 0 1 .15.206l-2.46 1.788a.128.128 0 0 1 -.075.025z"/><path d="m7.791 5.249a.128.128 0 0 1 -.128-.128v-2.426a.128.128 0 0 1 .256 0v2.425c0 .07-.057.128-.128.128z"/></g></svg>