<svg xmlns="http://www.w3.org/2000/svg" width="19" height="15" viewBox="0 0 19 15"><g><g><path fill="#fff" d="M18.624 15H.253A.253.253 0 0 1 0 14.747v-1.011c0-.14.113-.253.253-.253h18.37c.14 0 .253.113.253.253v1.011c0 .14-.113.253-.252.253zm0-6.742H.253A.253.253 0 0 1 0 8.006V6.994c0-.14.113-.252.253-.252h18.37c.14 0 .253.113.253.252v1.012c0 .14-.113.252-.252.252zm0-6.741H.253A.253.253 0 0 1 0 1.264V.253C0 .113.113 0 .253 0h18.37c.14 0 .253.113.253.253v1.011c0 .14-.113.253-.252.253z"/></g></g></svg>