<svg height="24" viewBox="0 0 24 24" width="24" xmlns="http://www.w3.org/2000/svg"><g fill="#1fb6f6"><path d="m21.39 4.582a10.615 10.615 0 0 0 -3.036 6.764h5.646c-.149-2.546-1.119-4.88-2.61-6.764z"/><path d="m12.586 0v11.413h4.345a12.035 12.035 0 0 1 3.516-7.835c-2.028-2.023-4.82-3.4-7.861-3.578z"/><path d="m18.354 12.652a10.737 10.737 0 0 0 3.037 6.812 12.186 12.186 0 0 0 2.609-6.812z"/><path d="m3.55 3.578a12.035 12.035 0 0 1 3.516 7.835h4.346v-11.413c-3.04.178-5.833 1.555-7.862 3.578z"/><path d="m16.931 12.588h-4.345v11.412a12.191 12.191 0 0 0 7.861-3.531c-2.035-2.03-3.337-4.831-3.516-7.882z"/><path d="m7.066 12.588c-.178 3.05-1.48 5.852-3.515 7.882a12.191 12.191 0 0 0 7.859 3.53v-11.411z"/><path d="m0 12.652a12.185 12.185 0 0 0 2.61 6.812 10.737 10.737 0 0 0 3.037-6.812z"/><path d="m2.61 4.582c-1.49 1.884-2.46 4.218-2.61 6.764h5.647a10.615 10.615 0 0 0 -3.037-6.764z"/></g></svg>