<svg height="25" viewBox="0 0 24 25" width="24" xmlns="http://www.w3.org/2000/svg"><path d="m0 25v-25h24v25z" fill="#a5a5a5"/><path d="m7.63 9.188c-.026.158-.073.444-.123.73-.008.044-.029.088-.048.13-.136.309-.359.465-.651.457-.38-.01-.638-.172-.742-.506a2.896 2.896 0 0 1 -.11-.627c-.03-.376-.033-.754.057-1.124.137-.562.588-.686 1.018-.584.217.051.344.215.43.411.139.313.148.647.17 1.113zm-3.836 2.846c.017.007.023.012.03.012l1.964-.003-.005-.78s.163.217.211.261c.1.092.195.193.306.27.622.426 1.3.459 1.994.233.63-.205 1.013-.682 1.24-1.279.367-.974.369-1.974.122-2.976a2.457 2.457 0 0 0 -.815-1.34c-.719-.6-2.158-.605-2.83.356-.029.042-.07.076-.107.114l-.036-.02c0-1.203.004-1.974.022-2.96h-2.096z" fill="#fafafa"/><g fill="#ebebeb"><path d="m13.03 18.74c-.088.253-.29.403-.566.44-.279.038-.517-.044-.686-.268a1.182 1.182 0 0 1 -.212-1.054c.162-.592.846-.667 1.212-.468.21.116.288.316.325.532.016.092.017.186.025.279l.017.004c-.036.179-.054.363-.114.534zm-1.71-2.145c.019-.145.032-.292.059-.436.127-.7.534-1.151 1.264-1.32.34-.079.684-.102 1.03-.088.347.015.694.044 1.042.067v-1.537l-.145-.022c-.05-.006-.1-.009-.151-.015-.763-.086-1.52-.072-2.271.097-1.203.27-2.04.945-2.465 2.073-.176.467-.26.953-.299 1.447-.047.61-.054 1.221.107 1.82.252.935.81 1.621 1.785 1.928a3.74 3.74 0 0 0 2.26 0c.818-.252 1.354-.788 1.583-1.588a3.204 3.204 0 0 0 -.015-1.829 1.904 1.904 0 0 0 -.944-1.177c-.322-.174-.674-.244-1.039-.26-.713-.03-1.31.175-1.7.792-.014.023-.036.043-.054.064z"/><path d="m20.696 13.308v1.655h-.138c-.825 0-1.65.002-2.474-.002-.098 0-.133.02-.14.121-.018.276-.053.551-.083.844l.216-.031c.678-.103 1.342-.092 1.963.233.71.373 1.078.969 1.177 1.728.06.448.024.89-.129 1.318-.264.739-.823 1.175-1.58 1.403-.502.15-1.02.196-1.542.195-.702-.002-1.397-.063-2.062-.304-.24-.087-.241-.087-.241-.335v-1.387c.21.07.408.143.611.2.572.161 1.151.29 1.754.239.134-.011.27-.036.398-.077.407-.13.613-.418.613-.831-.002-.39-.218-.675-.623-.8-.437-.135-.882-.111-1.326-.035-.092.016-.188.026-.272.06-.159.064-.295.036-.44-.042-.158-.085-.326-.155-.493-.225-.063-.027-.087-.06-.081-.126.036-.429.068-.858.102-1.287l.107-1.365.09-1.149z"/><path d="m6.95 16.786c.32.088.648.15.955.269.712.274 1.052.807 1.037 1.546-.017.872-.5 1.433-1.282 1.796-.487.226-1.009.32-1.542.356-.733.048-1.462.016-2.177-.156-.23-.055-.454-.128-.678-.2-.036-.012-.082-.062-.082-.095-.005-.509-.003-1.019-.003-1.528 0-.01.004-.022.01-.048.037.014.072.024.105.038.746.324 1.526.485 2.345.416.205-.017.415-.066.607-.138.275-.103.39-.324.39-.607 0-.284-.122-.487-.396-.603-.308-.13-.637-.163-.967-.175-.275-.01-.55-.003-.833-.003v-1.506h.182c.412.001.827.011 1.229-.092.172-.044.346-.114.495-.209.23-.145.283-.376.228-.626-.032-.144-.136-.242-.272-.304a1.495 1.495 0 0 0 -.81-.107c-.535.062-.65.104-1.399.46l-.901-1.327c.265-.173.542-.312.833-.425.706-.273 1.444-.338 2.196-.32.5.01.991.077 1.451.279.476.208.849.513.985 1.024.186.698-.099 1.417-.73 1.856a2.97 2.97 0 0 1 -.87.398c-.036.01-.072.024-.108.036-.003 0-.004.006.002-.005z"/></g><g fill="#fafafa"><path d="m12.605 8.34c.023-.313.109-.592.385-.767.336-.212.694-.224 1.037-.025.294.17.4.455.408.792zm3.784 1.303c.005-.028.011-.043.01-.058-.01-.458.012-.92-.038-1.373-.103-.923-.581-1.595-1.458-1.941-.786-.31-1.603-.324-2.42-.144-.984.218-1.644.81-1.943 1.777a4.146 4.146 0 0 0 -.114 1.902c.101.636.37 1.19.87 1.615.56.476 1.227.676 1.943.713.422.022.848.002 1.27-.02a3.883 3.883 0 0 0 1.404-.354c.063-.028.083-.064.083-.132-.003-.431-.002-.863-.002-1.294 0-.024-.003-.05-.005-.074-.019.001-.027.001-.033.004a2.497 2.497 0 0 0 -.108.043 4.69 4.69 0 0 1 -2.02.388c-.324-.01-.634-.077-.896-.283-.243-.192-.363-.445-.374-.769z"/><path d="m21.244 10.337v.162c0 .408.002.815-.003 1.223 0 .043-.03.112-.063.125-.82.324-1.665.409-2.525.206-.683-.161-1.03-.64-1.148-1.304a3.847 3.847 0 0 1 -.053-.648c-.007-.78-.003-1.561-.003-2.342 0-.027-.003-.053-.005-.091h-.755v-.274l.004-1.3.784.006v-.525l2.14-.637v1.183h1.525v1.535h-1.52v2.266c0 .058-.001.117.008.174.045.28.223.429.516.437.327.009.64-.063.95-.157.043-.013.088-.023.148-.04z"/></g></svg>