<svg xmlns="http://www.w3.org/2000/svg" width="61" height="61" viewBox="0 0 61 61"><defs><radialGradient id="8nz4a" cx="30.5" cy="30.5" r="30.5" gradientUnits="userSpaceOnUse"><stop offset="0" stop-color="#00acee"/><stop offset=".94" stop-color="#00acee"/><stop offset=".98" stop-color="#a5e6ff" stop-opacity=".5"/><stop offset="1" stop-color="#fff" stop-opacity="0"/></radialGradient><linearGradient id="8nz4b" x1="34.39" x2="34.39" y1="15" y2="35.14" gradientUnits="userSpaceOnUse"><stop offset="0" stop-color="#fdd9b4"/><stop offset="1" stop-color="#ff9a5c"/></linearGradient><linearGradient id="8nz4c" x1="26.11" x2="26.11" y1="26.84" y2="47" gradientUnits="userSpaceOnUse"><stop offset="0" stop-color="#00acee"/><stop offset="1" stop-color="#6fe1ea"/></linearGradient></defs><g><g><path fill="url(#8nz4a)" d="M0 30.5C0 13.655 13.655 0 30.5 0S61 13.655 61 30.5 47.345 61 30.5 61 0 47.345 0 30.5z"/></g><g><path fill="#fff" d="M3 30.5C3 15.312 15.312 3 30.5 3S58 15.312 58 30.5 45.688 58 30.5 58 3 45.688 3 30.5z"/></g><g><path fill="url(#8nz4b)" d="M50.527 28.684l-15.479 6.458-4.683-6.071h2.57c1.831 0 3.193-.166 4.119-1.187 1.414-1.674 8.023-9.948 2.802-11.016-6.295-1.287-18.838 8.118-20.006 8.987-.493.367-1.941.347-1.544-.02a54.151 54.151 0 0 1 3.106-2.663 47.385 47.385 0 0 1 6.469-4.32c.334-.179.65-.36 1.013-.538l.528-.27.56-.27c.362-.18.78-.357 1.178-.537.205-.09.428-.177.643-.26.214-.083.434-.178.675-.26a27.516 27.516 0 0 1 3.252-1.03c.642-.16 1.351-.311 2.124-.434.376-.065.792-.106 1.189-.156.396-.049.81-.063 1.213-.09.39 0 .79-.016 1.155 0l.53.028c.176.01.354.02.5.04.541.054 1.078.15 1.604.29.677.165 1.319.45 1.897.838l.17.114.14.116c.093.08.193.156.275.236.155.149.3.31.43.48l.184.243.147.247c.095.16.178.325.248.497a6.991 6.991 0 0 1 .213 4.12c-.462 1.952-1.34 3.788-2.29 5.523-.332.562-.221.91.54.91z"/></g><g><path fill="url(#8nz4c)" d="M10 33.312l15.413-6.47 4.71 6.08h-2.632c-2.054 0-3.198.21-4.084 1.18-1.416 1.674-8.023 9.948-2.803 11.016C26.9 46.404 39.442 37 40.61 36.13c.493-.367 1.941-.348 1.544.02a52.72 52.72 0 0 1-3.106 2.662 47.454 47.454 0 0 1-6.469 4.32c-.334.18-.65.36-1.013.538l-.528.27-.56.269c-.362.18-.78.358-1.178.537-.206.09-.428.178-.643.268-.214.09-.435.178-.674.26a27.212 27.212 0 0 1-3.253 1.03c-.642.16-1.351.311-2.124.434-.375.065-.792.106-1.189.155-.396.05-.81.064-1.213.09-.403.026-.79.017-1.155 0l-.53-.027a5.916 5.916 0 0 1-.5-.04 10.197 10.197 0 0 1-1.604-.29 5.96 5.96 0 0 1-1.897-.837l-.169-.114-.141-.117c-.093-.078-.193-.156-.275-.235a4.64 4.64 0 0 1-.432-.48l-.182-.244-.147-.246a3.993 3.993 0 0 1-.25-.498 6.996 6.996 0 0 1-.21-4.12A18.687 18.687 0 0 1 15 34.212c.331-.562-.065-.91-.956-.91z"/></g></g></svg>