<svg height="24" viewBox="0 0 32 24" width="32" xmlns="http://www.w3.org/2000/svg"><g fill="#00acee"><path d="m32.004 10.771-12.178 5.081-3.683-4.776h2.02a4.056 4.056 0 0 0 3.242-.934c1.11-1.317 6.312-7.826 2.204-8.667-4.953-1.013-14.819 6.387-15.739 7.07-.388.288-1.526.274-1.214-.016a42.752 42.752 0 0 1 2.444-2.095 37.285 37.285 0 0 1 5.089-3.398c.263-.141.512-.284.792-.423l.415-.213.44-.212c.285-.141.615-.282.927-.423.158-.072.336-.14.505-.205.17-.065.343-.14.531-.204.835-.323 1.69-.593 2.558-.81a20.077 20.077 0 0 1 1.67-.34c.297-.051.624-.085.936-.123s.634-.05.95-.071c.318-.02.622-.013.909 0l.417.022c.139.008.279.016.393.032.427.042.852.117 1.268.226a4.673 4.673 0 0 1 1.492.661l.133.09.112.091c.072.062.158.122.215.186.122.117.236.243.34.377l.143.191.116.195c.074.126.14.257.195.392a5.5 5.5 0 0 1 .166 3.242 17.65 17.65 0 0 1 -1.8 4.345c-.262.442-.174.716.423.716z"/><path d="m0 13.23 12.126-5.09 3.706 4.783h-2.07c-1.617 0-2.517.158-3.215.929-1.109 1.317-6.31 7.826-2.204 8.667 4.953 1.013 14.82-6.387 15.74-7.07.388-.288 1.527-.272 1.213.016a41.433 41.433 0 0 1 -2.444 2.094 37.345 37.345 0 0 1 -5.089 3.397c-.263.141-.512.284-.792.424l-.415.212-.441.212c-.285.141-.613.282-.927.423-.158.072-.336.14-.506.211-.17.072-.342.14-.53.205-.835.323-1.69.593-2.558.81-.506.125-1.064.244-1.671.34-.296.051-.623.084-.935.122s-.634.051-.951.072a8.164 8.164 0 0 1 -.908 0l-.417-.023c-.14 0-.279-.015-.393-.031a8.022 8.022 0 0 1 -1.268-.227 4.693 4.693 0 0 1 -1.491-.66l-.133-.09-.111-.091c-.073-.062-.159-.124-.216-.184a3.624 3.624 0 0 1 -.34-.378l-.143-.191-.116-.194a3.132 3.132 0 0 1 -.196-.391 5.504 5.504 0 0 1 -.159-3.243 14.712 14.712 0 0 1 1.802-4.344c.26-.442-.05-.716-.751-.716z"/></g></svg>