<svg height="24" viewBox="0 0 22 24" width="22" xmlns="http://www.w3.org/2000/svg"><g fill="#1dacee"><path d="m17.924 12.472h-7.284c-.38 1.435-1.723 2.498-3.316 2.498h-3.84v-1.63h3.84c.963 0 1.746-.762 1.746-1.698s-.784-1.698-1.746-1.698h-3.144c-2.304-.001-4.18 1.823-4.18 4.064 0 2.242 1.876 4.065 4.181 4.065h14.617c1.913-1.066 3.202-3.07 3.202-5.369v-1.864a5.863 5.863 0 0 1 -4.076 1.632z"/><path d="m3.764 19.328c-.054 0-.108 0-.162-.002v4.674h15.619v-4.672z"/><path d="m15.649 0h-7.949c-3.507 0-6.35 2.769-6.35 6.184v3.49a5.936 5.936 0 0 1 2.858-.728h3.137c1.602 0 2.95 1.078 3.319 2.528h7.266c2.065 0 3.779-1.489 4.07-3.422v-1.868c0-3.414-2.844-6.184-6.351-6.184z"/></g></svg>