<svg height="18" viewBox="0 0 48 18" width="48" xmlns="http://www.w3.org/2000/svg" xmlns:xlink="http://www.w3.org/1999/xlink"><linearGradient id="a"><stop offset="0" stop-color="#a5a5a5"/><stop offset="1" stop-color="#a5a5a5"/></linearGradient><linearGradient id="b" gradientUnits="userSpaceOnUse" x1="28.34" x2="28.34" xlink:href="#a" y1="3.44" y2="14.64"/><linearGradient id="c" gradientUnits="userSpaceOnUse" x1="39.19" x2="39.19" xlink:href="#a" y1="3.46" y2="14.6"/><linearGradient id="d" gradientUnits="userSpaceOnUse" x1="47.2" x2="47.2" xlink:href="#a" y1="6.5" y2="14.66"/><linearGradient id="e" gradientUnits="userSpaceOnUse" x1="47.24" x2="47.24" xlink:href="#a" y1="3.45" y2="4.98"/><path d="m24.137 8.285s-.025-1.718.001-2.545c.014-.437.368-.75.808-.753 1.691-.008 3.382-.01 5.073 0 .5.004.803.326.812.84.012.705.003 2.458.003 2.458zm3.969 1.541c1.144 0 2.288-.002 3.432.001.641.002.925.254.958.894.026.5.027 1.004-.003 1.503-.039.632-.336.89-.97.892-2.13.002-4.262.002-6.394 0-.695-.001-.991-.303-.996-1.007v-2.283zm-5.453 4.806h4.706c1.458 0 2.916.01 4.374-.003 1.317-.012 2.275-.985 2.28-2.294.003-.643.018-1.286-.008-1.928-.027-.68-.184-1.303-.912-1.728-.402-.235-.764-.285-.764-.285 0-.345.013-1.708 0-2.052-.015-.406.014-.827-.085-1.213-.268-1.046-1.182-1.683-2.378-1.688-2.304-.01-4.608-.003-6.913-.002-.09 0-.18.018-.3.03z" fill="url(#b)"/><path d="m38.469 4.977h-4.879v-1.512h11.198v1.518l-4.84-.003s.013 6.189.017 9.043v.58h-1.495z" fill="url(#c)"/><path d="m47.99 6.502v8.157h-1.58v-8.157z" fill="url(#d)"/><path d="m47.223 3.455c.397-.004.788.387.777.779-.01.377-.382.74-.766.746-.4.008-.777-.375-.768-.78.008-.388.368-.741.757-.745z" fill="url(#e)"/><g fill="#585858"><path d="m8.794.744a.743.743 0 1 1 1.487 0 .743.743 0 0 1 -1.487 0z"/><path d="m6.525 1.01a.743.743 0 1 1 1.487 0 .743.743 0 0 1 -1.487 0z"/><path d="m10.977 1.01a.743.743 0 1 1 1.487 0 .743.743 0 0 1 -1.487 0z"/></g><path d="m11.165 16.984a.743.743 0 1 1 1.487 0 .743.743 0 0 1 -1.486 0z" fill="#a5a5a5"/><g fill="#585858"><path d="m8.794 3.471a.743.743 0 1 1 1.487 0 .743.743 0 0 1 -1.487 0z"/><path d="m8.794 6.115a.743.743 0 1 1 1.487 0 .743.743 0 0 1 -1.487 0z"/><path d="m6.486 3.89a.743.743 0 1 1 1.487 0 .743.743 0 0 1 -1.487 0z"/><path d="m10.977 3.89a.743.743 0 1 1 1.487 0 .743.743 0 0 1 -1.487 0z"/><path d="m4.413 1.886a.743.743 0 1 1 1.486 0 .743.743 0 0 1 -1.486 0z"/><path d="m13.207 1.886a.743.743 0 1 1 1.487 0 .743.743 0 0 1 -1.487 0z"/></g><path d="m13.207 16.139a.743.743 0 1 1 1.487 0 .743.743 0 0 1 -1.487 0z" fill="#a5a5a5"/><g fill="#585858"><path d="m6.698 6.82a.743.743 0 1 1 1.486 0 .743.743 0 0 1 -1.486 0z"/><path d="m4.611 5.06a.743.743 0 1 1 1.487 0 .743.743 0 0 1 -1.487 0z"/><path d="m12.894 5.06a.743.743 0 1 1 1.487 0 .743.743 0 0 1 -1.487 0z"/><path d="m16.407 4.839a.743.743 0 1 1 1.487 0 .743.743 0 0 1 -1.487 0z"/><path d="m2.652 3.318a.743.743 0 1 1 1.487 0 .743.743 0 0 1 -1.487 0z"/><path d="m14.92 3.318a.743.743 0 1 1 1.487 0 .743.743 0 0 1 -1.486 0z"/></g><path d="m14.92 14.715a.743.743 0 1 1 1.487 0 .743.743 0 0 1 -1.486 0z" fill="#a5a5a5"/><g fill="#585858"><path d="m1.135 4.839a.743.743 0 1 1 1.486 0 .743.743 0 0 1 -1.486 0z"/><path d="m3.396 6.82a.743.743 0 1 1 1.486 0 .743.743 0 0 1 -1.486 0z"/><path d="m.391 6.82a.743.743 0 1 1 1.487 0 .743.743 0 0 1 -1.487 0z"/><path d="m10.907 6.82a.743.743 0 1 1 1.486 0 .743.743 0 0 1 -1.486 0z"/><path d="m14.177 6.82a.743.743 0 1 1 1.487 0 .743.743 0 0 1 -1.487 0z"/><path d="m14.177 11.137a.743.743 0 1 1 1.487 0 .743.743 0 0 1 -1.487 0z"/><path d="m17.203 6.82a.743.743 0 1 1 1.486 0 .743.743 0 0 1 -1.486 0z"/><path d="m17.203 11.137a.743.743 0 1 1 1.486 0 .743.743 0 0 1 -1.486 0z"/><path d="m8.794 8.979a.743.743 0 1 1 1.487 0 .743.743 0 0 1 -1.487 0z"/></g><path d="m9.538 11.099a.743.743 0 1 1 0 1.486.743.743 0 0 1 0-1.486z" fill="#a5a5a5"/><path d="m10.907 10.922a.743.743 0 1 1 1.486 0 .743.743 0 0 1 -1.486 0z" fill="#a5a5a5"/><g fill="#585858"><path d="m11.72 8.92a.743.743 0 1 1 1.487 0 .743.743 0 0 1 -1.486 0z"/><path d="m14.6 8.92a.743.743 0 1 1 1.486 0 .743.743 0 0 1 -1.486 0z"/><path d="m17.458 8.92a.743.743 0 1 1 1.487 0 .743.743 0 0 1 -1.487 0z"/></g><g fill="#a5a5a5"><path d="m8.794 14.498a.743.743 0 1 1 1.487 0 .743.743 0 0 1 -1.487 0z"/><path d="m11.126 14.068a.743.743 0 1 1 1.487 0 .743.743 0 0 1 -1.487 0z"/><path d="m8.794 17.257a.743.743 0 1 1 1.487 0 .743.743 0 0 1 -1.487 0z"/></g><path d="m6.697 10.922a.743.743 0 1 1 1.487 0 .743.743 0 0 1 -1.487 0z" fill="#ebebeb"/><path d="m1.252 13.163a.743.743 0 1 1 1.486 0 .743.743 0 0 1 -1.486 0z" fill="#ebebeb"/><path d="m16.407 13.163a.743.743 0 1 1 1.487 0 .743.743 0 0 1 -1.487 0z" fill="#585858"/><g fill="#ebebeb"><path d="m6.604 14.068a.743.743 0 1 1 1.486 0 .743.743 0 0 1 -1.486 0z"/><path d="m3.396 11.137a.743.743 0 1 1 1.486 0 .743.743 0 0 1 -1.486 0z"/><path d="m4.71 12.903a.743.743 0 1 1 1.487 0 .743.743 0 0 1 -1.487 0z"/></g><path d="m13.014 12.903a.743.743 0 1 1 1.487 0 .743.743 0 0 1 -1.487 0z" fill="#a5a5a5"/><path d="m4.413 16.139a.743.743 0 1 1 1.486 0 .743.743 0 0 1 -1.486 0z" fill="#ebebeb"/><path d="m5.743 8.979a.743.743 0 1 1 1.487 0 .743.743 0 0 1 -1.487 0z" fill="#585858"/><path d="m2.926 8.979a.743.743 0 1 1 1.487 0 .743.743 0 0 1 -1.487 0z" fill="#585858"/><g fill="#ebebeb"><path d="m.391 11.137a.743.743 0 1 1 1.487 0 .743.743 0 0 1 -1.487 0z"/><path d="m2.652 14.715a.743.743 0 1 1 1.487 0 .743.743 0 0 1 -1.487 0z"/><path d="m6.486 16.984a.743.743 0 1 1 1.487 0 .743.743 0 0 1 -1.487 0z"/></g><path d="m0 8.979a.743.743 0 1 1 1.487 0 .743.743 0 0 1 -1.487 0z" fill="#585858"/></svg>