<svg xmlns="http://www.w3.org/2000/svg" width="19" height="14" viewBox="0 0 19 14"><g><g><path fill="#fff" d="M3.563 10.033V7.467c0-.234.237-.467.474-.467h.832c.237 0 .475.233.475.467v2.566c0 .234-.238.467-.475.467h-.832c-.237 0-.475-.233-.475-.467zM19 12.833v.584a.588.588 0 0 1-.594.583H1.188A1.177 1.177 0 0 1 0 12.833V.583C0 .261.266 0 .594 0h.594c.328 0 .593.261.593.583V12.25h16.625c.328 0 .594.261.594.583zm-8.313-2.8v-4.9c0-.233.238-.466.476-.466h.83c.238 0 .476.233.476.466v4.9c0 .234-.238.467-.475.467h-.831c-.238 0-.476-.233-.476-.467zm-3.562 0V2.8c0-.233.237-.467.475-.467h.831c.238 0 .475.234.475.467v7.233c0 .234-.237.467-.475.467H7.6c-.237 0-.475-.233-.475-.467zm7.125 0v-8.4c0-.233.237-.466.475-.466h.831c.238 0 .475.233.475.466v8.4c0 .234-.237.467-.475.467h-.831c-.237 0-.475-.233-.475-.467z"/></g></g></svg>