<svg xmlns="http://www.w3.org/2000/svg" width="15" height="14" viewBox="0 0 15 14"><g><g><path fill="#525252" d="M7.5 8.805c-1.034 0-1.876-.81-1.876-1.806S6.466 5.193 7.5 5.193c1.035 0 1.877.81 1.877 1.806S8.535 8.805 7.5 8.805zm0-4.516C5.948 4.29 4.685 5.505 4.685 7S5.948 9.708 7.5 9.708c1.553 0 2.815-1.215 2.815-2.71 0-1.493-1.262-2.709-2.815-2.709zm4.728 6.766L10.87 10.3c-.792.651-1.072.815-2.083 1.16v1.508a6.61 6.61 0 0 1-2.573 0V11.46c-.986-.335-1.271-.49-2.083-1.159l-1.358.755a6.045 6.045 0 0 1-1.288-2.144l1.358-.754c-.191-1-.191-1.317 0-2.317l-1.358-.754c.27-.79.71-1.52 1.288-2.144l1.358.755c.803-.661 1.087-.82 2.083-1.159v-1.51a6.6 6.6 0 0 1 2.573 0v1.51c.996.339 1.28.498 2.083 1.16l1.358-.756a6.049 6.049 0 0 1 1.288 2.144l-1.359.755c.192 1 .192 1.316 0 2.316l1.359.754c-.271.79-.71 1.52-1.288 2.144zm1.92-2.835l-.957-.531c.06-.459.06-.922 0-1.38l.957-.532a.665.665 0 0 0 .324-.776 6.93 6.93 0 0 0-1.687-2.81.724.724 0 0 0-.864-.121l-.954.53a5.75 5.75 0 0 0-1.242-.69V.847a.684.684 0 0 0-.542-.66 7.602 7.602 0 0 0-3.365 0 .684.684 0 0 0-.542.66v1.061a5.75 5.75 0 0 0-1.242.691l-.955-.53a.724.724 0 0 0-.863.12A6.93 6.93 0 0 0 .53 5.002c-.092.3.043.62.324.776l.956.532c-.06.458-.06.921 0 1.38l-.956.53a.665.665 0 0 0-.324.777 6.93 6.93 0 0 0 1.687 2.81.724.724 0 0 0 .863.122l.955-.531c.382.28.8.512 1.242.69v1.062c0 .314.224.587.542.66a7.602 7.602 0 0 0 3.365 0 .684.684 0 0 0 .542-.66v-1.061c.443-.18.86-.411 1.242-.69l.954.53c.282.156.64.106.864-.121a6.93 6.93 0 0 0 1.687-2.811.665.665 0 0 0-.324-.776z"/></g></g></svg>