<svg xmlns="http://www.w3.org/2000/svg" width="24" height="24" viewBox="0 0 24 24"><g><g><path fill="#1dacee" d="M17.195 5.477l1.452-4.81a.938.938 0 0 1 1.795.542L20 2.672l1.46-1.46a.938.938 0 0 1 1.325 1.327l-1.386 1.386 1.392-.416a.937.937 0 1 1 .537 1.796l-4.721 1.412-5.946 5.945a.934.934 0 0 1-1.325 0 .937.937 0 0 1 0-1.326zm4.85 1.707a.938.938 0 0 1 1.206.55c.495 1.32.746 2.756.746 4.265a11.92 11.92 0 0 1-3.514 8.484 11.92 11.92 0 0 1-8.485 3.515 11.92 11.92 0 0 1-8.484-3.515A11.92 11.92 0 0 1 0 12a11.92 11.92 0 0 1 3.514-8.484A11.92 11.92 0 0 1 11.998.001c1.475 0 2.93.275 4.324.818a.937.937 0 0 1-.68 1.747 10.006 10.006 0 0 0-3.644-.69c-5.582 0-10.123 4.541-10.123 10.123 0 5.583 4.541 10.124 10.123 10.124 5.583 0 10.124-4.541 10.124-10.124 0-1.284-.21-2.498-.627-3.608a.938.938 0 0 1 .55-1.207zM13.51 5.833a6.328 6.328 0 0 0-1.512-.161A6.334 6.334 0 0 0 5.671 12a6.334 6.334 0 0 0 6.327 6.328 6.334 6.334 0 0 0 6.328-6.328c0-.523-.055-1.018-.162-1.47a.937.937 0 1 1 1.824-.434c.14.594.212 1.235.212 1.904 0 4.523-3.679 8.202-8.202 8.202-4.522 0-8.202-3.68-8.202-8.202s3.68-8.202 8.202-8.202c.728 0 1.369.07 1.958.215a.937.937 0 1 1-.446 1.82zm-4.324 6.166a2.815 2.815 0 0 0 2.812 2.813 2.776 2.776 0 0 0 2.595-1.793.937.937 0 0 1 1.747.68c-.706 1.814-2.41 2.987-4.342 2.987A4.692 4.692 0 0 1 7.312 12a4.699 4.699 0 0 1 3.163-4.448.938.938 0 0 1 .61 1.773 2.824 2.824 0 0 0-1.899 2.675z"/></g></g></svg>