<svg xmlns="http://www.w3.org/2000/svg" width="13" height="15" viewBox="0 0 13 15"><g><g><path fill="#8d8d8d" d="M6.036 12.42V4.451c0-.13.104-.234.232-.234h.464c.128 0 .232.105.232.234v7.967c0 .13-.104.234-.232.234h-.464a.233.233 0 0 1-.232-.234zm5.107-9.608H1.857V13.59c0 .259.208.468.464.468h8.358c.256 0 .464-.21.464-.468zM4.41 1.875h4.178l-.557-.75a.466.466 0 0 0-.371-.188H5.339a.466.466 0 0 0-.371.188zm8.357 0c.128 0 .232.104.232.234v.469c0 .129-.104.234-.232.234h-.697V13.59a1.4 1.4 0 0 1-1.392 1.406H2.32A1.4 1.4 0 0 1 .93 13.59V2.81H.232A.233.233 0 0 1 0 2.579v-.47c0-.129.104-.233.232-.233H3.25L4.225.562A1.389 1.389 0 0 1 5.339 0h2.322c.438 0 .851.208 1.114.562l.975 1.313zM3.714 12.419V4.452c0-.13.104-.234.232-.234h.465c.128 0 .232.105.232.234v7.967c0 .13-.104.234-.232.234h-.465a.233.233 0 0 1-.232-.234zm4.643 0V4.452c0-.13.104-.234.232-.234h.465c.128 0 .232.105.232.234v7.967c0 .13-.104.234-.232.234h-.465a.233.233 0 0 1-.232-.234z"/></g></g></svg>