<svg height="15" viewBox="0 0 24 15" width="24" xmlns="http://www.w3.org/2000/svg"><path d="m11.82 1.065c-4.025-.351-7.118-2.989-9.761 1.641-1.111 1.934-1.892 5.246-2.042 7.912-.3 6.476 3.453 4.689 6.967 1.465 2.193-2.022 7.839-2.022 10.031 0 3.514 3.253 7.268 5.011 6.968-1.465-.12-2.666-.901-5.948-2.042-7.912-2.643-4.63-5.737-1.963-9.761-1.64z" fill="#1dacee"/><g fill="#fff"><path d="m6.487 3.05c.73 0 1.3.602 1.3 1.3v.443h.444c.73 0 1.3.603 1.3 1.3 0 .73-.602 1.3-1.3 1.3h-.444v.476c0 .73-.602 1.3-1.3 1.3-.729 0-1.3-.602-1.3-1.3v-.444h-.444c-.73 0-1.3-.602-1.3-1.3 0-.73.603-1.3 1.3-1.3h.444v-.444c0-.761.603-1.332 1.3-1.332z"/><path d="m15.927 8.455c0 .634.507 1.142 1.142 1.142.634 0 1.141-.508 1.141-1.142s-.507-1.142-1.141-1.142c-.635 0-1.142.508-1.142 1.142zm-1.205-1.205c.634 0 1.142-.507 1.142-1.142 0-.634-.508-1.141-1.142-1.141s-1.142.507-1.142 1.141c0 .635.508 1.174 1.142 1.142zm1.205-3.488c0 .634.507 1.141 1.142 1.141.634 0 1.141-.507 1.141-1.141s-.507-1.142-1.14-1.142c-.635 0-1.142.54-1.142 1.142zm3.488 3.488c.635 0 1.142-.507 1.142-1.142 0-.634-.507-1.141-1.142-1.141-.634 0-1.141.507-1.141 1.141 0 .635.507 1.174 1.141 1.142z"/></g></svg>