<svg height="16" viewBox="0 0 16 16" width="16" xmlns="http://www.w3.org/2000/svg"><path d="m0 8a8 8 0 1 1 16 0 8 8 0 0 1 -16 0z" fill="#286ae0"/><g fill="#78d362"><path d="m1.694 3.047s1.963.61 1.963 1.829c0 1.22-1.22 1.22 1.829 3.048-1.22-1.829 1.828-3.048 1.828-3.048s0-1.829.61-1.829 2.912.698 1.084-2.96c-4.832-.658-7.314 2.96-7.314 2.96z"/><path d="m13.458 2.09s-2.334 1.567-2.334 2.786c0 0-.168.965 1.558 0 .762.457 1.49 1.829 1.49 1.829-.477 1.191.08 1.159.355 1.884.06.42.208 1.153 1.322.782.202-.79.338-2.83-.68-5.025-.697-1.376-1.711-2.255-1.711-2.255z"/><path d="m6.17 10.776c-.112-2.48.9-3.056 1.4-2.972.498.084-.327.833.618 1.287.414.35 1.056.525 1.191 1.26.177.967-.304 1.201-.232 2.647.016.179.758.684.68 1.745-.395-.69-1.318-.49-2.258-1.512"/></g></svg>