<svg height="18" viewBox="0 0 18 18" width="18" xmlns="http://www.w3.org/2000/svg"><path d="m2.011 15.97c.044 0 .07.005.095 0 1.083-.232 2.167-.46 3.247-.702a.745.745 0 0 0 .34-.199c2.482-2.474 4.959-4.953 7.438-7.43.053-.052.123-.087.17-.12l-2.794-2.793c-.004.003-.026.017-.045.036-2.536 2.536-5.071 5.072-7.604 7.61a.488.488 0 0 0 -.12.227c-.106.463-.204.928-.304 1.393zm9.529-12.203 2.703 2.704c.446-.432.922-.878 1.38-1.343a1.957 1.957 0 0 0 .058-2.665c-.679-.755-1.882-.89-2.652-.228-.548.472-1.014 1.037-1.49 1.532m5.945-.087c-.015 1.003-.333 1.787-.972 2.429-1.358 1.365-2.725 2.722-4.087 4.084-2.026 2.026-4.049 4.055-6.078 6.078a.785.785 0 0 1 -.365.2c-1.553.343-3.107.677-4.661 1.012-.508.11-.912-.319-.801-.825.337-1.54.663-3.083 1.002-4.622a.822.822 0 0 1 .203-.386c2.705-2.713 5.416-5.42 8.128-8.128.74-.74 1.447-1.521 2.235-2.208 1.913-1.669 4.848-.634 5.335 1.855.04.2.048.404.06.511" fill="#242424"/></svg>