<svg xmlns="http://www.w3.org/2000/svg" width="200" height="34" viewBox="0 0 200 34"><defs><linearGradient id="33a3a" x1="26.25" x2="26.25" y1="0" y2="21.68" gradientUnits="userSpaceOnUse"><stop offset="0" stop-color="#fdd9b4"/><stop offset="1" stop-color="#ff9a5c"/></linearGradient><linearGradient id="33a3b" x1="17.34" x2="17.34" y1="12.32" y2="34.01" gradientUnits="userSpaceOnUse"><stop offset="0" stop-color="#00acee"/><stop offset="1" stop-color="#6fe1ea"/></linearGradient></defs><g><g><g><g><path fill="#00acee" d="M77.585 29.793H55.682c-2.734 0-4.949-2.18-4.949-4.867V9c0-2.688 2.215-4.867 4.949-4.867h21.903v5.132H59.512c-1.951 0-2.927.856-2.927 2.567v2.565h15.198v5.132H56.585v3.38c0 .967.798 1.752 1.782 1.752h19.218z"/></g><g><path fill="#00acee" d="M81.872 24.675l17.89-15.41H81.87V4.133h24.388c2.739 0 4.017 3.339 1.957 5.116l-17.86 15.412h17.85v5.132H83.828c-2.741 0-4.018-3.341-1.956-5.118z"/></g><g><path fill="#00acee" d="M132.773 22.095c0 .708-.286 1.314-.856 1.814-.573.502-1.262.752-2.07.752h-11.705v-5.132h11.705c.808 0 1.497.25 2.07.751.57.502.856 1.106.856 1.815zm0-10.263c0 .708-.286 1.313-.856 1.813-.573.502-1.262.752-2.07.752h-11.705V9.265h11.705c.808 0 1.497.251 2.07.751.57.502.856 1.107.856 1.816zm5.853 10.263c0-1.955-.752-3.666-2.257-5.132 1.505-1.466 2.257-3.177 2.257-5.131 0-1.051-.23-2.047-.69-2.989a7.792 7.792 0 0 0-1.881-2.456c-.795-.696-1.73-1.246-2.8-1.649a9.616 9.616 0 0 0-3.408-.605h-17.558v25.66h17.558c1.226 0 2.368-.202 3.429-.605a9.062 9.062 0 0 0 2.779-1.65 7.84 7.84 0 0 0 1.881-2.437c.46-.929.69-1.93.69-3.006z"/></g><g><path fill="#00acee" d="M169.934 29.793h-21.903c-2.734 0-4.949-2.18-4.949-4.867V9c0-2.688 2.215-4.867 4.949-4.867h21.903v5.132h-18.073c-1.951 0-2.926.856-2.926 2.567v2.565h14.208v5.132h-14.208v3.38c0 .967.797 1.752 1.781 1.752h19.218z"/></g><g><path fill="#00acee" d="M189.758 9.265v20.528h-5.853V9.265h-10.242V4.133H200v5.132z"/></g></g><g><g><path fill="url(#33a3a)" d="M43.618 14.728l-16.66 6.95-5.04-6.534h2.766c1.971 0 3.436-.178 4.433-1.278 1.522-1.801 8.635-10.706 3.016-11.856C25.358.625 11.858 10.747 10.6 11.682c-.53.395-2.089.374-1.661-.02a58.288 58.288 0 0 1 3.342-2.866 51.006 51.006 0 0 1 6.962-4.65c.36-.193.7-.387 1.09-.58l.57-.29.601-.29c.39-.193.84-.385 1.269-.578.22-.097.46-.19.691-.28.231-.09.468-.192.727-.28a29.621 29.621 0 0 1 3.5-1.11 26.846 26.846 0 0 1 2.286-.465c.404-.07.853-.115 1.28-.168.426-.053.872-.069 1.306-.097.42 0 .85-.018 1.243 0l.57.03c.19.01.38.022.537.043.583.058 1.16.162 1.727.31.729.18 1.42.485 2.042.904l.182.123.153.124c.099.086.207.169.295.254.167.16.322.333.463.517l.197.261.159.266c.101.172.19.35.267.535.52 1.422.6 2.968.228 4.435-.496 2.1-1.442 4.076-2.463 5.943-.358.605-.24.98.58.98z"/></g><g><path fill="url(#33a3b)" d="M0 19.281l16.589-6.963 5.069 6.543h-2.833c-2.211 0-3.442.227-4.396 1.27-1.524 1.802-8.634 10.707-3.016 11.856 6.775 1.385 20.274-8.737 21.531-9.672.531-.395 2.09-.374 1.662.022a56.765 56.765 0 0 1-3.343 2.864 51.066 51.066 0 0 1-6.962 4.65c-.36.193-.7.388-1.09.58l-.569.29-.602.289c-.39.193-.84.385-1.268.578-.222.097-.46.192-.692.289a11.75 11.75 0 0 1-.726.28 29.286 29.286 0 0 1-3.5 1.108c-.692.172-1.455.335-2.286.467-.405.07-.853.114-1.28.167-.427.054-.872.07-1.306.097-.434.028-.85.018-1.243 0l-.57-.03c-.19-.01-.38-.02-.538-.043a10.972 10.972 0 0 1-1.727-.31 6.415 6.415 0 0 1-2.041-.902l-.182-.123-.153-.126c-.1-.084-.207-.168-.295-.252a4.979 4.979 0 0 1-.465-.517l-.196-.263-.158-.265a4.305 4.305 0 0 1-.27-.536 7.53 7.53 0 0 1-.226-4.435 20.11 20.11 0 0 1 2.464-5.943c.357-.605-.07-.98-1.028-.98z"/></g></g></g></g></svg>