<svg height="13" viewBox="0 0 17 13" width="17" xmlns="http://www.w3.org/2000/svg"><g fill="#00acee"><path d="m16.237 10.424h-7.234c-.636-1.77-3.307-1.767-3.943 0h-4.4c-.88 0-.879 1.246 0 1.246h4.4c.637 1.77 3.308 1.767 3.943 0h7.234c.878 0 .878-1.246 0-1.246zm-9.205 1.33c-.995 0-.996-1.414 0-1.414"/><path d="m.66 2.573h1.568c.637 1.77 3.307 1.767 3.943 0h10.066c.878 0 .878-1.247 0-1.247h-10.067c-.636-1.77-3.307-1.766-3.943 0h-1.567c-.879 0-.878 1.247 0 1.247zm3.54-1.33c.994 0 .995 1.413 0 1.413"/><path d="m16.237 5.875h-1.569c-.637-1.77-3.307-1.767-3.943 0h-10.066c-.879 0-.878 1.247 0 1.247h10.066c.637 1.77 3.308 1.767 3.943 0h1.569c.878 0 .878-1.247 0-1.247zm-3.54 1.33c-.996 0-.996-1.413 0-1.413"/></g></svg>