<svg xmlns="http://www.w3.org/2000/svg" width="148" height="29" viewBox="0 0 148 25"><defs><linearGradient id="6z63a" x1="19.05" x2="19.05" y1="0" y2="15.74" gradientUnits="userSpaceOnUse"><stop offset="0" stop-color="#fdd9b4"/><stop offset="1" stop-color="#ff9a5c"/></linearGradient><linearGradient id="6z63b" x1="12.59" x2="12.59" y1="9.25" y2="25" gradientUnits="userSpaceOnUse"><stop offset="0" stop-color="#00acee"/><stop offset="1" stop-color="#6fe1ea"/></linearGradient></defs><g><g><path fill="#00acee" d="M58.491 21.936H42.592A3.592 3.592 0 0 1 39 18.344V6.592A3.592 3.592 0 0 1 42.592 3h15.9v3.787h-13.12c-1.416 0-2.124.632-2.124 1.895v1.892H54.28v3.788H43.248v2.494c0 .714.579 1.293 1.293 1.293h13.95z"/></g><g><path fill="#00acee" d="M61.603 18.16L74.589 6.787H61.6V3h17.703c1.988 0 2.916 2.464 1.421 3.776L67.761 18.149h12.957v3.787H63.023c-1.99 0-2.917-2.465-1.42-3.776z"/></g><g><path fill="#00acee" d="M98.551 16.255c0 .523-.207.97-.621 1.34-.416.37-.916.554-1.503.554H87.93v-3.787h8.496c.587 0 1.087.185 1.503.554.414.37.621.816.621 1.34zm-.621-6.235c-.416.37-.916.554-1.503.554H87.93V6.787h8.496c.587 0 1.087.186 1.503.555.414.37.621.817.621 1.34 0 .523-.207.969-.621 1.338zm3.231 2.448c1.093-1.082 1.639-2.344 1.639-3.786 0-.776-.167-1.511-.501-2.206a5.74 5.74 0 0 0-1.366-1.812A6.531 6.531 0 0 0 98.9 3.447 6.878 6.878 0 0 0 96.427 3H83.682v18.936h12.745c.89 0 1.719-.149 2.49-.446a6.557 6.557 0 0 0 2.016-1.218 5.775 5.775 0 0 0 1.366-1.798c.334-.686.5-1.425.5-2.219 0-1.442-.545-2.705-1.638-3.787z"/></g><g><path fill="#00acee" d="M125.526 21.936h-15.899a3.592 3.592 0 0 1-3.593-3.592V6.592A3.592 3.592 0 0 1 109.626 3h15.9v3.787h-13.119c-1.417 0-2.124.632-2.124 1.895v1.892h10.313v3.788h-10.313v2.494c0 .714.578 1.293 1.293 1.293h13.95z"/></g><g><path fill="#00acee" d="M139.916 6.787v15.15h-4.249V6.786h-7.434V3h19.117v3.787z"/></g><g><path fill="url(#6z63a)" d="M31.661 10.69l-12.093 5.046-3.658-4.743h2.007c1.431 0 2.495-.13 3.218-.928 1.105-1.307 6.268-7.772 2.19-8.606C18.406.454 8.607 7.801 7.694 8.48c-.385.287-1.516.271-1.206-.015a42.33 42.33 0 0 1 2.427-2.08 37.019 37.019 0 0 1 5.053-3.375c.261-.14.508-.282.792-.421l.412-.211.437-.21c.284-.14.61-.28.921-.42.16-.07.334-.139.502-.204.168-.065.34-.139.527-.203a21.5 21.5 0 0 1 2.541-.805 19.49 19.49 0 0 1 1.66-.338c.293-.05.618-.083.928-.122.31-.039.633-.05.948-.07.305 0 .617-.013.903 0l.413.021c.138.008.277.016.39.032.424.042.843.117 1.254.225.529.13 1.03.352 1.482.656l.132.09.111.09c.072.062.15.122.214.184.122.116.234.241.337.375l.143.19.115.193c.074.124.139.254.194.388a5.462 5.462 0 0 1 .166 3.22c-.361 1.524-1.047 2.958-1.789 4.313-.26.44-.173.711.421.711z"/></g><g><path fill="url(#6z63b)" d="M0 14.306l12.041-5.055 3.68 4.75h-2.056c-1.605 0-2.499.165-3.191.922-1.106 1.308-6.268 7.772-2.19 8.606 4.918 1.005 14.717-6.342 15.63-7.021.385-.286 1.516-.271 1.206.016a41.202 41.202 0 0 1-2.427 2.08 37.07 37.07 0 0 1-5.053 3.374c-.261.14-.508.282-.792.421l-.413.21-.436.21c-.284.141-.61.28-.921.42-.16.07-.334.14-.502.21-.168.07-.34.139-.527.203-.83.321-1.678.59-2.541.805-.502.125-1.056.243-1.66.338-.293.051-.618.083-.928.122-.31.039-.634.05-.948.07-.316.02-.617.014-.903 0l-.413-.021a4.622 4.622 0 0 1-.39-.032 7.966 7.966 0 0 1-1.255-.225 4.657 4.657 0 0 1-1.481-.655l-.132-.089-.111-.091c-.072-.061-.15-.122-.214-.183a3.62 3.62 0 0 1-.338-.375l-.142-.191-.115-.192a3.123 3.123 0 0 1-.195-.39 5.466 5.466 0 0 1-.165-3.219 14.598 14.598 0 0 1 1.789-4.314c.259-.439-.05-.711-.747-.711z"/></g></g></svg>