<svg height="24" viewBox="0 0 24 24" width="24" xmlns="http://www.w3.org/2000/svg"><g fill="#00acee"><path d="m9.746 23.179-8.992-8.966a.214.214 0 0 0 -.36.11c-.077.372-.135.714-.181 1.02-.479 3.208-.13 6.246.847 7.388.85.993 2.855 1.215 3.975 1.258.186.007.377.011.572.011 1.204 0 2.585-.14 4.034-.46a.214.214 0 0 0 .105-.361z"/><path d="m23.999 5.502c-.01-.992-.144-3.406-1.16-4.382-1.071-1.027-4.105-1.398-7.38-.902-.457.07-.997.168-1.595.309a.214.214 0 0 0 -.102.36l9.342 9.316c.119.118.322.06.36-.102.388-1.643.549-3.225.535-4.599z"/><path d="m16.813 10.255a.706.706 0 0 1 -1.001.002l-.411-.409a.216.216 0 0 0 -.305 0l-.469.467a.213.213 0 0 0 0 .303l.396.394c.278.276.294.73.017 1.007a.706.706 0 0 1 -1.002.002l-.41-.409a.216.216 0 0 0 -.305 0l-.5.498a.213.213 0 0 0 0 .303l.379.377c.278.277.294.73.017 1.008a.706.706 0 0 1 -1.002.002l-.546-.544-.621.618a.213.213 0 0 0 0 .303l.379.378c.278.276.293.73.017 1.007a.706.706 0 0 1 -1.002.002l-.394-.392a.216.216 0 0 0 -.304 0l-.436.433a.213.213 0 0 0 0 .303l.396.394c.277.276.293.73.017 1.007a.706.706 0 0 1 -1.002.002l-.416-.414a.209.209 0 0 0 -.294 0l-.02.02a.707.707 0 0 1 -1.032-.034.714.714 0 0 1 .047-.975.213.213 0 0 0 0-.303l-.396-.394a.714.714 0 0 1 -.038-.984.71.71 0 0 1 1.023-.025l.41.409c.085.083.221.083.305 0l.436-.434a.213.213 0 0 0 0-.303l-.413-.41a.714.714 0 0 1 -.038-.985.71.71 0 0 1 1.023-.025l.428.426c.084.083.22.083.304 0l.47-.467a.213.213 0 0 0 0-.303l-.414-.411a.714.714 0 0 1 -.038-.984.71.71 0 0 1 1.023-.025l.428.426c.084.083.22.083.304 0l.5-.498a.213.213 0 0 0 0-.303l-.396-.395a.714.714 0 0 1 -.038-.984.71.71 0 0 1 1.023-.024l.411.409c.084.083.22.083.304 0l.47-.467a.213.213 0 0 0 0-.303l-.397-.395a.714.714 0 0 1 -.038-.984.71.71 0 0 1 1.023-.024l.411.408c.084.084.22.084.304 0l.23-.227a.723.723 0 0 1 .988-.038.7.7 0 0 1 .025 1.018l-.243.242a.213.213 0 0 0 0 .303l.396.394c.278.276.294.73.017 1.007zm6.01 1.653-10.826-10.74a.216.216 0 0 0 -.222-.051c-2.115.73-4.542 1.963-6.63 4.04-2.254 2.243-3.512 4.877-4.213 7.084a.213.213 0 0 0 .054.216l10.547 10.464a.216.216 0 0 0 .22.052c2.463-.815 4.975-2.166 7.049-4.229 1.944-1.935 3.254-4.275 4.073-6.614a.214.214 0 0 0 -.052-.222z"/></g></svg>