<svg xmlns="http://www.w3.org/2000/svg" width="24" height="24" viewBox="0 0 24 24"><g><g><path fill="#1dacee" d="M22.383 13.913a.822.822 0 0 1-.233.148.704.704 0 0 1-.268.057.743.743 0 0 1-.5-.205.816.816 0 0 1-.15-.233.705.705 0 0 1-.056-.268.741.741 0 0 1 .205-.501c.034-.03.069-.06.106-.085a.541.541 0 0 1 .127-.064.677.677 0 0 1 .537 0 .816.816 0 0 1 .232.149.742.742 0 0 1 .205.5.706.706 0 0 1-.056.269.82.82 0 0 1-.149.233zm-1.22 3.17a.462.462 0 0 1-.043.126.537.537 0 0 1-.064.127l-.084.106a.822.822 0 0 1-.233.149.665.665 0 0 1-.537 0 .82.82 0 0 1-.233-.149l-.084-.106a.538.538 0 0 1-.064-.127.449.449 0 0 1-.042-.127.928.928 0 0 1-.014-.14.741.741 0 0 1 .204-.502.815.815 0 0 1 .233-.149.648.648 0 0 1 .537 0 .817.817 0 0 1 .233.149.742.742 0 0 1 .204.501.97.97 0 0 1-.014.141zm-1.836-1.61a.665.665 0 0 1-.537 0 .82.82 0 0 1-.232-.148.742.742 0 0 1-.205-.502.706.706 0 0 1 .056-.268.64.64 0 0 1 .381-.381.709.709 0 0 1 .537 0 .638.638 0 0 1 .381.381.707.707 0 0 1 .057.268.743.743 0 0 1-.205.502.823.823 0 0 1-.233.148zm-.988 3.02a.462.462 0 0 1-.043.128.538.538 0 0 1-.063.127.607.607 0 0 1-.19.19.538.538 0 0 1-.128.064.457.457 0 0 1-.127.043.98.98 0 0 1-.14.014.743.743 0 0 1-.502-.205l-.085-.106a.537.537 0 0 1-.064-.127.449.449 0 0 1-.042-.127.94.94 0 0 1-.014-.141.741.741 0 0 1 .205-.501.711.711 0 0 1 .642-.19.448.448 0 0 1 .127.041.537.537 0 0 1 .127.064l.106.085a.743.743 0 0 1 .205.501.98.98 0 0 1-.014.14zm-1.412 2.824a.462.462 0 0 1-.042.128.538.538 0 0 1-.064.127l-.085.105-.105.085a.538.538 0 0 1-.128.064.462.462 0 0 1-.127.042.98.98 0 0 1-.14.014.743.743 0 0 1-.502-.204l-.085-.106a.538.538 0 0 1-.063-.127.449.449 0 0 1-.042-.128.94.94 0 0 1-.015-.14.741.741 0 0 1 .205-.502.711.711 0 0 1 .642-.19.448.448 0 0 1 .127.042.538.538 0 0 1 .128.064c.037.026.072.054.105.084a.742.742 0 0 1 .205.501.971.971 0 0 1-.014.141zm-1.602-1.757a1.12 1.12 0 0 1-.106.084.538.538 0 0 1-.127.064.457.457 0 0 1-.127.043.699.699 0 0 1-.833-.833.448.448 0 0 1 .042-.128.4.4 0 0 1 .064-.12c.028-.042.056-.077.084-.112a.732.732 0 0 1 .643-.191.448.448 0 0 1 .127.042.538.538 0 0 1 .127.064l.106.085a.716.716 0 0 1 0 1.002zm-1.412 2.823a.706.706 0 0 1-1.151-.77.814.814 0 0 1 .149-.232c.202-.2.506-.26.769-.148a.638.638 0 0 1 .381.38.705.705 0 0 1 .057.27.743.743 0 0 1-.205.5zM12.5 19.56c-.033.03-.069.058-.106.084a.538.538 0 0 1-.127.064.457.457 0 0 1-.127.043.98.98 0 0 1-.14.014 1.083 1.083 0 0 1-.142-.014.462.462 0 0 1-.127-.043.542.542 0 0 1-.127-.064 1.042 1.042 0 0 1-.106-.084.706.706 0 1 1 1.002 0zm-1.412 2.823c-.033.03-.068.059-.105.085a.538.538 0 0 1-.127.064.462.462 0 0 1-.128.042.981.981 0 0 1-.14.014 1.083 1.083 0 0 1-.142-.014.462.462 0 0 1-.127-.042.542.542 0 0 1-.127-.064 1.041 1.041 0 0 1-.106-.085.742.742 0 0 1-.204-.5.706.706 0 0 1 .056-.27.815.815 0 0 1 .148-.232.712.712 0 0 1 .642-.19.447.447 0 0 1 .128.042.537.537 0 0 1 .127.063l.106.085a.821.821 0 0 1 .148.233.706.706 0 0 1 .056.268.745.745 0 0 1-.205.501zm-1.644-2.675a.665.665 0 0 1-.537 0 .818.818 0 0 1-.233-.148.716.716 0 0 1 0-1.002.815.815 0 0 1 .233-.149.731.731 0 0 1 .77.149.716.716 0 0 1 0 1.002.822.822 0 0 1-.233.148zm-.989 1.61a.462.462 0 0 1-.042.127.538.538 0 0 1-.064.127l-.084.105-.106.085a.538.538 0 0 1-.127.064.462.462 0 0 1-.127.042.98.98 0 0 1-.141.014.743.743 0 0 1-.501-.204l-.085-.106a.538.538 0 0 1-.064-.127.449.449 0 0 1-.042-.128.94.94 0 0 1-.014-.14.741.741 0 0 1 .205-.502.711.711 0 0 1 .642-.19.448.448 0 0 1 .127.042.538.538 0 0 1 .127.064c.037.026.072.054.106.084a.742.742 0 0 1 .205.501.971.971 0 0 1-.015.141zM7.002 18.62a.538.538 0 0 1-.063.127.607.607 0 0 1-.19.19.538.538 0 0 1-.128.064.462.462 0 0 1-.127.043.97.97 0 0 1-.141.014.743.743 0 0 1-.501-.205l-.085-.106a.537.537 0 0 1-.064-.127.449.449 0 0 1-.042-.127.94.94 0 0 1-.014-.141.741.741 0 0 1 .205-.501.717.717 0 0 1 .642-.19.448.448 0 0 1 .127.041.538.538 0 0 1 .127.064l.106.085a.743.743 0 0 1 .205.501.983.983 0 0 1-.014.141.464.464 0 0 1-.043.127zM5.21 15.473a.665.665 0 0 1-.536 0 .819.819 0 0 1-.233-.148.742.742 0 0 1-.205-.502.706.706 0 0 1 .057-.268.64.64 0 0 1 .38-.381.709.709 0 0 1 .537 0 .638.638 0 0 1 .382.381.708.708 0 0 1 .056.268.744.744 0 0 1-.205.502.823.823 0 0 1-.233.148zm-1.178 1.97a.823.823 0 0 1-.233.148.591.591 0 0 1-.269.056.973.973 0 0 1-.14-.014.462.462 0 0 1-.128-.043.399.399 0 0 1-.12-.063.653.653 0 0 1-.113-.085.716.716 0 0 1 0-1.002c.203-.2.507-.26.77-.149a.817.817 0 0 1 .233.149.716.716 0 0 1 0 1.002zm-1.412-3.53a.743.743 0 0 1-.501.205.706.706 0 0 1-.269-.057.638.638 0 0 1-.381-.381.706.706 0 0 1-.056-.268.741.741 0 0 1 .204-.501.732.732 0 0 1 1.002 0 .742.742 0 0 1 .205.5.706.706 0 0 1-.056.269.817.817 0 0 1-.148.233zm4.496 1.348a.64.64 0 0 1 .381-.381.709.709 0 0 1 .537 0 .638.638 0 0 1 .381.38.665.665 0 0 1 0 .538.636.636 0 0 1-.381.38.665.665 0 0 1-.537 0 .638.638 0 0 1-.381-.38.67.67 0 0 1 0-.537zm2.781.833a.448.448 0 0 1 .043-.127.399.399 0 0 1 .063-.12c.029-.043.057-.078.085-.113a.739.739 0 0 1 1.002 0c.032.034.06.072.085.113.028.036.05.076.064.12.02.04.034.083.042.127a.706.706 0 1 1-1.384 0zm2.824 0a.448.448 0 0 1 .042-.127.399.399 0 0 1 .064-.12.659.659 0 0 1 .085-.113.739.739 0 0 1 1.002 0c.032.034.06.072.084.113.028.036.05.076.064.12.02.04.035.083.043.127a.706.706 0 1 1-1.384 0zm2.866-.833a.814.814 0 0 1 .148-.233c.203-.2.507-.259.77-.148a.733.733 0 0 1 .232.148.82.82 0 0 1 .149.233.665.665 0 0 1 0 .537.821.821 0 0 1-.149.233.736.736 0 0 1-.233.148.706.706 0 0 1-.268.056.743.743 0 0 1-.5-.204.816.816 0 0 1-.15-.233.668.668 0 0 1 0-.537zM12 0C5.373 0 0 5.373 0 12s5.373 12 12 12 12-5.373 12-12C23.993 5.376 18.624.007 12 0z"/></g></g></svg>