<svg height="24" viewBox="0 0 20 24" width="20" xmlns="http://www.w3.org/2000/svg"><g fill="#1dacee"><path d="m9.852 13.97h1.37v-11.19h1.997v11.166h1.405v-9.725h2.009v9.733h1.334v-8.373h1.953c.025.218.077.452.077.687.005 3.295 0 6.591.001 9.887 0 1.769-.392 3.414-1.376 4.878-2.569 3.82-8.02 4.015-10.512.2-2.039-3.124-3.762-6.474-5.618-9.71 1.268-1.205 2.78-.955 3.574.534.523.982 1.034 1.97 1.736 2.932v-10.763h2.05z"/><path d="m11.531 1.261-1.522.117-.096 1.318h-3.313v7.052c-2.238-1.137-4.13-.81-5.683 1.035-1.624-2.192-1.013-6.275 1.228-8.558 2.468-2.513 6.502-2.985 9.386-.964z"/></g></svg>