<svg xmlns="http://www.w3.org/2000/svg" width="13" height="13" viewBox="0 0 13 13"><g><g><path fill="#00acee" d="M4.38 8.854c.102.14.299.172.44.07L7.13 7.241v-4.41a.315.315 0 0 0-.314-.315h-.63a.315.315 0 0 0-.314.315v3.77L4.079 7.905a.315.315 0 0 0-.07.44l.37.508zM0 6.49c-.007 3.582 2.915 6.512 6.497 6.514a6.478 6.478 0 0 0 4.363-1.676.315.315 0 0 0 .011-.456l-.444-.445a.316.316 0 0 0-.434-.01 5.225 5.225 0 0 1-3.491 1.329 5.24 5.24 0 0 1-5.244-5.244 5.24 5.24 0 0 1 5.244-5.244c1.456 0 2.771.592 3.72 1.548l-1.286 1.27c-.2.197-.06.538.22.538h3.365c.174 0 .315-.14.315-.314V.982c0-.28-.337-.42-.536-.224l-1.182 1.166A6.502 6.502 0 0 0 0 6.49z"/></g></g></svg>