<svg xmlns="http://www.w3.org/2000/svg" width="18" height="16" viewBox="0 0 18 16"><g><g><path fill="#525252" d="M10.706 9.466V5h1.935c.55 0 .831-.66.453-1.056L9.541.194a.624.624 0 0 0-.894-.01l-3.731 3.75A.624.624 0 0 0 5.356 5h2.135v4.466c0 .297.24.534.534.534h2.144c.297 0 .537-.24.537-.534zm6.97 1.125l-2.957-3.694a.374.374 0 0 0-.562-.028l-.879.903a.373.373 0 0 0-.025.497L14.638 10H11.75l-1 2h-3.5l-1-2H3.363l1.362-1.71a.375.375 0 0 0-.019-.49l-.862-.922a.375.375 0 0 0-.566.022l-2.95 3.688a1.502 1.502 0 0 0-.328.937V14.5A1.5 1.5 0 0 0 1.5 16h15a1.5 1.5 0 0 0 1.5-1.5v-2.975c0-.34-.115-.669-.325-.934z"/></g></g></svg>