<svg height="16" viewBox="0 0 16 16" width="16" xmlns="http://www.w3.org/2000/svg"><path d="m8.001 2.854a1.143 1.143 0 1 0 0 2.285 1.143 1.143 0 0 0 0-2.285zm-1.286 8.571a.429.429 0 0 0 -.428.429v.285c0 .237.192.429.428.429h2.572a.429.429 0 0 0 .428-.429v-.285a.429.429 0 0 0 -.428-.429h-.429v-5a.429.429 0 0 0 -.428-.428h-1.715a.429.429 0 0 0 -.428.428v.286c0 .237.192.428.428.428h.429v4.286zm8.143 2.857a.572.572 0 0 1 -.571.572h-12.572a.572.572 0 0 1 -.571-.572v-12.571c0-.315.256-.572.571-.572h12.572c.315 0 .571.257.571.572zm-.571-14.285h-12.572c-.945 0-1.714.767-1.714 1.713v12.571c0 .947.768 1.715 1.714 1.715h12.572c.947 0 1.714-.768 1.714-1.715v-12.57c0-.947-.767-1.714-1.714-1.714z" fill="#8d8d8d"/></svg>