<svg xmlns="http://www.w3.org/2000/svg" width="389" height="140" viewBox="0 0 389 140"><g><g><path fill="#ffffff" d="M79.11 23.561c.24.152.444.224.65.224.193 0 .387-.064.615-.183 8.68-4.537 17.364-9.068 26.046-13.602h-2.578c-7.812 4.079-15.624 8.156-23.436 12.236-.397.208-.698.3-1.139.018C72.852 18.156 66.421 14.08 59.994 10h-2.239c.078.036.153.07.238.123 7.033 4.487 14.085 8.948 21.118 13.438zm94.485 19.762c7.005-3.157 14.344-4.487 21.91-4.487 1.051 0 2.105.025 3.163.075 5.957.282 11.74 1.414 17.281 3.654 1.395.563 2.748 1.233 4.301 1.935l-3.304 1.967c-16.263 9.667-32.526 19.33-48.776 29.017-.572.341-.945.341-1.401-.11-1.46-1.443-3.094-2.74-4.375-4.324-4.87-6.02-4.836-13.315-.025-19.384 2.996-3.779 6.886-6.387 11.226-8.343zm47.776 2.067h.003c.233 0 .462.09.731.265 2.258 1.464 4.35 3.118 6.13 5.146 5.805 6.614 5.751 14.768-.147 21.299-3.361 3.723-7.539 6.24-12.146 8.08-7.583 3.028-15.484 4.07-23.604 3.63-6.719-.364-13.194-1.762-19.298-4.66-1.51-.718-2.953-1.576-4.597-2.462l9.874-5.87c14.117-8.391 28.236-16.78 42.341-25.19.27-.16.493-.238.713-.238zm51.51 52.38c4.783-1.286 9.633-1.957 14.544-1.957 1.428 0 2.861.057 4.3.172.71.057 1.418.168 2.338.279l-42.43 27.703c-1.03-2.823-1.346-5.643-.853-8.541.787-4.616 3.377-8.084 7.055-10.788 4.53-3.331 9.655-5.418 15.045-6.867zM317.4 130l60.092-41.018c.256-.173.503-.356.813-.576-.295-.193-.494-.331-.703-.458-43.01-25.98-86.017-51.965-129.026-77.948h-2.32c5.051 3.05 10.101 6.105 15.153 9.156.207.125.408.26.676.432-.254.169-.448.313-.654.435-13.138 7.811-26.278 15.62-39.413 23.434-.376.224-.681.375-1.147.12-5.325-2.91-11.047-4.577-17.04-5.381-8.211-1.1-16.32-.628-24.294 1.669-5.63 1.622-10.853 4.067-15.252 8.03-3.264 2.94-5.654 6.425-6.461 10.84-.686 3.751.08 7.242 1.912 10.528 1.545 2.773 3.687 5.025 6.185 6.955.116.09.222.192.38.326-.255.163-.472.31-.696.444-14.82 8.812-29.642 17.618-44.454 26.444-.515.307-.86.316-1.37-.021C84.231 79.949 48.67 56.502 13.11 33.053c-.204-.134-.402-.278-.707-.49.295-.162.514-.292.741-.407 8.92-4.528 17.844-9.048 26.754-13.594.56-.286.947-.268 1.47.079 11.591 7.674 23.197 15.326 34.788 23 .513.34.878.394 1.448.09 7.36-3.936 14.737-7.839 22.106-11.756.392-.208.68-.307 1.19-.111.766.295 1.645.314 2.483.406 9.077.995 18.068.725 26.858-2.02 5.791-1.809 10.95-4.73 15.223-9.087 2.525-2.575 4.34-5.565 5.022-9.163h-1.221c-.027.13-.05.26-.08.39-.857 3.663-2.961 6.562-5.694 9.036-5.124 4.64-11.188 7.406-17.904 8.831-6.946 1.474-13.952 1.664-20.997.932-.834-.088-1.665-.187-2.499-.28l-.03-.178L137.35 10h-2.53c-19.01 10.092-38.023 20.181-57.028 30.283-.63.334-1.056.319-1.656-.08-11.132-7.376-22.28-14.726-33.426-22.082-.241-.16-.479-.327-.79-.54.289-.157.497-.279.714-.387 4.678-2.377 9.364-4.743 14.032-7.142.048-.024.088-.033.132-.052h-2.633c-14.429 7.325-28.858 14.65-43.29 21.974-.254.13-.502.275-.833.456.299.21.513.365.733.51 36.77 24.247 73.541 48.492 110.312 72.737L157.974 130h2.154c-12.61-8.316-25.217-16.633-37.827-24.948-.222-.146-.44-.298-.718-.487.31-.19.534-.334.764-.472 14.777-8.785 29.556-17.566 44.323-26.369.552-.33.906-.306 1.44.04 5.166 3.36 10.874 5.337 16.904 6.395 9.558 1.676 19.007 1.214 28.278-1.748 5.05-1.614 9.723-3.956 13.702-7.533 3.19-2.868 5.576-6.253 6.435-10.533.994-4.95-.445-9.306-3.416-13.243-1.769-2.34-3.968-4.22-6.38-5.864-.325-.222-.658-.436-1.082-.716l40.75-24.228c37.56 22.69 75.15 45.396 112.846 68.166l-6.894 4.703c-4.379 2.99-8.766 5.971-13.13 8.982-.502.346-.85.36-1.373.04-11.795-7.208-23.604-14.393-35.4-21.598-.484-.294-.805-.327-1.306 0a5351.09 5351.09 0 0 1-21.97 14.347c-.281.184-.69.338-1.004.285-5.161-.868-10.318-.726-15.478-.016-6.843.943-13.312 3.014-19.335 6.423-2.964 1.678-5.624 3.729-7.628 6.52-3.48 4.849-4.092 10.132-2.282 15.757l.24.745c-2.73 1.784-5.463 3.568-8.196 5.352h2.176c24.469-15.976 48.94-31.95 73.4-47.94.573-.374.944-.353 1.508-.008 11.35 6.938 22.714 13.854 34.076 20.775.23.141.457.291.8.51l-12.165 8.304c-7.055-4.28-14.103-8.546-21.133-12.842-.499-.304-.782-.146-1.174.11-13.193 8.618-26.392 17.23-39.59 25.842L272.246 130h2.173c15.13-9.874 30.264-19.747 45.387-29.635.571-.373.941-.355 1.504-.012 6.341 3.874 12.7 7.72 19.055 11.575.21.126.412.265.719.464L315.288 130z"/><path fill="none" stroke="#000" stroke-miterlimit="20" d="M79.11 23.561c.24.152.444.224.65.224.193 0 .387-.064.615-.183 8.68-4.537 17.364-9.068 26.046-13.602h-2.578c-7.812 4.079-15.624 8.156-23.436 12.236-.397.208-.698.3-1.139.018C72.852 18.156 66.421 14.08 59.994 10h-2.239c.078.036.153.07.238.123 7.033 4.487 14.085 8.948 21.118 13.438zm94.485 19.762c7.005-3.157 14.344-4.487 21.91-4.487 1.051 0 2.105.025 3.163.075 5.957.282 11.74 1.414 17.281 3.654 1.395.563 2.748 1.233 4.301 1.935l-3.304 1.967c-16.263 9.667-32.526 19.33-48.776 29.017-.572.341-.945.341-1.401-.11-1.46-1.443-3.094-2.74-4.375-4.324-4.87-6.02-4.836-13.315-.025-19.384 2.996-3.779 6.886-6.387 11.226-8.343zm47.776 2.067h.003c.233 0 .462.09.731.265 2.258 1.464 4.35 3.118 6.13 5.146 5.805 6.614 5.751 14.768-.147 21.299-3.361 3.723-7.539 6.24-12.146 8.08-7.583 3.028-15.484 4.07-23.604 3.63-6.719-.364-13.194-1.762-19.298-4.66-1.51-.718-2.953-1.576-4.597-2.462l9.874-5.87c14.117-8.391 28.236-16.78 42.341-25.19.27-.16.493-.238.713-.238zm51.51 52.38c4.783-1.286 9.633-1.957 14.544-1.957 1.428 0 2.861.057 4.3.172.71.057 1.418.168 2.338.279l-42.43 27.703c-1.03-2.823-1.346-5.643-.853-8.541.787-4.616 3.377-8.084 7.055-10.788 4.53-3.331 9.655-5.418 15.045-6.867zM317.4 130l60.092-41.018c.256-.173.503-.356.813-.576-.295-.193-.494-.331-.703-.458-43.01-25.98-86.017-51.965-129.026-77.948h-2.32c5.051 3.05 10.101 6.105 15.153 9.156.207.125.408.26.676.432-.254.169-.448.313-.654.435-13.138 7.811-26.278 15.62-39.413 23.434-.376.224-.681.375-1.147.12-5.325-2.91-11.047-4.577-17.04-5.381-8.211-1.1-16.32-.628-24.294 1.669-5.63 1.622-10.853 4.067-15.252 8.03-3.264 2.94-5.654 6.425-6.461 10.84-.686 3.751.08 7.242 1.912 10.528 1.545 2.773 3.687 5.025 6.185 6.955.116.09.222.192.38.326-.255.163-.472.31-.696.444-14.82 8.812-29.642 17.618-44.454 26.444-.515.307-.86.316-1.37-.021C84.231 79.949 48.67 56.502 13.11 33.053c-.204-.134-.402-.278-.707-.49.295-.162.514-.292.741-.407 8.92-4.528 17.844-9.048 26.754-13.594.56-.286.947-.268 1.47.079 11.591 7.674 23.197 15.326 34.788 23 .513.34.878.394 1.448.09 7.36-3.936 14.737-7.839 22.106-11.756.392-.208.68-.307 1.19-.111.766.295 1.645.314 2.483.406 9.077.995 18.068.725 26.858-2.02 5.791-1.809 10.95-4.73 15.223-9.087 2.525-2.575 4.34-5.565 5.022-9.163h-1.221c-.027.13-.05.26-.08.39-.857 3.663-2.961 6.562-5.694 9.036-5.124 4.64-11.188 7.406-17.904 8.831-6.946 1.474-13.952 1.664-20.997.932-.834-.088-1.665-.187-2.499-.28l-.03-.178L137.35 10h-2.53c-19.01 10.092-38.023 20.181-57.028 30.283-.63.334-1.056.319-1.656-.08-11.132-7.376-22.28-14.726-33.426-22.082-.241-.16-.479-.327-.79-.54.289-.157.497-.279.714-.387 4.678-2.377 9.364-4.743 14.032-7.142.048-.024.088-.033.132-.052h-2.633c-14.429 7.325-28.858 14.65-43.29 21.974-.254.13-.502.275-.833.456.299.21.513.365.733.51 36.77 24.247 73.541 48.492 110.312 72.737L157.974 130h2.154c-12.61-8.316-25.217-16.633-37.827-24.948-.222-.146-.44-.298-.718-.487.31-.19.534-.334.764-.472 14.777-8.785 29.556-17.566 44.323-26.369.552-.33.906-.306 1.44.04 5.166 3.36 10.874 5.337 16.904 6.395 9.558 1.676 19.007 1.214 28.278-1.748 5.05-1.614 9.723-3.956 13.702-7.533 3.19-2.868 5.576-6.253 6.435-10.533.994-4.95-.445-9.306-3.416-13.243-1.769-2.34-3.968-4.22-6.38-5.864-.325-.222-.658-.436-1.082-.716l40.75-24.228c37.56 22.69 75.15 45.396 112.846 68.166l-6.894 4.703c-4.379 2.99-8.766 5.971-13.13 8.982-.502.346-.85.36-1.373.04-11.795-7.208-23.604-14.393-35.4-21.598-.484-.294-.805-.327-1.306 0a5351.09 5351.09 0 0 1-21.97 14.347c-.281.184-.69.338-1.004.285-5.161-.868-10.318-.726-15.478-.016-6.843.943-13.312 3.014-19.335 6.423-2.964 1.678-5.624 3.729-7.628 6.52-3.48 4.849-4.092 10.132-2.282 15.757l.24.745c-2.73 1.784-5.463 3.568-8.196 5.352h2.176c24.469-15.976 48.94-31.95 73.4-47.94.573-.374.944-.353 1.508-.008 11.35 6.938 22.714 13.854 34.076 20.775.23.141.457.291.8.51l-12.165 8.304c-7.055-4.28-14.103-8.546-21.133-12.842-.499-.304-.782-.146-1.174.11-13.193 8.618-26.392 17.23-39.59 25.842L272.246 130h2.173c15.13-9.874 30.264-19.747 45.387-29.635.571-.373.941-.355 1.504-.012 6.341 3.874 12.7 7.72 19.055 11.575.21.126.412.265.719.464L315.288 130z"/></g></g></svg>