<svg height="18" viewBox="0 0 49 18" width="49" xmlns="http://www.w3.org/2000/svg"><path d="m19 16.003v-13h25v13z" fill="#fff"/><path d="m1 9.003a8 8 0 1 1 16 0 8 8 0 0 1 -16 0z" fill="#fff"/><path d="m14.322 14.337a7.546 7.546 0 1 1 2.21-5.337 7.496 7.496 0 0 1 -2.21 5.336zm-5.299-14.214a8.877 8.877 0 1 0 0 17.755 8.877 8.877 0 0 0 0-17.755z" fill="#d0d0d0"/><path d="m11.98 9-5.52-3.184v6.373z" fill="#d0d0d0"/><path d="m1 9.003a8 8 0 1 1 16 0 8 8 0 0 1 -16 0z" fill="#fff"/><g fill="#f62e31"><path d="m14.322 14.337a7.546 7.546 0 1 1 2.21-5.337 7.496 7.496 0 0 1 -2.21 5.336zm-5.299-14.214a8.877 8.877 0 1 0 0 17.755 8.877 8.877 0 0 0 0-17.755z"/><path d="m38.581 12.403a.59.59 0 0 1 -.172-.455v-5.894a.59.59 0 0 1 .172-.455c.13-.113.3-.172.475-.162h3.767a.745.745 0 0 1 .47.131.45.45 0 0 1 .166.377.475.475 0 0 1 -.167.39.727.727 0 0 1 -.47.136h-3.098v1.96h2.89a.745.745 0 0 1 .47.132.466.466 0 0 1 .167.384.451.451 0 0 1 -.167.376.743.743 0 0 1 -.47.132h-2.89v2.083h3.099a.721.721 0 0 1 .47.136.475.475 0 0 1 .166.39.451.451 0 0 1 -.167.376.745.745 0 0 1 -.47.131h-3.766a.665.665 0 0 1 -.475-.168zm-1.716-7.025a.75.75 0 0 1 .47.161c.132.095.21.245.208.405a.654.654 0 0 1 -.063.253l-2.89 6.025a.67.67 0 0 1 -.29.299.856.856 0 0 1 -.825 0 .66.66 0 0 1 -.291-.299l-2.88-6.025a.61.61 0 0 1 -.063-.243.496.496 0 0 1 .214-.415.781.781 0 0 1 .485-.161.65.65 0 0 1 .33.085c.103.06.185.15.234.258l2.4 5.166 2.4-5.166a.57.57 0 0 1 .56-.343zm-8.655 7.065a.64.64 0 0 1 -.182-.475v-5.934a.615.615 0 0 1 .668-.647.681.681 0 0 1 .495.177.622.622 0 0 1 .182.47v5.934a.64.64 0 0 1 -.182.475.674.674 0 0 1 -.495.183.658.658 0 0 1 -.486-.183zm-5.806-.04a.59.59 0 0 1 -.167-.445v-5.926a.614.614 0 0 1 .668-.647.681.681 0 0 1 .495.177c.124.126.19.295.183.47v5.456h2.931c.418 0 .627.179.627.536s-.21.536-.627.536h-3.641a.647.647 0 0 1 -.469-.157zm26.58-3.644c-.262-3.903-3.738-6.863-7.767-6.612h-27.267c6.805 4.97 3.553 12.614-.901 14.27h28.164c.316.02.632.02.947 0 4.054-.315 7.094-3.726 6.823-7.658z"/><path d="m11.98 9-5.52-3.184v6.373z"/></g></svg>