<svg height="18" viewBox="0 0 51 18" width="51" xmlns="http://www.w3.org/2000/svg"><path d="m19 16.003v-13h25v13z" fill="#fff"/><path d="m1 9.003a8 8 0 1 1 16 0 8 8 0 0 1 -16 0z" fill="#fff"/><g fill="#d0d0d0"><path d="m14.322 14.337a7.546 7.546 0 1 1 2.21-5.337 7.496 7.496 0 0 1 -2.21 5.336zm-5.299-14.214a8.877 8.877 0 1 0 0 17.755 8.877 8.877 0 0 0 0-17.755z"/><path d="m38.544 12.403a.591.591 0 0 1 -.172-.455v-5.894a.59.59 0 0 1 .172-.455.665.665 0 0 1 .474-.162h3.76a.742.742 0 0 1 .468.131.45.45 0 0 1 .167.377.476.476 0 0 1 -.167.39.724.724 0 0 1 -.469.135h-3.093v1.962h2.885a.743.743 0 0 1 .469.131.466.466 0 0 1 .167.384.452.452 0 0 1 -.167.376.74.74 0 0 1 -.47.132h-2.884v2.083h3.093a.719.719 0 0 1 .47.136.476.476 0 0 1 .166.39.452.452 0 0 1 -.167.376.742.742 0 0 1 -.469.131h-3.76a.663.663 0 0 1 -.473-.168zm-1.714-7.025a.748.748 0 0 1 .469.161c.132.095.209.245.208.405a.655.655 0 0 1 -.063.253l-2.884 6.025a.67.67 0 0 1 -.291.299.852.852 0 0 1 -.823 0 .66.66 0 0 1 -.29-.299l-2.874-6.025a.61.61 0 0 1 -.063-.243.497.497 0 0 1 .213-.415.778.778 0 0 1 .484-.161.647.647 0 0 1 .329.085c.103.06.185.15.234.258l2.396 5.166 2.395-5.167a.569.569 0 0 1 .56-.343zm-8.638 7.065a.642.642 0 0 1 -.183-.475v-5.934a.614.614 0 0 1 .667-.647.68.68 0 0 1 .494.177c.125.126.191.295.182.47v5.934a.642.642 0 0 1 -.182.475.672.672 0 0 1 -.494.183.656.656 0 0 1 -.484-.183zm-5.796-.04a.59.59 0 0 1 -.166-.445v-5.926a.614.614 0 0 1 .666-.647.68.68 0 0 1 .495.177.63.63 0 0 1 .182.47v5.456h2.927c.417 0 .625.178.625.536 0 .357-.208.536-.625.536h-3.635a.644.644 0 0 1 -.468-.157zm27.686-3.646c-.082-4.271-3.715-7.64-8.115-7.557-.18.004-.362-.015-.541 0h-27.476c.856 0 4.509 3.115 4.509 8.606 0 4.891-4.765 7.557-5.778 7.557h28.44c.36.022.367-.002 1.119 0 4.606-.3 8.076-4.13 7.843-8.605z"/><path d="m38.581 12.403a.59.59 0 0 1 -.172-.455v-5.894a.59.59 0 0 1 .172-.455c.13-.113.3-.172.475-.162h3.767a.745.745 0 0 1 .47.131.45.45 0 0 1 .166.377.475.475 0 0 1 -.167.39.727.727 0 0 1 -.47.136h-3.098v1.96h2.89a.745.745 0 0 1 .47.132.466.466 0 0 1 .167.384.451.451 0 0 1 -.167.376.743.743 0 0 1 -.47.132h-2.89v2.083h3.099a.721.721 0 0 1 .47.136.475.475 0 0 1 .166.39.451.451 0 0 1 -.167.376.745.745 0 0 1 -.47.131h-3.766a.665.665 0 0 1 -.475-.168zm-1.716-7.025a.75.75 0 0 1 .47.161c.132.095.21.245.208.405a.654.654 0 0 1 -.063.253l-2.89 6.025a.67.67 0 0 1 -.29.299.856.856 0 0 1 -.825 0 .66.66 0 0 1 -.291-.299l-2.88-6.025a.61.61 0 0 1 -.063-.243.496.496 0 0 1 .214-.415.781.781 0 0 1 .485-.161.65.65 0 0 1 .33.085c.103.06.185.15.234.258l2.4 5.166 2.4-5.166a.57.57 0 0 1 .56-.343zm-8.655 7.065a.64.64 0 0 1 -.182-.475v-5.934a.615.615 0 0 1 .668-.647.681.681 0 0 1 .495.177.622.622 0 0 1 .182.47v5.934a.64.64 0 0 1 -.182.475.674.674 0 0 1 -.495.183.658.658 0 0 1 -.486-.183zm-5.806-.04a.59.59 0 0 1 -.167-.445v-5.926a.614.614 0 0 1 .668-.647.681.681 0 0 1 .495.177c.124.126.19.295.183.47v5.456h2.931c.418 0 .627.179.627.536s-.21.536-.627.536h-3.641a.647.647 0 0 1 -.469-.157zm26.58-3.644c-.262-3.903-3.738-6.863-7.767-6.612h-27.267c6.805 4.97 3.553 12.614-.901 14.27h28.164c.316.02.632.02.947 0 4.054-.315 7.094-3.726 6.823-7.658z"/><path d="m11.98 9-5.52-3.184v6.373z"/></g><path d="m19 16.003v-13h25v13z" fill="#fff"/><path d="m1 9.003a8 8 0 1 1 16 0 8 8 0 0 1 -16 0z" fill="#fff"/><g fill="#d0d0d0"><path d="m14.322 14.337a7.546 7.546 0 1 1 2.21-5.337 7.496 7.496 0 0 1 -2.21 5.336zm-5.299-14.214a8.877 8.877 0 1 0 0 17.755 8.877 8.877 0 0 0 0-17.755z"/><path d="m38.544 12.403a.591.591 0 0 1 -.172-.455v-5.894a.59.59 0 0 1 .172-.455.665.665 0 0 1 .474-.162h3.76a.742.742 0 0 1 .468.131.45.45 0 0 1 .167.377.476.476 0 0 1 -.167.39.724.724 0 0 1 -.469.135h-3.093v1.962h2.885a.743.743 0 0 1 .469.131.466.466 0 0 1 .167.384.452.452 0 0 1 -.167.376.74.74 0 0 1 -.47.132h-2.884v2.083h3.093a.719.719 0 0 1 .47.136.476.476 0 0 1 .166.39.452.452 0 0 1 -.167.376.742.742 0 0 1 -.469.131h-3.76a.663.663 0 0 1 -.473-.168zm-1.714-7.025a.748.748 0 0 1 .469.161c.132.095.209.245.208.405a.655.655 0 0 1 -.063.253l-2.884 6.025a.67.67 0 0 1 -.291.299.852.852 0 0 1 -.823 0 .66.66 0 0 1 -.29-.299l-2.874-6.025a.61.61 0 0 1 -.063-.243.497.497 0 0 1 .213-.415.778.778 0 0 1 .484-.161.647.647 0 0 1 .329.085c.103.06.185.15.234.258l2.396 5.166 2.395-5.167a.569.569 0 0 1 .56-.343zm-8.638 7.065a.642.642 0 0 1 -.183-.475v-5.934a.614.614 0 0 1 .667-.647.68.68 0 0 1 .494.177c.125.126.191.295.182.47v5.934a.642.642 0 0 1 -.182.475.672.672 0 0 1 -.494.183.656.656 0 0 1 -.484-.183zm-5.796-.04a.59.59 0 0 1 -.166-.445v-5.926a.614.614 0 0 1 .666-.647.68.68 0 0 1 .495.177.63.63 0 0 1 .182.47v5.456h2.927c.417 0 .625.178.625.536 0 .357-.208.536-.625.536h-3.635a.644.644 0 0 1 -.468-.157zm27.686-3.646c-.082-4.271-3.715-7.64-8.115-7.557-.18.004-.362-.015-.541 0h-27.476c.856 0 4.509 3.115 4.509 8.606 0 4.891-4.765 7.557-5.778 7.557h28.44c.36.022.367-.002 1.119 0 4.606-.3 8.076-4.13 7.843-8.605z"/><path d="m38.581 12.403a.59.59 0 0 1 -.172-.455v-5.894a.59.59 0 0 1 .172-.455c.13-.113.3-.172.475-.162h3.767a.745.745 0 0 1 .47.131.45.45 0 0 1 .166.377.475.475 0 0 1 -.167.39.727.727 0 0 1 -.47.136h-3.098v1.96h2.89a.745.745 0 0 1 .47.132.466.466 0 0 1 .167.384.451.451 0 0 1 -.167.376.743.743 0 0 1 -.47.132h-2.89v2.083h3.099a.721.721 0 0 1 .47.136.475.475 0 0 1 .166.39.451.451 0 0 1 -.167.376.745.745 0 0 1 -.47.131h-3.766a.665.665 0 0 1 -.475-.168zm-1.716-7.025a.75.75 0 0 1 .47.161c.132.095.21.245.208.405a.654.654 0 0 1 -.063.253l-2.89 6.025a.67.67 0 0 1 -.29.299.856.856 0 0 1 -.825 0 .66.66 0 0 1 -.291-.299l-2.88-6.025a.61.61 0 0 1 -.063-.243.496.496 0 0 1 .214-.415.781.781 0 0 1 .485-.161.65.65 0 0 1 .33.085c.103.06.185.15.234.258l2.4 5.166 2.4-5.166a.57.57 0 0 1 .56-.343zm-8.655 7.065a.64.64 0 0 1 -.182-.475v-5.934a.615.615 0 0 1 .668-.647.681.681 0 0 1 .495.177.622.622 0 0 1 .182.47v5.934a.64.64 0 0 1 -.182.475.674.674 0 0 1 -.495.183.658.658 0 0 1 -.486-.183zm-5.806-.04a.59.59 0 0 1 -.167-.445v-5.926a.614.614 0 0 1 .668-.647.681.681 0 0 1 .495.177c.124.126.19.295.183.47v5.456h2.931c.418 0 .627.179.627.536s-.21.536-.627.536h-3.641a.647.647 0 0 1 -.469-.157zm26.58-3.644c-.262-3.903-3.738-6.863-7.767-6.612h-27.267c6.805 4.97 3.553 12.614-.901 14.27h28.164c.316.02.632.02.947 0 4.054-.315 7.094-3.726 6.823-7.658z"/><path d="m11.98 9-5.52-3.184v6.373z"/></g></svg>