<svg height="24" viewBox="0 0 31 24" width="31" xmlns="http://www.w3.org/2000/svg"><g fill="#00acee"><path d="m30.883 10.433-11.796 4.922-3.567-4.627h1.957a3.929 3.929 0 0 0 3.14-.904c1.074-1.276 6.114-7.58 2.135-8.396-4.798-.98-14.355 6.187-15.246 6.849-.376.279-1.478.265-1.176-.016a41.401 41.401 0 0 1 2.368-2.03 36.12 36.12 0 0 1 4.929-3.29c.255-.137.496-.275.767-.41l.403-.206.425-.206c.276-.136.596-.273.898-.41.153-.069.325-.135.49-.198.164-.063.331-.135.514-.198a20.984 20.984 0 0 1 2.478-.783c.49-.121 1.03-.237 1.618-.33.287-.05.603-.082.905-.118.303-.037.614-.05.921-.07s.602-.012.88 0l.404.022c.135.008.27.015.38.03.415.041.826.115 1.229.22a4.526 4.526 0 0 1 1.446.64l.128.088.108.087c.07.06.154.119.209.18.118.113.228.236.328.365l.14.186.112.189c.072.122.135.248.189.38a5.328 5.328 0 0 1 .161 3.14 17.099 17.099 0 0 1 -1.744 4.208c-.253.428-.169.694.41.694z"/><path d="m0 13.569 11.746-4.931 3.589 4.633h-2.005c-1.566 0-2.438.153-3.113.9-1.075 1.275-6.113 7.58-2.136 8.395 4.798.981 14.355-6.187 15.246-6.848.376-.28 1.48-.264 1.176.015a40.131 40.131 0 0 1 -2.368 2.028 36.17 36.17 0 0 1 -4.929 3.291c-.255.137-.496.275-.767.41l-.403.206-.426.206c-.277.136-.595.273-.899.41-.153.069-.325.135-.49.204a8.18 8.18 0 0 1 -.513.198c-.81.313-1.637.575-2.478.784-.49.122-1.03.237-1.618.33-.287.05-.604.082-.906.118-.303.037-.614.05-.921.07a7.903 7.903 0 0 1 -.88 0l-.403-.022c-.135 0-.27-.015-.381-.03a7.773 7.773 0 0 1 -1.228-.22 4.546 4.546 0 0 1 -1.445-.639l-.129-.087-.107-.09c-.07-.06-.154-.12-.209-.177a3.506 3.506 0 0 1 -.33-.366l-.138-.186-.112-.187a3.032 3.032 0 0 1 -.19-.38 5.331 5.331 0 0 1 -.154-3.14 14.25 14.25 0 0 1 1.745-4.208c.252-.428-.049-.694-.727-.694z"/></g></svg>