<svg height="13" viewBox="0 0 73 13" width="73" xmlns="http://www.w3.org/2000/svg"><g fill="#888"><path d="m31.93 1.62c-.476.002-.867.334-.888.755v6.905l-6.867-7.206-.06-.05a1.646 1.646 0 0 0 -1.598-.252c-.536.16-.894.607-.888 1.108v7.61c.02.434.433.772.923.756.464-.016.835-.345.853-.756v-6.905l6.868 7.206.06.05c.43.356 1.055.454 1.597.254.531-.194.88-.65.888-1.16v-7.56c-.02-.42-.412-.753-.888-.756z"/><path d="m46.128 1.62h-10.22c-.475.001-.865.332-.887.751.022.42.412.75.886.752h4.195v7.37c.02.434.432.77.921.754.463-.016.833-.344.851-.754v-7.37h4.195c.475-.001.865-.332.886-.752.007-.41-.363-.746-.827-.752z"/><path d="m59.988 9.79-4.242-2.758c1.323.03 2.556-.587 3.211-1.605a2.156 2.156 0 0 0 0-2.255c-.647-.99-1.857-1.587-3.15-1.553h-7.393v8.874c.034.444.468.78.97.75.455-.026.817-.347.847-.75v-7.42h5.637c.61-.018 1.185.248 1.515.701a.9.9 0 0 1 0 .953c-.357.489-.979.774-1.636.752h-2.002c-.435-.006-.835.208-1.03.552-.171.345-.074.749.242 1.002l5.88 3.862c.394.248.933.205 1.272-.1a.57.57 0 0 0 .063-.873.688.688 0 0 0 -.184-.131z"/><path d="m72.762 1.896a1 1 0 0 0 -1.265 0l-4.044 3.368-4.104-3.419c-.353-.3-.911-.3-1.265 0-.33.254-.363.697-.076.988.023.024.05.047.076.068l4.467 3.718v3.87c.03.443.459.78.958.754.46-.024.825-.348.852-.754v-3.818l4.466-3.718a.791.791 0 0 0 -.065-1.057z"/></g><g fill="#b6b7b7"><path d="m.368 10.942c.136-.137 3.06-2.89 3.06-2.89a1.085 1.085 0 0 1 1.45-.07c.17.153.27.361.291.582a.842.842 0 0 1 -.24.654c-.066.065-3.226 3.044-3.226 3.044a1.044 1.044 0 0 1 -.762.316 1.054 1.054 0 0 1 -.714-.339.869.869 0 0 1 -.22-.714c.041-.226.126-.376.36-.583z"/><path d="m6.426 11.3c.136-.138 2.536-2.397 2.536-2.397a112.313 112.313 0 0 1 -2.527-2.39c-.267-.267-.377-.847.129-1.265.79-.571 1.42.157 1.42.157s2.04 1.918 2.417 2.285c.375.326.635.752.598 1.294 0 .37-.224.779-.397.956-.066.065-2.84 2.679-2.84 2.679a1.044 1.044 0 0 1 -.763.316 1.054 1.054 0 0 1 -.714-.338.869.869 0 0 1 -.219-.715c.04-.226.125-.375.36-.583z"/><path d="m8.16.833c.146.128 2.014 1.894 2.014 1.894.573-.525 1.382-1.285 2.69-2.525.273-.223.901-.356 1.343.12.602.674-.166 1.339-.166 1.339s-2.191 2.067-2.581 2.423c-.345.353-.798.597-1.372.563-.393 0-.827-.212-1.015-.374-.069-.062-2.035-1.92-2.035-1.92-.2.185-1.905 1.786-2.206 2.079-.302.293-.895.466-1.356.049-.5-.4-.397-1.044 0-1.356.564-.533 1.989-1.865 2.296-2.165.26-.282.68-.51 1.136-.534.498-.04.956.148 1.252.407z"/><path d="m12.046 11.657c0-.742.637-1.343 1.424-1.343s1.425.601 1.425 1.343-.638 1.343-1.425 1.343-1.424-.601-1.424-1.343z"/></g></svg>