<svg xmlns="http://www.w3.org/2000/svg" width="95" height="18" viewBox="0 0 95 18"><g><g><g><g><path fill="#8c8c8c" d="M4.578 3.016l-1.34 4.04c-.212.64.014 1.348.552 1.732l3.491 2.485zm6.384-1.578C10.508.821 9.622 0 8.115 0c-1.479 0-2.36.792-2.822 1.405l2.81 8.582zm1.478 7.35l-3.53 2.514 2.757-8.245 1.325 3.998c.212.64-.013 1.35-.552 1.733"/></g><g><path fill="#8c8c8c" d="M1.538 15.694h2.835v-.78H1.538zM4.57 18v-.927H.884v-3.451h3.679v-.927H-.003V18z"/></g><g><path fill="#8c8c8c" d="M7.673 17.073c-.922 0-1.59-.737-1.59-1.736 0-1.008.675-1.715 1.59-1.715h1.245c.943 0 1.611.715 1.611 1.715s-.668 1.736-1.61 1.736zM8.918 18c1.457 0 2.505-1.168 2.505-2.707 0-1.54-1.027-2.598-2.505-2.598H7.673c-1.428 0-2.483 1.036-2.483 2.598C5.19 16.833 6.245 18 7.673 18z"/></g><g><path fill="#8c8c8c" d="M12.147 18v-.927h3.834c.478 0 .746-.277.746-.693 0-.452-.268-.686-.746-.686h-2.35c-.964 0-1.562-.635-1.562-1.51 0-.854.556-1.49 1.576-1.49h3.673v.928h-3.673c-.408 0-.647.248-.647.65 0 .4.246.641.64.641h2.343c1.034 0 1.59.504 1.59 1.533 0 .89-.52 1.554-1.59 1.554z"/></g></g><g><g><text dominant-baseline="text-before-edge" style="font-kerning:normal" fill="#bebebe" font-family="'Arial','Arial-BoldMT'" font-size="11" font-style="none" font-weight="700" transform="translate(23 5)"><tspan>POWERBALL</tspan></text></g></g></g></g></svg>