<svg height="25" viewBox="0 0 24 25" width="24" xmlns="http://www.w3.org/2000/svg"><path d="m-.001 25v-25h24v25z" fill="#bebebe"/><path d="m7.393 9.064c-.026.156-.072.437-.121.719-.008.044-.03.087-.048.128-.134.305-.354.459-.642.451-.375-.01-.629-.17-.731-.499a2.852 2.852 0 0 1 -.109-.618c-.029-.37-.032-.743.057-1.107.135-.554.579-.677 1.003-.577.214.051.34.213.425.406.136.308.145.638.166 1.097zm-3.783 2.805c.017.007.024.012.03.012l1.936-.003-.005-.77s.161.215.208.259c.099.09.192.19.302.265.613.42 1.282.452 1.965.23.62-.202.999-.672 1.221-1.26.363-.96.365-1.946.121-2.934a2.422 2.422 0 0 0 -.803-1.32c-.708-.592-2.127-.597-2.788.35-.03.042-.071.075-.107.113l-.036-.02c0-1.186.005-1.946.022-2.918h-2.065v7.996z" fill="#fafafa"/><g fill="#e8e8e8"><path d="m12.987 18.9c-.088.25-.286.398-.559.435-.274.037-.51-.043-.675-.264a1.165 1.165 0 0 1 -.21-1.04c.16-.583.835-.657 1.195-.46.208.114.283.311.32.524.017.09.017.184.025.275l.017.004c-.036.176-.054.358-.113.527zm-1.686-2.113c.019-.143.032-.287.058-.43.126-.69.527-1.135 1.246-1.301.335-.078.674-.1 1.015-.086.343.014.684.043 1.028.065v-1.515l-.144-.021c-.05-.006-.099-.009-.148-.015-.752-.085-1.5-.07-2.24.095-1.184.267-2.01.932-2.428 2.044-.174.46-.258.94-.295 1.427-.047.601-.053 1.203.105 1.793.249.921.798 1.598 1.76 1.9.737.232 1.49.228 2.227 0 .806-.248 1.334-.776 1.56-1.565.173-.599.164-1.205-.015-1.802a1.877 1.877 0 0 0 -.93-1.16c-.317-.173-.664-.242-1.024-.257-.703-.03-1.29.173-1.675.78-.014.024-.036.043-.054.064z"/><path d="m20.806 13.547v1.631h-.136c-.813 0-1.626.002-2.439-.002-.096 0-.13.02-.137.12-.018.272-.052.543-.082.831l.213-.03c.667-.102 1.323-.091 1.934.23.701.367 1.063.954 1.161 1.703.058.441.023.877-.127 1.299-.26.728-.812 1.158-1.558 1.383-.495.148-1.005.193-1.52.192-.692-.002-1.377-.062-2.032-.3-.237-.085-.238-.085-.238-.33v-1.367c.206.069.402.141.603.198.564.159 1.134.285 1.728.235.133-.011.267-.036.393-.076.401-.129.604-.412.603-.82 0-.384-.214-.664-.613-.788-.431-.132-.87-.11-1.307-.034-.09.016-.185.026-.268.06-.157.062-.291.034-.433-.042-.157-.085-.323-.153-.487-.223-.062-.026-.085-.057-.08-.123.036-.423.067-.846.1-1.269l.106-1.346.09-1.132z"/><path d="m6.723 16.975c.314.087.638.149.94.265.702.27 1.037.796 1.023 1.524-.017.86-.493 1.413-1.264 1.77-.48.223-.994.317-1.52.351-.722.048-1.44.016-2.146-.153-.226-.054-.447-.126-.668-.197-.035-.012-.08-.062-.081-.094-.005-.502-.003-1.004-.003-1.506 0-.01.005-.021.01-.048.037.014.071.024.104.038.735.32 1.503.478 2.31.41.204-.016.41-.065.6-.136.27-.102.384-.32.384-.599 0-.28-.12-.48-.39-.594-.304-.128-.628-.16-.953-.173-.272-.01-.543-.002-.822-.002v-1.485h.18c.406.002.815.011 1.21-.09.171-.044.343-.113.49-.206.226-.143.278-.37.223-.617-.031-.142-.133-.239-.268-.3a1.473 1.473 0 0 0 -.798-.105c-.527.06-.64.102-1.378.453l-.889-1.308c.261-.17.534-.307.821-.419.696-.27 1.424-.333 2.164-.316.494.011.978.076 1.431.275.47.206.837.507.971 1.01.184.688-.098 1.397-.72 1.83-.262.18-.551.302-.857.392-.036.01-.072.023-.107.035-.003.001-.004.006.003-.005z"/></g><g fill="#fafafa"><path d="m12.615 8.228c.023-.308.108-.584.38-.756.331-.21.684-.22 1.022-.025.29.168.395.449.403.781zm3.73 1.284c.006-.027.011-.042.01-.057-.01-.45.012-.906-.037-1.353-.101-.91-.573-1.573-1.438-1.914-.774-.306-1.579-.32-2.384-.142-.97.215-1.62.8-1.916 1.752a4.086 4.086 0 0 0 -.112 1.875c.1.627.365 1.173.857 1.592.552.469 1.21.666 1.916.703.416.021.835.001 1.252-.02.482-.026.943-.15 1.383-.349.063-.028.082-.063.082-.13-.003-.425-.002-.85-.002-1.275 0-.025-.003-.05-.004-.074-.02.002-.027.002-.034.004a2.434 2.434 0 0 0 -.106.043c-.635.276-1.3.401-1.991.382-.32-.009-.624-.075-.883-.279-.24-.189-.358-.439-.369-.758z"/><path d="m21.346 10.196v.16c0 .402.002.804-.003 1.206 0 .042-.029.11-.062.123-.809.32-1.64.403-2.489.203-.673-.159-1.016-.631-1.131-1.285a3.786 3.786 0 0 1 -.053-.639c-.006-.77-.003-1.539-.003-2.309 0-.026-.002-.052-.004-.09h-.744v-.27l.003-1.28.773.005v-.517l2.109-.628v1.165h1.504v1.513h-1.499v2.233c0 .057 0 .116.008.172.045.276.22.422.51.43.321.01.63-.061.935-.154.043-.013.087-.023.146-.039z"/></g></svg>