<svg height="34" viewBox="0 0 81 34" width="81" xmlns="http://www.w3.org/2000/svg"><g fill="#bebebe"><path d="m64.136 2.286a11.71 11.71 0 0 0 -.5 6.361c.084.518-.215.582-.595.644a14.71 14.71 0 0 0 -4.697 1.397c-.57.302-.707-.039-.872-.42-.816-2.126-2.227-4.006-4.085-5.441 2.062.068 3.443 1.236 4.892 2.875a30.246 30.246 0 0 1 -.632-7.702 26.984 26.984 0 0 1 3.826 6.88c.437-1.913.877-3.605 2.663-4.594z"/><path d="m64.467 32.577c-6.152-.202-10.974-5.316-10.77-11.424.202-6.108 5.353-10.896 11.504-10.694 6.152.201 10.975 5.316 10.772 11.424l-.003.06c-.287 6.06-5.396 10.783-11.503 10.634zm-12.57-11.163-.001.076c.073 6.982 5.834 12.583 12.866 12.51 6.91-.073 12.502-5.604 12.598-12.466.003-6.874-5.608-12.448-12.53-12.45-.08 0-.16 0-.24.002-6.934-.076-12.617 5.443-12.693 12.328z"/><path d="m68.913 18.024a5.612 5.612 0 0 1 -3.935-1.778 2.34 2.34 0 0 1 -.573-2.49 2.278 2.278 0 0 1 2.163-1.32 4.977 4.977 0 0 1 3.945 1.455 2.347 2.347 0 0 1 .84 2.733c-.48 1.12-1.515 1.254-2.44 1.4z"/></g><g fill="#5a5a5a"><path d="m1.59 19.354c.283-.016.566.02.836.108a.873.873 0 0 1 .408.37c.103.169.157.363.155.56.003.201-.05.4-.155.571a.875.875 0 0 1 -.428.371c-.279.092-.572.132-.866.116h-.968v-2.073zm-1.589 5.544h.572v-2.848h.407c.488.02.976-.012 1.456-.096.333-.076.63-.265.84-.534.21-.293.318-.649.303-1.01a1.589 1.589 0 0 0 -.311-1.008c-.2-.262-.483-.45-.803-.53a6.004 6.004 0 0 0 -1.325-.096h-1.14z"/><path d="m6.965 19.36c.273-.017.547.02.807.108a.85.85 0 0 1 .395.371c.1.169.152.363.15.562.002.2-.05.4-.15.571a.837.837 0 0 1 -.41.372 2.116 2.116 0 0 1 -.815.118h-.946v-2.084zm-1.516 5.549h.547v-2.85h.314l1.971 2.85h.68l-1.975-2.85c.37.017.74-.049 1.085-.192.253-.123.463-.325.601-.578.144-.268.217-.573.21-.88a1.645 1.645 0 0 0 -.306-1.011 1.42 1.42 0 0 0 -.793-.54 5.925 5.925 0 0 0 -1.238-.081h-1.096z"/><path d="m14.006 22.3h-1.876l.94-2.226zm-.993-3.527-2.6 6.125h.612l.854-2.02h2.364l.865 2.02h.591l-2.557-6.125z"/><path d="m22.802 19.801-.447.448a3.465 3.465 0 0 0 -1.063-.763 2.754 2.754 0 0 0 -1.127-.26 2.573 2.573 0 0 0 -1.3.372 2.48 2.48 0 0 0 -.954.96 2.618 2.618 0 0 0 .012 2.59c.226.407.563.746.973.977.41.243.88.371 1.356.371a2.227 2.227 0 0 0 1.503-.534c.417-.35.686-.842.751-1.378h-1.85v-.608h2.499a3.17 3.17 0 0 1 -.8 2.248 2.773 2.773 0 0 1 -2.112.834 3.103 3.103 0 0 1 -2.547-1.152 3.168 3.168 0 0 1 -.721-2.057 3.296 3.296 0 0 1 .413-1.619 3.055 3.055 0 0 1 1.127-1.17 3.17 3.17 0 0 1 1.631-.423 3.51 3.51 0 0 1 1.39.282 4.16 4.16 0 0 1 1.266.882z"/><path d="m24.471 24.897.827-6.125h.097l2.346 5.024 2.327-5.024h.097l.831 6.125h-.565l-.572-4.38-2.036 4.38h-.15l-2.066-4.403-.566 4.415z"/><path d="m35.933 22.3h-1.968l.987-2.226zm-1.037-3.528-2.717 6.126h.642l.898-2.02h2.474l.891 2.02h.622l-2.683-6.126z"/><path d="m38.624 19.374v-.602h3.09v.602h-1.256v5.531h-.578v-5.531z"/><path d="m43.08 18.772h.613v6.126h-.613z"/><path d="m50.971 19.924-.452.37a2.554 2.554 0 0 0 -.905-.783 2.5 2.5 0 0 0 -1.163-.27c-.915.019-1.75.52-2.19 1.31-.22.409-.33.865-.322 1.327-.017.685.243 1.349.722 1.846a2.43 2.43 0 0 0 1.824.739 2.519 2.519 0 0 0 2.035-1.001l.452.369c-.279.38-.649.69-1.076.898-.448.217-.941.326-1.44.317a2.93 2.93 0 0 1 -2.39-1.063 3.328 3.328 0 0 1 -.747-2.172 3.1 3.1 0 0 1 .892-2.256 2.97 2.97 0 0 1 2.243-.916 3.12 3.12 0 0 1 1.458.34c.429.221.793.547 1.06.945z"/><path d="m57.033 19.354c.282-.016.564.02.832.108a.835.835 0 0 1 .407.37c.103.169.157.363.155.56.003.202-.05.4-.155.572a.859.859 0 0 1 -.426.37c-.278.093-.57.132-.863.116h-.965v-2.073zm-1.585 5.529h.571v-2.847h.408c.487.02.974-.013 1.453-.096a1.5 1.5 0 0 0 .833-.534 1.81 1.81 0 0 0 -.008-2.018 1.451 1.451 0 0 0 -.799-.515 5.971 5.971 0 0 0 -1.321-.097h-1.137z"/><path d="m60.136 18.772h.568v5.532h2.192v.593h-2.76z"/><path d="m67.77 22.3h-1.984l.994-2.226zm-1.067-3.528-2.735 6.126h.648l.903-2.02h2.502l.91 2.02h.629l-2.71-6.126z"/><path d="m69.977 18.772h.659l1.481 2.527 1.44-2.527h.658l-1.822 3.205v2.928h-.563v-2.928z"/><path d="m77.651 19.215v-.188h.997v.188h-.406v1.68h-.185v-1.68z"/><path d="m78.928 20.897.261-1.867h.03l.758 1.533.732-1.533h.03l.261 1.867h-.178l-.178-1.333-.644 1.333h-.05l-.647-1.344-.181 1.344z"/></g></svg>