<svg height="35" viewBox="0 0 84 35" width="84" xmlns="http://www.w3.org/2000/svg"><path d="m42.227 10.482v12.128l11.258 6.706 11.623-6.706v-12.52l-11.623-5.93-3.203 1.83-1.16-3.168-2.078 4.88z" fill="#b9baba"/><path d="m53.525 16.478 4.275-2.337 2.096-6.701.99 5.014 4.222-2.309v12.545l-11.583 6.65z" fill="#989a9a"/><path d="m53.588 16.41-11.36-5.96v12.125l11.284 6.702z" fill="#cacbcb"/><g fill="#989a9a"><path d="m48.104 18.62h4.139v2.355z"/><path d="m47.818 16.933h-4.335l-1.11-2.002z" transform="matrix(.87461971 .48480962 -.48480962 .87461971 13.399067 -19.810348)"/><path d="m43.838 20.183s1.2-.946 2.961-.35c1.764.595 3.356 2.456 4.051 4.618.03.17-.053.335-.252.36-.304.076-.416-.27-.416-.27s-1.252-3.379-3.244-4.031c-1.996-.653-2.785.205-2.785.205s-.223.226-.445 0c-.225-.226.13-.532.13-.532z"/><path d="m64.948 20.925s5.428 2.223 5.431 5.81c.006 3.586-4.535 5.95-10.312 6.288-.025 1.847.059 1.976.059 1.976l-5.096-2.804 5.037-2.643v1.957s8.914-.81 8.615-4.774c-.3-3.105-4.351-4.007-4.351-4.007z"/></g><path d="m60.053 29.555v2.006l-5.029.629z" fill="#cacbcb"/><path d="m36.5 10.481v12.129l-11.257 6.707-11.624-6.707v-12.52l11.624-5.93z" fill="#b9baba"/><path d="m25.203 16.478-11.584-6.333v12.545l11.584 6.65z" fill="#989a9a"/><path d="m25.14 16.471 11.36-5.959v12.125l-11.284 6.702z" fill="#cacbcb"/><path d="m28.192 23.579s1.805.723 3.424.005c1.62-.718 2.355-1.854 2.989-3.753.028-.148-.047-.293-.23-.315-.28-.065-.381.238-.381.238s-.49 2.548-2.418 3.254c-1.928.707-3.095.104-3.095.104s-.205-.198-.409 0c-.205.197.12.467.12.467z" fill="#989a9a" transform="matrix(.99756405 .06975647 -.06975647 .99756405 1.575279 -2.110078)"/><path d="m24.947 1.11c3.686 0 6.684 1.41 6.684 3.143 0 .84-.695 1.63-1.957 2.223-1.263.594-2.941.921-4.727.921-1.785 0-3.464-.327-4.727-.92-1.262-.594-1.958-1.384-1.958-2.224 0-1.733 3-3.144 6.685-3.144zm5.873 6.15c.762-.39 1.361-.845 1.78-1.352.433-.524.652-1.081.652-1.656 0-.574-.22-1.131-.653-1.655-.418-.507-1.017-.962-1.78-1.353-1.567-.802-3.653-1.244-5.871-1.244s-4.304.442-5.872 1.245c-.763.391-1.362.846-1.78 1.353-.433.524-.653 1.081-.653 1.655 0 .575.22 1.132.653 1.656.418.507 1.017.962 1.78 1.352 1.568.804 3.654 1.246 5.872 1.246s4.304-.442 5.873-1.246z" fill="#f1f2f2"/><path d="m25.465 18.768s-1.33 1.673-3.908 1.718c-1.514.146-3.828-.892-4.133-1.099-.074.859.541 2.229 1.563 2.715 1.02.486 2.57.452 2.57.452s-2.354.885-1.389 1.072c.967.189 2.358 0 2.358 0s-1.323.822 0 .684c1.32-.138 2.1-.935 2.1-.935s-.73 1.255 0 .935c.726-.32.84-.935.84-.935z" fill="#cacbcb"/><path d="m33.228 12.813s1.329 1.672 3.909 1.718c1.512.146 3.826-.891 4.132-1.099.075.858-.54 2.229-1.562 2.715s-2.57.453-2.57.453 2.354.884 1.387 1.072c-.966.188-2.356 0-2.356 0s1.321.82 0 .683c-1.322-.137-2.099-.935-2.099-.935s.728 1.256 0 .935c-.727-.32-.84-.935-.84-.935z" fill="#cacbcb" transform="matrix(.81915204 -.57357644 .57357644 .81915204 -2.379908 23.451895)"/><path d="m28.099 18.78c0-.784.362-1.419.81-1.419.447 0 .81.635.81 1.418s-.363 1.418-.81 1.418c-.448 0-.81-.635-.81-1.418z" fill="#989a9a"/><path d="m32.555 16.76c0-.783.363-1.418.81-1.418.448 0 .81.635.81 1.418s-.362 1.418-.81 1.418c-.447 0-.81-.635-.81-1.418z" fill="#989a9a"/><g fill="#888"><path d="m10.15 12.12v2.672h-5.955v1.995h5.953v4.615h-1.388v1.867h-8.76v-2.846h6.203v-.86h-6.202v-5.637h1.578v-1.805z"/><path d="m15.683 12.16v4.096l3.71-4.095h2.227v1.702l-3.164 3.17h2.395l.77.837v5.396h-4.349v-3.728h-1.59v3.728h-4.558v-11.105"/><path d="m78.052 12.12v4.423l3.965-4.422h1.983v1.825l-2.992 3.048h2.222l.77.836v5.396h-4.05v-3.729h-1.9v3.729h-4.374v-11.105"/><path d="m22.423 12.12v7.42h3.033v3.68h4.045v-3.68h3.08v-7.42h-4.428v4.97h-1.55v-4.97z"/><path d="m46.158 14.912v2.13h-1.72v-2.13zm-1.856 4.566h6.084v-5.697h-1.714v-1.66h-8.441v11.016h4.07z"/><path d="m68.86 14.815v2.274h-2.13v-2.274zm-2.12 8.323v-3.65h2.076v3.65h3.995v-4.206h-1.633v-1.07h1.633v-4.12h-1.633v-1.622h-8.445v11.017h4.007z"/><path d="m57.462 14.812v2.274h-1.875v-2.274zm-1.837 8.323-.028-3.667h1.772v3.667h4.266l.028-11.014h-8.71v1.673h-1.6v9.34z"/></g><g fill="#fff"><path d="m9.713 12.446v1.92h-6.02v2.852h6.02v3.822h-1.453v1.842h-7.79v-2.067h6.188v-1.652h-6.187v-4.797h1.562v-1.92z"/><path d="m9.713 12.446v1.92h-6.02v2.852h6.02v3.822h-1.453v1.842h-7.79v-2.067h6.188v-1.652h-6.187v-4.797h1.562v-1.92z"/><path d="m11.537 12.446h3.7v4.848l4.335-4.848h1.645v1.33l-3.47 3.518h2.79l.68.729v4.851h-3.47v-3.668h-2.51v3.668h-3.7z"/><path d="m74.037 12.446h3.7v4.848l4.335-4.848h1.645v1.33l-3.47 3.518h2.79l.68.729v4.851h-3.47v-3.668h-2.51v3.668h-3.7z"/><path d="m22.738 12.446v6.795h3.111v3.662h3.292v-3.662h3.097v-6.795h-3.798v4.92h-2.177v-4.92z"/><path d="m46.509 14.54v2.836h-2.431v-2.836zm-2.554 8.316v-3.662h6.122v-5.147h-1.73v-1.601h-7.733v10.41z"/><path d="m69.163 14.54v2.836h-2.739v-2.836zm-2.77 8.317v-3.663h2.775v3.663h3.346v-3.663h-1.63v-1.547h1.63v-3.6h-1.63v-1.601h-7.834v10.41l3.34.001h.001z"/><path d="m57.723 14.54v2.837h-2.447v-2.837zm-2.451 8.316v-3.69h2.48v3.69h3.57v-10.44h-8.057v1.66h-1.563v8.78z"/></g></svg>