<svg height="11" viewBox="0 0 66 11" width="66" xmlns="http://www.w3.org/2000/svg"><g fill="#8c8c8c"><path d="m10.832 1.015v9.134h7.405v-1.579h-5.505v-2.345h3.54v-1.462h-3.605v-2.225h5.57v-1.523z"/><path d="m17.745 2.941h1.966l1.703 4.784 1.508-4.784h2.162l-2.818 7.209h-1.703z"/><path d="m30.067 6.503c0 1.193-.748 2.159-1.672 2.159-.923 0-1.672-.966-1.672-2.159 0-1.192.749-2.159 1.672-2.159.924 0 1.672.967 1.672 2.159zm-1.672-3.693a3.768 3.768 0 1 0 0 7.536 3.768 3.768 0 0 0 0-7.536z"/><path d="m55.153 4.344c.923 0 1.672.967 1.672 2.159 0 1.193-.749 2.159-1.672 2.159-.924 0-1.672-.966-1.672-2.159 0-1.192.748-2.159 1.672-2.159zm0-1.534a3.768 3.768 0 1 0 0 7.536 3.768 3.768 0 0 0 0-7.536z"/><path d="m8.869 5.962s.037-3.242-2.95-5.185c-3.193-1.499-5.921-.367-5.921-.367s.636 3.102 2.609 4.3c1.633.99 3.797 1.253 4.321 1.253z"/><path d="m8.869 5.038s.037 3.243-2.95 5.185c-3.194 1.499-5.922.368-5.922.368s.636-3.101 2.609-4.299c1.633-.99 3.797-1.254 4.321-1.254z"/><path d="m32.96 10.15v-9.134h1.966v9.134z"/><path d="m48.463 10.15v-6.593h1.966v6.593z"/><path d="m35.984 2.81v5.21s.295 2.13 2.654 2.13c1.671 0 1.933-1.05 1.933-1.05v1.05h2.032v-7.34h-2.13v4.03s.098 1.868-1.18 1.868c-1.605 0-1.343-1.933-1.343-1.933v-3.965z"/><path d="m65.997 10.15v-5.21s-.295-2.13-2.653-2.13c-1.672 0-1.934 1.048-1.934 1.048v-1.048h-2.03v7.34h2.13v-3.794s-.099-1.868 1.18-1.868c1.605 0 1.342 1.933 1.342 1.933v3.727z"/><path d="m44.322 2.61v1.018h-1.147v1.572h1.147v3.523s.065 1.426 1.605 1.426h1.54v-1.455h-.95s-.459.116-.459-.699v-2.765h1.54v-1.6h-1.441v-2.157z"/><path d="m48.332 2.982v-1.966h2.228v1.966z"/></g></svg>