<svg height="17" viewBox="0 0 10 17" width="10" xmlns="http://www.w3.org/2000/svg" xmlns:xlink="http://www.w3.org/1999/xlink"><linearGradient id="a" gradientUnits="userSpaceOnUse" x1="2.85" x2="8.4" y1=".73" y2="10.35"><stop offset="0" stop-color="#1cacee"/><stop offset="1" stop-color="#2896d8"/></linearGradient><linearGradient id="b" gradientUnits="userSpaceOnUse" x1="1.91" x2="6.05" y1="7.22" y2="17"><stop offset="0" stop-color="#378ed0"/><stop offset="1" stop-color="#1aa2e5"/></linearGradient><path d="m5.066 9.017c.385-.055.413-.085.585 0 .14.077.471.35.475.851v.858s.045.488-.61.508c-.654.02-1.284.102-2.343-.383-1.059-.486-1.948-1.487-2.254-2.533-.27-.959-.202-1.29-.202-1.29v-2.98s.027-1.295.829-2.308c.683-.973 1.946-1.74 3.42-1.74 1.472 0 2.741.709 3.451 1.741.708 1.034.872 1.738.872 2.309v1.61s.03.343-.164.458c-.196.115-.306.155-.546 0a7.328 7.328 0 0 0 -1.275-.884c-.074-.029-.265-.13-.273-.43.006-.357.14-1.197-.589-1.947-.753-.788-2.066-.818-2.893 0-.583.557-.589 1.334-.589 1.334v2.955s.156 1.798 2.106 1.872z" fill="url(#a)"/><path d="m5.065 14.765c.386-.055.413-.086.585 0 .141.077.47.348.472.85.003.502 0 .86 0 .86s.047.487-.608.507c-.653.019-1.283.1-2.343-.384-1.059-.485-1.948-1.486-2.252-2.532-.27-.96-.203-1.29-.203-1.29v-2.98s.026-1.297.829-2.307c.683-.974 1.946-1.742 3.42-1.742 1.473 0 2.742.709 3.45 1.742.71 1.033.872 1.736.872 2.307v1.611s.03.343-.164.458c-.196.115-.305.156-.545 0a7.32 7.32 0 0 0 -1.277-.884c-.073-.03-.262-.13-.27-.43.004-.358.14-1.197-.589-1.949-.754-.787-2.069-.816-2.895 0-.583.559-.588 1.336-.588 1.336v2.955s.156 1.797 2.106 1.872z" fill="url(#b)" transform="matrix(-1 0 0 -1 10 22)"/></svg>