<svg xmlns="http://www.w3.org/2000/svg" width="32" height="22" viewBox="0 0 32 22"><g><g><path fill="#1dacee" d="M26.375 20.167c-2.031 0-3.75-1.668-3.75-3.667 0-.847.303-1.693.962-2.42l2.01 2.93a.95.95 0 0 0 1.3.25.903.903 0 0 0 .256-1.27l-2.01-2.93c.453-.156.755-.227 1.232-.227 2.068 0 3.75 1.645 3.75 3.667s-1.682 3.667-3.75 3.667zm-20.75-1.84h3.24a3.783 3.783 0 0 1-3.24 1.84c-2.068 0-3.75-1.645-3.75-3.667s1.682-3.667 3.75-3.667c.417 0 .818.081 1.204.21l.328.48a2.635 2.635 0 0 0 2.183 1.144H5.625c-1.036 0-1.875.82-1.875 1.833s.84 1.827 1.875 1.827zM26.375 11c-.77 0-1.6.183-2.304.495l-.856-1.247a8.308 8.308 0 0 1 4.098-1.081c.518 0 .937-.41.937-.917V6.417C28.25 2.879 25.306 0 21.688 0h-1.875a.927.927 0 0 0-.938.917c0 .506.42.916.938.916h.937v1.834h-2.812a.944.944 0 0 0-.78.408L16.186 5.5H8.314l-.47-.69A2.635 2.635 0 0 0 5.66 3.667H.938A.927.927 0 0 0 0 4.583C0 6.94 1.827 8.885 4.167 9.14l1.28 1.879C2.43 11.112 0 13.527 0 16.5 0 19.533 2.523 22 5.625 22c2.399 0 4.505-1.506 5.29-3.667h5.64c1.246 0 2.33-.868 2.573-2.063l.132-.65c.346-1.686 1.243-3.145 2.462-4.26l.794 1.158C21.38 13.573 20.75 15.03 20.75 16.5c0 2.96 2.545 5.5 5.625 5.5C29.477 22 32 19.533 32 16.5S29.477 11 26.375 11z"/></g></g></svg>