<svg height="22" viewBox="0 0 27 22" width="27" xmlns="http://www.w3.org/2000/svg"><g fill="#00acee"><path d="m22.84 1.952c-2.508-1.259-5.825-1.952-9.34-1.952s-6.832.693-9.34 1.952c-2.683 1.346-4.16 3.2-4.16 5.22s1.477 3.875 4.16 5.221c2.508 1.26 5.825 1.952 9.34 1.952s6.832-.693 9.34-1.952c2.683-1.346 4.16-3.2 4.16-5.22s-1.477-3.875-4.16-5.221z"/><path d="m23.548 13.814c-2.724 1.367-6.292 2.12-10.048 2.12s-7.324-.753-10.048-2.12c-1.447-.726-2.607-1.597-3.452-2.59v3.603c0 2.02 1.477 3.875 4.16 5.22 2.508 1.261 5.825 1.953 9.34 1.953s6.832-.693 9.34-1.952c2.683-1.346 4.16-3.2 4.16-5.22v-3.604c-.845.993-2.005 1.864-3.452 2.59z"/></g></svg>