<svg height="35" viewBox="0 0 80 35" width="80" xmlns="http://www.w3.org/2000/svg"><g fill="#a5a5a5"><path d="m63.313 3.005a12.684 12.684 0 0 0 -.48 6.496c.08.529-.206.594-.57.657-1.575.207-3.1.69-4.507 1.427-.547.308-.679-.04-.837-.43a12.824 12.824 0 0 0 -3.919-5.555c1.978.07 3.303 1.262 4.693 2.936a32.808 32.808 0 0 1 -.605-7.864 28.106 28.106 0 0 1 3.67 7.024c.419-1.952.841-3.68 2.555-4.69z"/><path d="m63.724 33.267c-6.027-.199-10.75-5.245-10.552-11.271.2-6.027 5.245-10.752 11.272-10.553s10.751 5.246 10.552 11.273l-.002.06c-.28 5.979-5.286 10.639-11.27 10.491zm.12-23.178c-6.793-.075-12.36 5.37-12.435 12.163v.076c.071 6.889 5.715 12.415 12.604 12.343 6.77-.071 12.248-5.53 12.343-12.3.002-6.782-5.495-12.282-12.276-12.284-.08 0-.157 0-.235.002z"/><path d="m68.044 18.836a5.788 5.788 0 0 1 -4.06-1.834 2.414 2.414 0 0 1 -.59-2.568 2.35 2.35 0 0 1 2.231-1.362 5.133 5.133 0 0 1 4.07 1.5 2.42 2.42 0 0 1 .866 2.82c-.496 1.154-1.564 1.293-2.517 1.444z"/></g><g fill="#585858"><path d="m1.572 20.165c.28-.016.56.02.825.107a.864.864 0 0 1 .404.367c.102.166.156.359.154.554.003.2-.05.395-.154.565a.865.865 0 0 1 -.422.367c-.276.092-.566.13-.856.115h-.958v-2.052zm-1.571 5.488h.565v-2.818h.403a6.81 6.81 0 0 0 1.439-.095c.33-.075.622-.263.83-.529.208-.29.314-.642.3-.999a1.575 1.575 0 0 0 -.308-.998 1.437 1.437 0 0 0 -.794-.525 5.923 5.923 0 0 0 -1.31-.095h-1.126z"/><path d="m6.892 20.17c.282-.017.565.02.833.107a.863.863 0 0 1 .407.367c.104.166.157.358.154.554.003.199-.05.395-.154.565a.852.852 0 0 1 -.422.367c-.27.092-.555.132-.84.117h-.977v-2.059zm-1.562 5.482h.564v-2.815h.324l2.033 2.815h.701l-2.037-2.815c.382.016.764-.049 1.12-.19.26-.122.477-.32.62-.57.148-.266.223-.567.216-.871.012-.36-.1-.711-.316-.999a1.468 1.468 0 0 0 -.817-.532 6.374 6.374 0 0 0 -1.278-.081h-1.13z"/><path d="m13.92 23.083h-1.934l.969-2.202zm-1.025-3.49-2.682 6.06h.632l.88-1.997h2.44l.892 1.997h.61l-2.639-6.06z"/><path d="m22.51 20.608-.437.444a3.385 3.385 0 0 0 -1.038-.756 2.658 2.658 0 0 0 -1.101-.257 2.487 2.487 0 0 0 -1.27.367 2.44 2.44 0 0 0 -.932.951 2.622 2.622 0 0 0 .011 2.565c.222.405.551.74.952.97.4.24.858.367 1.324.367a2.157 2.157 0 0 0 1.468-.53c.408-.345.67-.833.734-1.364h-1.807v-.603h2.44a3.167 3.167 0 0 1 -.781 2.227c-.537.56-1.288.861-2.062.826a3.013 3.013 0 0 1 -2.488-1.141 3.166 3.166 0 0 1 -.705-2.037 3.301 3.301 0 0 1 .403-1.604c.256-.478.637-.88 1.102-1.16a3.062 3.062 0 0 1 1.593-.418c.467-.001.929.094 1.358.28.463.21.882.507 1.236.873z"/><path d="m24.24 25.653.812-6.06h.095l2.3 4.97 2.283-4.97h.095l.815 6.06h-.554l-.561-4.334-1.997 4.334h-.148l-2.026-4.356-.554 4.367z"/><path d="m35.526 23.083h-1.936l.972-2.202zm-1.02-3.49-2.676 6.06h.632l.884-1.997h2.437l.877 1.997h.612l-2.642-6.06z"/><path d="m38.178 20.196v-.596h3.104v.595h-1.262v5.464h-.58v-5.464z"/><path d="m42.625 19.594h.565v6.059h-.565z"/><path d="m50.365 20.714-.444.367a2.428 2.428 0 0 0 -2.03-1.046 2.516 2.516 0 0 0 -2.15 1.303 2.707 2.707 0 0 0 -.315 1.317c-.016.681.239 1.341.708 1.835a2.37 2.37 0 0 0 1.791.734 2.462 2.462 0 0 0 1.997-.995l.444.367a2.878 2.878 0 0 1 -1.056.892c-.44.216-.924.325-1.413.316a2.861 2.861 0 0 1 -2.346-1.057 3.334 3.334 0 0 1 -.734-2.157 3.101 3.101 0 0 1 .876-2.243 2.897 2.897 0 0 1 2.202-.91c.497-.007.989.11 1.431.337.42.221.778.545 1.04.94z"/><path d="m56.387 20.166c.28-.016.56.02.825.106a.827.827 0 0 1 .404.367c.102.167.156.359.154.555.003.199-.05.394-.154.565a.851.851 0 0 1 -.423.367c-.275.091-.565.13-.856.114h-.956v-2.051zm-1.571 5.472h.566v-2.818h.404c.483.02.966-.012 1.442-.095.327-.078.618-.264.825-.529a1.788 1.788 0 0 0 -.008-1.997 1.44 1.44 0 0 0 -.792-.51 5.933 5.933 0 0 0 -1.31-.095h-1.127z"/><path d="m59.448 19.594h.565v5.471h2.18v.587h-2.745z"/><path d="m66.965 23.083h-1.934l.969-2.202zm-1.04-3.49-2.667 6.06h.631l.881-1.997h2.44l.889 1.997h.612l-2.642-6.06z"/><path d="m69.141 19.594h.653l1.469 2.499 1.426-2.5h.654l-1.807 3.171v2.896h-.558v-2.896z"/><path d="m76.756 20v-.19h.965v.19h-.393v1.699h-.18v-1.7z"/><path d="m77.992 21.698.253-1.886h.03l.734 1.548.709-1.548h.029l.253 1.886h-.172l-.173-1.347-.624 1.347h-.048l-.627-1.358-.176 1.358z"/></g></svg>