<svg height="24" viewBox="0 0 24 24" width="24" xmlns="http://www.w3.org/2000/svg"><g fill="#1dacee"><path d="m9.749 23.177-8.991-8.964a.215.215 0 0 0 -.361.11c-.076.371-.135.714-.18 1.02-.48 3.21-.131 6.245.846 7.388.85.991 2.855 1.214 3.975 1.258.186.007.377.01.572.01a18.968 18.968 0 0 0 4.034-.459.214.214 0 0 0 .105-.363z"/><path d="m24 5.502c-.01-.991-.142-3.405-1.16-4.382-1.07-1.025-4.106-1.398-7.38-.9-.458.069-.997.168-1.595.308a.214.214 0 0 0 -.103.36l9.342 9.316a.214.214 0 0 0 .36-.102c.36-1.506.54-3.05.535-4.599z"/><path d="m11.218 6.53c.247 0 .37.123.37.37v5.757c0 .234.137.369.372.369h2.757c.247 0 .37.123.37.37v1.377c0 .246-.123.369-.37.369h-4.884c-.235 0-.37-.135-.37-.37v-7.872c0-.246.135-.368.37-.368zm11.605 5.378-10.822-10.74a.216.216 0 0 0 -.222-.05 17.41 17.41 0 0 0 -6.629 4.04 17.353 17.353 0 0 0 -4.213 7.084.213.213 0 0 0 .054.215l10.544 10.463a.216.216 0 0 0 .22.052 17.944 17.944 0 0 0 7.048-4.228 17.393 17.393 0 0 0 4.072-6.614.213.213 0 0 0 -.052-.222z"/></g></svg>