<svg height="16" viewBox="0 0 20 16" width="20" xmlns="http://www.w3.org/2000/svg"><path d="m0 16v-16h20v16z" fill="#959595"/><path d="m0 16v-16h20v16z" fill="none" stroke="#707070"/><path d="m13.737 9.768a7.063 7.063 0 0 1 -2.12 2.122l3.67 3.67a1.5 1.5 0 1 0 2.121-2.12zm-5.89-7.268c-1.929 0-3.5 1.57-3.5 3.5h1c0-1.378 1.122-2.5 2.5-2.5zm0-1c2.482 0 4.5 2.019 4.5 4.5s-2.018 4.5-4.5 4.5a4.505 4.505 0 0 1 -4.5-4.5c0-2.481 2.02-4.5 4.5-4.5zm0-1.5a6 6 0 1 0 .003 12 6 6 0 0 0 -.002-12z" fill="#959595"/></svg>