<svg xmlns="http://www.w3.org/2000/svg" width="17" height="18" viewBox="0 0 17 18"><g><g><path fill="#fff" d="M8.5 11.194A2.197 2.197 0 0 1 6.306 9c0-1.21.984-2.194 2.194-2.194S10.694 7.79 10.694 9 9.71 11.194 8.5 11.194zm0-5.485A3.295 3.295 0 0 0 5.209 9 3.295 3.295 0 0 0 8.5 12.292 3.295 3.295 0 0 0 11.791 9 3.295 3.295 0 0 0 8.5 5.71zm5.527 8.22l-1.588-.918c-.925.791-1.253.99-2.435 1.408v1.834a7.445 7.445 0 0 1-3.008 0v-1.834c-1.153-.407-1.486-.596-2.436-1.408l-1.587.917a7.405 7.405 0 0 1-1.506-2.604l1.588-.917c-.224-1.214-.224-1.599 0-2.814l-1.588-.916a7.41 7.41 0 0 1 1.506-2.605l1.587.917c.94-.803 1.271-.996 2.436-1.408V1.748a7.433 7.433 0 0 1 3.008 0v1.834c1.165.411 1.497.604 2.435 1.408l1.588-.918a7.41 7.41 0 0 1 1.506 2.605l-1.588.916c.224 1.215.224 1.6 0 2.814l1.588.917a7.405 7.405 0 0 1-1.506 2.604zm2.245-3.445l-1.118-.645c.07-.557.07-1.12 0-1.677l1.118-.645a.82.82 0 0 0 .379-.943 8.488 8.488 0 0 0-1.973-3.415.823.823 0 0 0-1.01-.147l-1.115.645a6.656 6.656 0 0 0-1.452-.84V1.529a.823.823 0 0 0-.634-.801 8.562 8.562 0 0 0-3.934 0 .823.823 0 0 0-.634.801v1.29c-.517.217-1.005.5-1.452.839l-1.116-.645a.823.823 0 0 0-1.01.147A8.488 8.488 0 0 0 .35 6.574a.82.82 0 0 0 .379.943l1.118.645c-.07.557-.07 1.12 0 1.677l-1.118.645a.82.82 0 0 0-.379.943 8.488 8.488 0 0 0 1.973 3.414.823.823 0 0 0 1.009.147l1.116-.644c.447.34.935.621 1.452.839v1.29c0 .381.262.713.634.8a8.562 8.562 0 0 0 3.934 0 .823.823 0 0 0 .634-.8v-1.29a6.656 6.656 0 0 0 1.452-.84l1.116.645c.33.19.747.13 1.01-.147a8.488 8.488 0 0 0 1.972-3.414.82.82 0 0 0-.38-.943z"/></g></g></svg>