<svg height="24" viewBox="0 0 24 24" width="24" xmlns="http://www.w3.org/2000/svg"><path d="m0 12c0-6.627 5.373-12 12-12s12 5.373 12 12-5.373 12-12 12-12-5.373-12-12z" fill="#fff"/><g fill="#1daff0"><path d="m.696 12.17 3.351-2.434-1.347-4.146a11.718 11.718 0 0 0 -2.004 6.57v.011z"/><path d="m8.12 1.342 3.852 2.799 3.852-2.8a11.755 11.755 0 0 0 -3.852-.645c-1.35 0-2.646.228-3.853.646z"/><path d="m7.105 18.964-4.197-.147a11.801 11.801 0 0 0 5.256 3.841z"/><path d="m15.514 22.644a12.15 12.15 0 0 0 5.41-3.955l-4.32.151z"/><path d="m19.868 9.736 3.375 2.452a11.718 11.718 0 0 0 -2.02-6.623z"/><path d="m11.972 7.382-4.666 3.39 1.782 5.484h5.767l1.782-5.484z"/><path d="m23.123 12c0 6.133-4.99 11.123-11.123 11.123s-11.123-4.99-11.123-11.123 4.99-11.123 11.123-11.123 11.123 4.99 11.123 11.123zm.377 0c0-6.341-5.159-11.5-11.5-11.5s-11.5 5.159-11.5 11.5 5.159 11.5 11.5 11.5 11.5-5.159 11.5-11.5z"/><path d="m8.088 22.637a.196.196 0 0 1 -.188-.142l-1.034-3.605a.196.196 0 0 1 .03-.169l2.219-3.092a.196.196 0 1 1 .319.229l-2.165 3.015 1.008 3.514a.196.196 0 0 1 -.189.25z"/></g></svg>