<svg height="14" viewBox="0 0 33 14" width="33" xmlns="http://www.w3.org/2000/svg"><g fill="#525252"><path d="m0 13.25v-1.541h33v1.54z"/><path d="m33 11.215h-4.798v-11.09c.045-.004.087-.012.129-.012h4.515c.051 0 .103.007.154.011v1.584h-3.03v3.086h2.366v1.585h-2.368v3.229h2.726c.102 0 .204.015.306.022z"/><path d="m23.49 1.717c.346 0 .685-.029 1.016.007.412.045.648.322.687.84.033.436.017.88-.029 1.315-.046.433-.324.686-.757.727-.297.028-.599.005-.916.005zm.003 4.487c.414.025.816.028 1.212.08.32.042.513.267.595.576.03.113.063.23.063.345 0 .578.015 1.157-.024 1.733-.028.41-.287.632-.698.654-.38.02-.76.005-1.148.005zm3.38-2.217c.157-.71.154-1.428.027-2.14-.166-.924-.722-1.554-1.653-1.636-1.163-.101-2.34-.053-3.52-.07v11.094c1.152-.025 2.293.01 3.421-.092 1.089-.098 1.815-.827 1.935-1.88.081-.708.065-1.434.02-2.148-.051-.819-.429-1.467-1.225-1.812.641-.465.872-.75.996-1.316z"/><path d="m14.044 1.684c.404.027.81.008 1.194.092.367.08.497.426.511.769.024.563.027 1.129 0 1.692-.026.542-.375.848-.92.862-.255.006-.51 0-.785 0zm-.007 4.995c.355.025.692.026 1.02.078.355.056.567.307.643.646.057.255.085.52.09.782.014.682-.002 1.364.015 2.046.007.276.062.552.109.825.01.056.077.146.119.147.561.01 1.123.006 1.63.006-.036-.493-.087-.964-.101-1.436-.018-.6.014-1.203-.011-1.803-.038-.877-.217-1.696-1.092-2.157-.008-.005-.009-.024-.015-.04.612-.325.964-.853 1.021-1.523.061-.72.086-1.451.028-2.17-.075-.922-.544-1.6-1.497-1.84a3.155 3.155 0 0 0 -.715-.11c-.947-.016-1.895-.014-2.841-.017-.049 0-.098.01-.148.016v11.073h1.746z"/><path d="m8.052 1.716c.339 0 .67-.025.994.006.377.036.62.268.633.646.025.804.026 1.61 0 2.414-.013.387-.269.608-.648.661-.08.012-.161.009-.242.009h-.737zm-.017 5.316c.426 0 .814.012 1.202-.003 1.162-.043 1.97-.731 2.163-1.873.16-.945.118-1.901.044-2.851-.103-1.338-.956-2.144-2.298-2.177-.919-.022-1.837-.009-2.756-.01-.035 0-.069.01-.106.017v11.063h1.751z"/><path d="m.024 7.823h1.826c0 .172-.004.337.001.502.007.203.006.409.036.609.086.563.424.804.991.724.306-.043.53-.268.605-.614.115-.537.037-1.05-.269-1.506a6.853 6.853 0 0 0 -.715-.882c-.427-.452-.886-.873-1.317-1.321-.97-1.01-1.316-2.2-.97-3.558.271-1.06 1.131-1.741 2.235-1.774.385-.011.785.005 1.155.1.912.23 1.409.88 1.588 1.768.08.395.086.806.127 1.231h-1.684c-.019-.268-.024-.53-.058-.788-.064-.485-.367-.746-.843-.746-.47 0-.759.251-.843.724-.136.76.135 1.398.642 1.936.435.462.919.88 1.376 1.322.58.561 1.072 1.18 1.267 1.983.19.774.185 1.547-.107 2.296-.33.849-.99 1.285-1.884 1.402-.443.057-.88.037-1.31-.077-.984-.26-1.655-1.002-1.775-2-.053-.43-.05-.869-.074-1.331z"/><path d="m20.444 11.203h-1.734v-11.073h1.735z"/></g></svg>