<svg height="24" viewBox="0 0 24 24" width="24" xmlns="http://www.w3.org/2000/svg"><g fill="#00acee"><path d="m.298 19.303a1.021 1.021 0 0 0 0 1.444l1.444 1.45a1.021 1.021 0 0 0 1.444 0l3.61-3.608-2.887-2.891z"/><path d="m4.658 14.976 2.887 2.888c1.22-1.22 3.356-.15 5.891.114l-8.894-8.894c.266 2.537 1.335 4.673.116 5.892z"/><path d="m19.878 15.695a9.127 9.127 0 0 0 .088-12.91 9.178 9.178 0 0 0 -13.08-.083 7.25 7.25 0 0 0 -2.314 4.902l10.405 10.405a7.25 7.25 0 0 0 4.901-2.314z"/><path d="m17.873 20.937a3.063 3.063 0 1 1 6.126 0 3.063 3.063 0 0 1 -6.126 0z"/></g></svg>