<svg xmlns="http://www.w3.org/2000/svg" width="19" height="19" viewBox="0 0 19 19"><g><g><path fill="#fa3939" d="M15.44 11.394v-.297c0-.245.2-.445.445-.445h.297c.245 0 .445.2.445.445v.297c0 .245-.2.445-.445.445h-.297a.447.447 0 0 1-.445-.445zM8.314 5.938c4.75 0 5.64.297 5.64.297s.298 0 .298 4.417c0 4.49-.297 4.49-.297 4.49s-.89.297-5.641.297-5.642-.297-5.642-.297-.297 0-.297-4.49c0-4.417.297-4.417.297-4.417s.891-.297 5.642-.297zm-4.65 1.347c-.05.535-.101 1.54-.101 3.367 0 1.874.052 2.895.1 3.444.713.07 2.097.156 4.65.156 2.554 0 3.938-.086 4.651-.156.048-.546.1-1.57.1-3.444 0-1.826-.052-2.832-.1-3.367-.709-.074-2.097-.16-4.65-.16-2.554 0-3.942.086-4.65.16zm14.15-1.978a.596.596 0 0 0-.593-.594H1.781a.596.596 0 0 0-.593.594v10.69c0 .326.267.593.593.593h15.44a.596.596 0 0 0 .594-.594zm1.188 0v10.69c0 .983-.797 1.78-1.781 1.78h-.594v1.225h-.594l-.408-1.224H3.377l-.408 1.224h-.594v-1.224h-.594A1.782 1.782 0 0 1 0 15.996V5.307c0-.983.798-1.781 1.781-1.781h5.942l-2.776-2.49a.594.594 0 1 1 .79-.888l3.764 3.378h.03L13.26.152a.593.593 0 1 1 .794.883l-2.754 2.49h5.92c.984 0 1.781.799 1.781 1.782zM15.44 9.02v-.297c0-.245.2-.446.445-.446h.297c.245 0 .445.2.445.446v.297c0 .245-.2.445-.445.445h-.297a.447.447 0 0 1-.445-.445z"/></g></g></svg>