<svg height="24" viewBox="0 0 24 24" width="24" xmlns="http://www.w3.org/2000/svg"><g fill="#00acee"><path d="m12.634 12.435c-.403 5.61-3.439 8.913-5.534 10.535.99.443 2.05.751 3.16.913l.455-.37c2.755-2.233 6.089-6.206 6.86-12.466-1.535.111-3.194.529-4.941 1.388z"/><path d="m23.532 8.683-.608-.374c-2.174-1.34-7.864-4.035-14.793-1.151.876 1.385 2.116 2.737 3.866 3.918 5.02-2.45 9.449-1.468 11.925-.477a12.069 12.069 0 0 0 -.39-1.916z"/><path d="m11.987 0c-2.11 0-4.093.548-5.817 1.505l.006.054c.14 1.27.5 2.767 1.223 4.289 6.668-2.845 12.306-.944 15.222.572-2.016-3.817-6.019-6.42-10.634-6.42z"/><path d="m4.822 2.412a12.06 12.06 0 0 0 -2.552 2.599l.065.419c.546 3.526 2.262 8.475 7.226 12.442.82-1.478 1.444-3.31 1.599-5.564-4.343-2.945-5.872-6.86-6.34-9.896z"/><path d="m1.105 6.978a11.976 11.976 0 0 0 -1.105 5.017c0 4.305 2.266 8.068 5.663 10.195l.144-.104a13.21 13.21 0 0 0 2.95-2.968c-4.83-3.802-6.845-8.463-7.652-12.14z"/><path d="m23.797 12.156a13.351 13.351 0 0 0 -4.723-1.131c-.713 6.294-3.823 10.449-6.653 12.975 6.354-.226 11.447-5.374 11.579-11.755z"/></g></svg>