<svg height="16" viewBox="0 0 18 16" width="18" xmlns="http://www.w3.org/2000/svg"><path d="m13.776 3.046c.002-.029.008-.051.003-.07-.084-.343-.166-.687-.254-1.028-.126-.487-.437-.675-.897-.544-1.8.51-3.602 1.02-5.402 1.532-.089.026-.176.06-.263.089l.007.021zm2.924 5.474h-4.47v2.019h4.47zm.012-1.377v-1.899c0-.577-.236-.826-.783-.826h-13.859c-.548 0-.783.248-.783.826v8.556c0 .591.232.834.796.834h13.977c.376-.013.644-.292.648-.691.006-.618.002-1.235.001-1.852 0-.055-.005-.11-.009-.18h-.229c-1.406 0-2.812.001-4.218-.002-.775-.001-1.324-.587-1.327-1.411-.003-.632-.001-1.263 0-1.895 0-.893.538-1.462 1.38-1.462h4.404zm-7.712 8.855h-6.948c-1.235 0-2.052-.864-2.052-2.17v-8.599c0-1.213.677-1.993 1.805-2.183.59-.1 1.165-.31 1.746-.475l8.732-2.483c1.157-.329 2.158.275 2.481 1.5.115.437.228.874.331 1.314.028.122.078.154.19.155.375.004.754-.017 1.121.04.897.142 1.583.976 1.586 1.939.01 2.994.012 5.988 0 8.982a1.962 1.962 0 0 1 -1.964 1.98c-2.343.003-4.686 0-7.028 0" fill="#525252"/></svg>